G04 EAGLE Gerber RS-274X export*
G75*
%MOMM*%
%FSLAX34Y34*%
%LPD*%
%INBottom Copper*%
%IPPOS*%
%AMOC8*
5,1,8,0,0,1.08239X$1,22.5*%
G01*
%ADD10P,1.429621X8X22.500000*%
%ADD11P,1.429621X8X202.500000*%
%ADD12P,1.429621X8X292.500000*%
%ADD13C,1.320800*%
%ADD14P,1.429621X8X112.500000*%
%ADD15C,1.320800*%
%ADD16C,1.524000*%
%ADD17C,1.790700*%
%ADD18P,2.336880X8X112.500000*%
%ADD19C,1.000000*%
%ADD20C,0.756400*%
%ADD21C,0.500000*%

G36*
X822626Y48274D02*
X822626Y48274D01*
X822833Y48278D01*
X822942Y48294D01*
X823051Y48301D01*
X823254Y48340D01*
X823458Y48370D01*
X823564Y48399D01*
X823671Y48420D01*
X823868Y48484D01*
X824067Y48540D01*
X824168Y48582D01*
X824272Y48617D01*
X824459Y48705D01*
X824650Y48786D01*
X824744Y48840D01*
X824843Y48887D01*
X825017Y48999D01*
X825196Y49103D01*
X825283Y49169D01*
X825376Y49228D01*
X825535Y49361D01*
X825699Y49486D01*
X825777Y49563D01*
X825861Y49633D01*
X826001Y49785D01*
X826149Y49930D01*
X826217Y50016D01*
X826291Y50097D01*
X826411Y50265D01*
X826539Y50427D01*
X826595Y50521D01*
X826659Y50610D01*
X826757Y50792D01*
X826864Y50970D01*
X826908Y51070D01*
X826960Y51166D01*
X827034Y51359D01*
X827117Y51549D01*
X827148Y51654D01*
X827188Y51756D01*
X827237Y51957D01*
X827296Y52155D01*
X827313Y52263D01*
X827339Y52370D01*
X827363Y52575D01*
X827396Y52779D01*
X827400Y52889D01*
X827412Y52997D01*
X827410Y53204D01*
X827417Y53411D01*
X827407Y53520D01*
X827405Y53630D01*
X827377Y53834D01*
X827358Y54040D01*
X827332Y54163D01*
X827319Y54256D01*
X827287Y54374D01*
X827249Y54554D01*
X825739Y60188D01*
X825739Y66812D01*
X827454Y73212D01*
X830766Y78949D01*
X835451Y83634D01*
X841188Y86946D01*
X847588Y88661D01*
X854212Y88661D01*
X859646Y87205D01*
X859849Y87164D01*
X860050Y87114D01*
X860158Y87102D01*
X860266Y87080D01*
X860472Y87065D01*
X860677Y87041D01*
X860787Y87043D01*
X860896Y87035D01*
X861103Y87046D01*
X861310Y87048D01*
X861418Y87063D01*
X861527Y87069D01*
X861731Y87106D01*
X861936Y87135D01*
X862042Y87163D01*
X862149Y87183D01*
X862346Y87245D01*
X862546Y87299D01*
X862647Y87341D01*
X862752Y87374D01*
X862939Y87461D01*
X863130Y87540D01*
X863226Y87594D01*
X863325Y87640D01*
X863500Y87750D01*
X863680Y87852D01*
X863768Y87918D01*
X863860Y87976D01*
X864020Y88107D01*
X864186Y88231D01*
X864264Y88308D01*
X864349Y88377D01*
X864491Y88527D01*
X864640Y88671D01*
X864708Y88757D01*
X864783Y88836D01*
X864905Y89003D01*
X865034Y89165D01*
X865092Y89259D01*
X865156Y89347D01*
X865256Y89528D01*
X865364Y89705D01*
X865408Y89805D01*
X865461Y89900D01*
X865538Y90093D01*
X865622Y90281D01*
X865654Y90386D01*
X865694Y90488D01*
X865746Y90688D01*
X865806Y90886D01*
X865824Y90994D01*
X865851Y91100D01*
X865877Y91306D01*
X865912Y91509D01*
X865918Y91635D01*
X865930Y91727D01*
X865930Y91851D01*
X865939Y92034D01*
X865939Y641940D01*
X865928Y642125D01*
X865926Y642310D01*
X865908Y642440D01*
X865899Y642571D01*
X865864Y642752D01*
X865839Y642936D01*
X865805Y643062D01*
X865780Y643192D01*
X865722Y643368D01*
X865674Y643546D01*
X865624Y643667D01*
X865583Y643792D01*
X865504Y643960D01*
X865434Y644130D01*
X865369Y644245D01*
X865313Y644363D01*
X865213Y644519D01*
X865122Y644680D01*
X865043Y644785D01*
X864972Y644896D01*
X864853Y645038D01*
X864742Y645186D01*
X864651Y645280D01*
X864567Y645381D01*
X864431Y645507D01*
X864302Y645640D01*
X864200Y645722D01*
X864103Y645811D01*
X863953Y645919D01*
X863809Y646034D01*
X863696Y646103D01*
X863590Y646179D01*
X863427Y646267D01*
X863269Y646364D01*
X863149Y646417D01*
X863034Y646480D01*
X862861Y646546D01*
X862692Y646622D01*
X862567Y646660D01*
X862444Y646708D01*
X862264Y646752D01*
X862087Y646806D01*
X861958Y646828D01*
X861830Y646859D01*
X861647Y646881D01*
X861464Y646912D01*
X861311Y646920D01*
X861203Y646932D01*
X861094Y646931D01*
X860940Y646939D01*
X15160Y646939D01*
X14975Y646928D01*
X14790Y646926D01*
X14660Y646908D01*
X14529Y646899D01*
X14348Y646864D01*
X14164Y646839D01*
X14038Y646805D01*
X13908Y646780D01*
X13732Y646722D01*
X13554Y646674D01*
X13433Y646624D01*
X13308Y646583D01*
X13140Y646504D01*
X12970Y646434D01*
X12855Y646369D01*
X12737Y646313D01*
X12581Y646213D01*
X12420Y646122D01*
X12315Y646043D01*
X12204Y645972D01*
X12062Y645853D01*
X11914Y645742D01*
X11820Y645651D01*
X11719Y645567D01*
X11593Y645431D01*
X11460Y645302D01*
X11378Y645200D01*
X11289Y645103D01*
X11181Y644953D01*
X11066Y644809D01*
X10997Y644696D01*
X10921Y644590D01*
X10833Y644427D01*
X10736Y644269D01*
X10683Y644149D01*
X10620Y644034D01*
X10554Y643861D01*
X10478Y643692D01*
X10440Y643567D01*
X10392Y643444D01*
X10348Y643264D01*
X10294Y643087D01*
X10272Y642958D01*
X10241Y642830D01*
X10219Y642647D01*
X10188Y642464D01*
X10180Y642311D01*
X10168Y642203D01*
X10169Y642094D01*
X10161Y641940D01*
X10161Y603178D01*
X10179Y602896D01*
X10193Y602612D01*
X10199Y602580D01*
X10201Y602547D01*
X10254Y602269D01*
X10304Y601990D01*
X10314Y601959D01*
X10320Y601927D01*
X10408Y601657D01*
X10493Y601387D01*
X10506Y601357D01*
X10517Y601326D01*
X10638Y601069D01*
X10756Y600812D01*
X10773Y600785D01*
X10787Y600755D01*
X10940Y600516D01*
X11090Y600275D01*
X11110Y600250D01*
X11128Y600222D01*
X11310Y600005D01*
X11489Y599785D01*
X11512Y599762D01*
X11533Y599737D01*
X11741Y599545D01*
X11946Y599349D01*
X11973Y599329D01*
X11997Y599307D01*
X12226Y599142D01*
X12455Y598974D01*
X12484Y598958D01*
X12510Y598939D01*
X12759Y598805D01*
X13007Y598666D01*
X13038Y598654D01*
X13066Y598638D01*
X13330Y598536D01*
X13594Y598431D01*
X13625Y598422D01*
X13656Y598410D01*
X13931Y598342D01*
X14205Y598271D01*
X14238Y598267D01*
X14270Y598259D01*
X14551Y598226D01*
X14832Y598190D01*
X14865Y598190D01*
X14897Y598186D01*
X15180Y598189D01*
X15464Y598188D01*
X15497Y598192D01*
X15530Y598193D01*
X15809Y598231D01*
X16091Y598266D01*
X16123Y598275D01*
X16156Y598279D01*
X16428Y598353D01*
X16704Y598423D01*
X16734Y598435D01*
X16766Y598444D01*
X17027Y598551D01*
X17291Y598656D01*
X17320Y598672D01*
X17350Y598684D01*
X17597Y598824D01*
X17845Y598961D01*
X17871Y598980D01*
X17900Y598997D01*
X18126Y599166D01*
X18356Y599334D01*
X18379Y599356D01*
X18406Y599376D01*
X18609Y599573D01*
X18815Y599767D01*
X18836Y599793D01*
X18860Y599816D01*
X19037Y600037D01*
X19216Y600256D01*
X19234Y600284D01*
X19254Y600309D01*
X19402Y600551D01*
X19553Y600791D01*
X19568Y600824D01*
X19584Y600849D01*
X19635Y600964D01*
X19779Y601265D01*
X20264Y602435D01*
X23211Y605383D01*
X27062Y606978D01*
X49138Y606978D01*
X52989Y605383D01*
X55937Y602435D01*
X57532Y598584D01*
X57532Y594416D01*
X55937Y590565D01*
X52989Y587617D01*
X49138Y586022D01*
X27062Y586022D01*
X23211Y587617D01*
X20264Y590565D01*
X19779Y591735D01*
X19654Y591989D01*
X19533Y592245D01*
X19515Y592273D01*
X19500Y592302D01*
X19345Y592538D01*
X19192Y592778D01*
X19171Y592803D01*
X19153Y592830D01*
X18969Y593045D01*
X18787Y593263D01*
X18762Y593285D01*
X18741Y593310D01*
X18531Y593500D01*
X18323Y593693D01*
X18297Y593712D01*
X18272Y593734D01*
X18039Y593897D01*
X17810Y594061D01*
X17781Y594077D01*
X17754Y594096D01*
X17502Y594227D01*
X17254Y594362D01*
X17223Y594373D01*
X17194Y594389D01*
X16928Y594487D01*
X16664Y594590D01*
X16632Y594597D01*
X16601Y594609D01*
X16325Y594673D01*
X16050Y594741D01*
X16018Y594745D01*
X15986Y594752D01*
X15703Y594782D01*
X15423Y594814D01*
X15390Y594814D01*
X15357Y594817D01*
X15073Y594810D01*
X14790Y594807D01*
X14758Y594803D01*
X14725Y594802D01*
X14446Y594760D01*
X14164Y594721D01*
X14132Y594712D01*
X14100Y594707D01*
X13828Y594630D01*
X13554Y594556D01*
X13524Y594544D01*
X13492Y594535D01*
X13231Y594423D01*
X12970Y594316D01*
X12941Y594299D01*
X12911Y594287D01*
X12667Y594144D01*
X12420Y594003D01*
X12394Y593984D01*
X12365Y593967D01*
X12141Y593794D01*
X11914Y593624D01*
X11891Y593601D01*
X11865Y593581D01*
X11663Y593381D01*
X11460Y593184D01*
X11440Y593159D01*
X11417Y593135D01*
X11243Y592912D01*
X11066Y592691D01*
X11049Y592662D01*
X11028Y592637D01*
X10884Y592393D01*
X10736Y592151D01*
X10723Y592121D01*
X10706Y592093D01*
X10594Y591832D01*
X10478Y591574D01*
X10468Y591543D01*
X10455Y591513D01*
X10377Y591241D01*
X10294Y590969D01*
X10289Y590937D01*
X10280Y590905D01*
X10236Y590627D01*
X10188Y590346D01*
X10186Y590310D01*
X10182Y590281D01*
X10178Y590155D01*
X10161Y589822D01*
X10161Y555262D01*
X10178Y554990D01*
X10190Y554717D01*
X10198Y554674D01*
X10201Y554631D01*
X10252Y554363D01*
X10299Y554095D01*
X10312Y554053D01*
X10320Y554010D01*
X10405Y553751D01*
X10485Y553491D01*
X10503Y553451D01*
X10517Y553409D01*
X10634Y553162D01*
X10746Y552915D01*
X10769Y552878D01*
X10787Y552838D01*
X10935Y552608D01*
X11077Y552377D01*
X11104Y552343D01*
X11128Y552306D01*
X11303Y552096D01*
X11474Y551884D01*
X11505Y551854D01*
X11533Y551821D01*
X11733Y551635D01*
X11929Y551446D01*
X11965Y551420D01*
X11997Y551391D01*
X12218Y551232D01*
X12437Y551069D01*
X12475Y551048D01*
X12510Y551022D01*
X12749Y550893D01*
X12987Y550759D01*
X13028Y550743D01*
X13066Y550722D01*
X13321Y550623D01*
X13573Y550521D01*
X13615Y550510D01*
X13656Y550494D01*
X13921Y550429D01*
X14184Y550359D01*
X14227Y550353D01*
X14270Y550342D01*
X14540Y550311D01*
X14810Y550275D01*
X14854Y550274D01*
X14897Y550269D01*
X15170Y550272D01*
X15442Y550270D01*
X15486Y550276D01*
X15530Y550276D01*
X15800Y550313D01*
X16070Y550346D01*
X16112Y550356D01*
X16156Y550362D01*
X16419Y550434D01*
X16683Y550500D01*
X16724Y550516D01*
X16766Y550527D01*
X17017Y550631D01*
X17272Y550730D01*
X17310Y550751D01*
X17350Y550768D01*
X17587Y550902D01*
X17827Y551033D01*
X17862Y551058D01*
X17900Y551080D01*
X18118Y551243D01*
X18339Y551403D01*
X18371Y551433D01*
X18406Y551459D01*
X18601Y551649D01*
X18800Y551835D01*
X18828Y551869D01*
X18860Y551899D01*
X19030Y552112D01*
X19204Y552322D01*
X19230Y552362D01*
X19254Y552393D01*
X19325Y552509D01*
X19490Y552762D01*
X19569Y552900D01*
X20486Y554095D01*
X21552Y555160D01*
X22747Y556078D01*
X24052Y556831D01*
X25444Y557408D01*
X26899Y557798D01*
X28393Y557994D01*
X33101Y557994D01*
X33101Y546500D01*
X33101Y535006D01*
X28393Y535006D01*
X26899Y535202D01*
X25444Y535592D01*
X24052Y536169D01*
X22747Y536922D01*
X21552Y537840D01*
X20486Y538905D01*
X19569Y540100D01*
X19490Y540238D01*
X19339Y540464D01*
X19192Y540694D01*
X19164Y540728D01*
X19140Y540764D01*
X18961Y540970D01*
X18787Y541179D01*
X18755Y541209D01*
X18726Y541242D01*
X18523Y541424D01*
X18323Y541609D01*
X18288Y541635D01*
X18255Y541664D01*
X18031Y541819D01*
X17810Y541978D01*
X17771Y541998D01*
X17735Y542023D01*
X17493Y542149D01*
X17254Y542278D01*
X17213Y542294D01*
X17174Y542314D01*
X16917Y542408D01*
X16664Y542506D01*
X16622Y542517D01*
X16581Y542532D01*
X16314Y542593D01*
X16050Y542658D01*
X16007Y542663D01*
X15964Y542673D01*
X15692Y542699D01*
X15423Y542731D01*
X15379Y542730D01*
X15335Y542735D01*
X15062Y542727D01*
X14790Y542724D01*
X14747Y542718D01*
X14703Y542717D01*
X14434Y542675D01*
X14164Y542638D01*
X14122Y542626D01*
X14079Y542619D01*
X13817Y542544D01*
X13554Y542473D01*
X13514Y542456D01*
X13472Y542444D01*
X13222Y542336D01*
X12970Y542232D01*
X12931Y542211D01*
X12891Y542193D01*
X12657Y542055D01*
X12420Y541920D01*
X12385Y541894D01*
X12347Y541871D01*
X12132Y541704D01*
X11914Y541541D01*
X11883Y541510D01*
X11848Y541484D01*
X11656Y541290D01*
X11460Y541101D01*
X11433Y541067D01*
X11402Y541036D01*
X11236Y540820D01*
X11066Y540607D01*
X11043Y540570D01*
X11016Y540535D01*
X10879Y540301D01*
X10736Y540068D01*
X10718Y540027D01*
X10696Y539990D01*
X10590Y539740D01*
X10478Y539491D01*
X10465Y539449D01*
X10448Y539409D01*
X10373Y539147D01*
X10294Y538886D01*
X10287Y538843D01*
X10275Y538801D01*
X10234Y538532D01*
X10188Y538263D01*
X10186Y538214D01*
X10180Y538176D01*
X10177Y538041D01*
X10161Y537738D01*
X10161Y91980D01*
X10174Y91774D01*
X10178Y91567D01*
X10194Y91458D01*
X10201Y91349D01*
X10240Y91146D01*
X10270Y90942D01*
X10299Y90836D01*
X10320Y90729D01*
X10384Y90532D01*
X10440Y90333D01*
X10482Y90232D01*
X10517Y90128D01*
X10605Y89941D01*
X10686Y89750D01*
X10740Y89656D01*
X10787Y89557D01*
X10899Y89383D01*
X11003Y89204D01*
X11069Y89117D01*
X11128Y89024D01*
X11261Y88865D01*
X11386Y88701D01*
X11463Y88623D01*
X11533Y88539D01*
X11685Y88399D01*
X11830Y88251D01*
X11916Y88183D01*
X11997Y88109D01*
X12165Y87989D01*
X12327Y87861D01*
X12421Y87805D01*
X12510Y87741D01*
X12692Y87643D01*
X12870Y87536D01*
X12970Y87492D01*
X13066Y87440D01*
X13259Y87366D01*
X13449Y87283D01*
X13554Y87252D01*
X13656Y87212D01*
X13857Y87163D01*
X14055Y87104D01*
X14163Y87087D01*
X14270Y87061D01*
X14475Y87037D01*
X14679Y87004D01*
X14789Y87000D01*
X14897Y86988D01*
X15104Y86990D01*
X15311Y86983D01*
X15420Y86993D01*
X15530Y86995D01*
X15734Y87023D01*
X15940Y87042D01*
X16063Y87068D01*
X16156Y87081D01*
X16274Y87113D01*
X16454Y87151D01*
X22088Y88661D01*
X28712Y88661D01*
X35112Y86946D01*
X40849Y83634D01*
X45534Y78949D01*
X48846Y73212D01*
X50561Y66812D01*
X50561Y60188D01*
X49051Y54554D01*
X49010Y54351D01*
X48961Y54150D01*
X48948Y54042D01*
X48927Y53934D01*
X48912Y53728D01*
X48888Y53523D01*
X48889Y53413D01*
X48881Y53304D01*
X48892Y53097D01*
X48895Y52890D01*
X48910Y52782D01*
X48915Y52673D01*
X48953Y52469D01*
X48981Y52264D01*
X49010Y52159D01*
X49029Y52051D01*
X49092Y51854D01*
X49146Y51654D01*
X49187Y51553D01*
X49221Y51448D01*
X49308Y51261D01*
X49386Y51070D01*
X49440Y50974D01*
X49486Y50875D01*
X49596Y50700D01*
X49699Y50520D01*
X49764Y50432D01*
X49823Y50340D01*
X49954Y50180D01*
X50078Y50014D01*
X50154Y49936D01*
X50223Y49851D01*
X50374Y49709D01*
X50518Y49560D01*
X50603Y49492D01*
X50683Y49417D01*
X50850Y49295D01*
X51011Y49166D01*
X51105Y49109D01*
X51193Y49044D01*
X51374Y48944D01*
X51551Y48836D01*
X51651Y48792D01*
X51747Y48739D01*
X51939Y48663D01*
X52128Y48578D01*
X52233Y48546D01*
X52334Y48506D01*
X52535Y48454D01*
X52733Y48394D01*
X52841Y48376D01*
X52947Y48349D01*
X53152Y48323D01*
X53356Y48288D01*
X53481Y48282D01*
X53574Y48270D01*
X53697Y48270D01*
X53880Y48261D01*
X822420Y48261D01*
X822626Y48274D01*
G37*
%LPC*%
G36*
X237542Y72135D02*
X237542Y72135D01*
X235144Y73129D01*
X232606Y75667D01*
X232605Y75667D01*
X113062Y195211D01*
X112972Y195290D01*
X112889Y195376D01*
X112735Y195499D01*
X112587Y195629D01*
X112488Y195696D01*
X112395Y195770D01*
X112227Y195873D01*
X112064Y195983D01*
X111958Y196037D01*
X111856Y196100D01*
X111676Y196180D01*
X111500Y196269D01*
X111388Y196309D01*
X111279Y196358D01*
X111090Y196415D01*
X110905Y196482D01*
X110788Y196507D01*
X110674Y196542D01*
X110480Y196575D01*
X110287Y196617D01*
X110169Y196628D01*
X110051Y196648D01*
X109797Y196661D01*
X109658Y196674D01*
X109600Y196671D01*
X109527Y196675D01*
X54199Y196675D01*
X54080Y196668D01*
X53960Y196670D01*
X53764Y196648D01*
X53568Y196635D01*
X53451Y196613D01*
X53332Y196600D01*
X53141Y196553D01*
X52947Y196516D01*
X52834Y196479D01*
X52718Y196451D01*
X52534Y196381D01*
X52346Y196319D01*
X52238Y196268D01*
X52127Y196226D01*
X51954Y196133D01*
X51775Y196049D01*
X51674Y195984D01*
X51569Y195928D01*
X51409Y195814D01*
X51243Y195708D01*
X51151Y195631D01*
X51054Y195562D01*
X50949Y195468D01*
X50106Y195119D01*
X49882Y195008D01*
X49654Y194904D01*
X49598Y194869D01*
X49539Y194840D01*
X49330Y194702D01*
X49117Y194570D01*
X49066Y194529D01*
X49011Y194493D01*
X48821Y194330D01*
X48626Y194171D01*
X48581Y194124D01*
X48531Y194081D01*
X48363Y193895D01*
X48190Y193714D01*
X48151Y193661D01*
X48107Y193612D01*
X47964Y193407D01*
X47815Y193205D01*
X47783Y193148D01*
X47746Y193094D01*
X47630Y192872D01*
X47508Y192653D01*
X47483Y192592D01*
X47453Y192534D01*
X47365Y192298D01*
X47272Y192066D01*
X47255Y192003D01*
X47232Y191941D01*
X47176Y191697D01*
X47112Y191455D01*
X47104Y191390D01*
X47089Y191326D01*
X47063Y191076D01*
X47031Y190828D01*
X47031Y190762D01*
X47024Y190697D01*
X47030Y190446D01*
X47029Y190196D01*
X47038Y190131D01*
X47039Y190065D01*
X47077Y189817D01*
X47108Y189569D01*
X47124Y189505D01*
X47134Y189440D01*
X47202Y189199D01*
X47265Y188956D01*
X47289Y188895D01*
X47307Y188832D01*
X47405Y188601D01*
X47497Y188369D01*
X47529Y188311D01*
X47555Y188251D01*
X47682Y188034D01*
X47802Y187815D01*
X47841Y187762D01*
X47874Y187705D01*
X48027Y187506D01*
X48175Y187304D01*
X48220Y187257D01*
X48260Y187205D01*
X48437Y187027D01*
X48609Y186845D01*
X48660Y186803D01*
X48706Y186757D01*
X48904Y186603D01*
X49097Y186444D01*
X49153Y186409D01*
X49205Y186368D01*
X49420Y186241D01*
X49633Y186107D01*
X49699Y186076D01*
X49749Y186046D01*
X49877Y185991D01*
X50106Y185881D01*
X50900Y185552D01*
X53473Y182980D01*
X54865Y179619D01*
X54865Y175981D01*
X53473Y172620D01*
X50900Y170047D01*
X50106Y169719D01*
X49882Y169608D01*
X49654Y169504D01*
X49598Y169469D01*
X49539Y169440D01*
X49330Y169302D01*
X49117Y169170D01*
X49066Y169129D01*
X49011Y169093D01*
X48821Y168930D01*
X48626Y168771D01*
X48581Y168724D01*
X48531Y168681D01*
X48363Y168495D01*
X48190Y168314D01*
X48151Y168261D01*
X48107Y168212D01*
X47964Y168007D01*
X47815Y167805D01*
X47783Y167748D01*
X47746Y167694D01*
X47630Y167472D01*
X47508Y167253D01*
X47483Y167192D01*
X47453Y167134D01*
X47365Y166898D01*
X47272Y166666D01*
X47255Y166603D01*
X47232Y166541D01*
X47176Y166297D01*
X47112Y166055D01*
X47104Y165990D01*
X47089Y165926D01*
X47063Y165676D01*
X47031Y165428D01*
X47031Y165362D01*
X47024Y165297D01*
X47030Y165046D01*
X47029Y164796D01*
X47038Y164731D01*
X47039Y164665D01*
X47077Y164417D01*
X47108Y164169D01*
X47124Y164105D01*
X47134Y164040D01*
X47202Y163799D01*
X47265Y163556D01*
X47289Y163495D01*
X47307Y163432D01*
X47405Y163201D01*
X47497Y162969D01*
X47529Y162911D01*
X47555Y162851D01*
X47682Y162634D01*
X47802Y162415D01*
X47841Y162362D01*
X47874Y162305D01*
X48027Y162106D01*
X48175Y161904D01*
X48220Y161857D01*
X48260Y161805D01*
X48437Y161627D01*
X48609Y161445D01*
X48660Y161403D01*
X48706Y161357D01*
X48904Y161203D01*
X49097Y161044D01*
X49153Y161009D01*
X49205Y160968D01*
X49420Y160841D01*
X49633Y160707D01*
X49699Y160676D01*
X49749Y160646D01*
X49877Y160591D01*
X50106Y160481D01*
X50900Y160152D01*
X53473Y157580D01*
X54865Y154219D01*
X54865Y150581D01*
X53473Y147220D01*
X50840Y144587D01*
X50735Y144536D01*
X50689Y144506D01*
X50641Y144481D01*
X50426Y144332D01*
X50207Y144188D01*
X50166Y144153D01*
X50121Y144122D01*
X49926Y143947D01*
X49727Y143777D01*
X49691Y143736D01*
X49650Y143700D01*
X49479Y143502D01*
X49303Y143308D01*
X49272Y143263D01*
X49236Y143222D01*
X49091Y143004D01*
X48942Y142789D01*
X48916Y142741D01*
X48886Y142696D01*
X48770Y142461D01*
X48649Y142229D01*
X48630Y142178D01*
X48605Y142129D01*
X48520Y141882D01*
X48428Y141637D01*
X48416Y141584D01*
X48398Y141532D01*
X48344Y141276D01*
X48285Y141021D01*
X48279Y140967D01*
X48268Y140914D01*
X48247Y140653D01*
X48220Y140392D01*
X48221Y140338D01*
X48217Y140284D01*
X48229Y140023D01*
X48235Y139761D01*
X48243Y139707D01*
X48246Y139652D01*
X48290Y139395D01*
X48330Y139136D01*
X48345Y139083D01*
X48354Y139030D01*
X48431Y138780D01*
X48503Y138528D01*
X48524Y138477D01*
X48540Y138425D01*
X48648Y138187D01*
X48751Y137946D01*
X48778Y137899D01*
X48801Y137850D01*
X48938Y137627D01*
X49070Y137401D01*
X49103Y137358D01*
X49132Y137311D01*
X49296Y137107D01*
X49456Y136900D01*
X49494Y136861D01*
X49529Y136819D01*
X49717Y136638D01*
X49902Y136452D01*
X49945Y136419D01*
X49984Y136381D01*
X50194Y136225D01*
X50401Y136064D01*
X50447Y136036D01*
X50491Y136004D01*
X50941Y135744D01*
X50944Y135742D01*
X50945Y135742D01*
X50946Y135741D01*
X51045Y135690D01*
X52339Y134750D01*
X53470Y133619D01*
X54410Y132325D01*
X54576Y131999D01*
X38100Y131999D01*
X21624Y131999D01*
X21790Y132325D01*
X22730Y133619D01*
X23861Y134750D01*
X25155Y135690D01*
X25254Y135741D01*
X25301Y135769D01*
X25351Y135791D01*
X25572Y135929D01*
X25798Y136063D01*
X25841Y136096D01*
X25887Y136125D01*
X26091Y136290D01*
X26297Y136451D01*
X26335Y136489D01*
X26378Y136524D01*
X26559Y136714D01*
X26743Y136899D01*
X26776Y136942D01*
X26814Y136981D01*
X26969Y137192D01*
X27129Y137400D01*
X27157Y137447D01*
X27189Y137490D01*
X27316Y137719D01*
X27449Y137945D01*
X27470Y137995D01*
X27497Y138042D01*
X27594Y138285D01*
X27697Y138526D01*
X27712Y138579D01*
X27732Y138629D01*
X27798Y138882D01*
X27870Y139134D01*
X27878Y139188D01*
X27892Y139241D01*
X27925Y139500D01*
X27965Y139759D01*
X27966Y139813D01*
X27973Y139867D01*
X27974Y140129D01*
X27980Y140391D01*
X27974Y140445D01*
X27975Y140500D01*
X27942Y140759D01*
X27915Y141020D01*
X27903Y141073D01*
X27896Y141127D01*
X27832Y141380D01*
X27772Y141635D01*
X27753Y141686D01*
X27740Y141739D01*
X27643Y141982D01*
X27552Y142228D01*
X27527Y142276D01*
X27507Y142327D01*
X27381Y142556D01*
X27259Y142788D01*
X27228Y142833D01*
X27202Y142880D01*
X27047Y143092D01*
X26898Y143307D01*
X26861Y143347D01*
X26829Y143391D01*
X26649Y143582D01*
X26474Y143776D01*
X26433Y143811D01*
X26395Y143851D01*
X26193Y144017D01*
X25994Y144187D01*
X25949Y144217D01*
X25907Y144252D01*
X25685Y144391D01*
X25466Y144535D01*
X25418Y144559D01*
X25371Y144588D01*
X25348Y144599D01*
X22727Y147220D01*
X21335Y150581D01*
X21335Y154219D01*
X22727Y157580D01*
X25300Y160152D01*
X26094Y160481D01*
X26319Y160592D01*
X26546Y160696D01*
X26602Y160731D01*
X26661Y160760D01*
X26870Y160897D01*
X27083Y161030D01*
X27134Y161071D01*
X27189Y161107D01*
X27379Y161271D01*
X27574Y161428D01*
X27619Y161476D01*
X27669Y161519D01*
X27837Y161705D01*
X28010Y161886D01*
X28049Y161939D01*
X28093Y161988D01*
X28236Y162193D01*
X28385Y162395D01*
X28417Y162452D01*
X28454Y162506D01*
X28570Y162728D01*
X28692Y162947D01*
X28717Y163008D01*
X28747Y163066D01*
X28835Y163301D01*
X28928Y163533D01*
X28945Y163597D01*
X28967Y163659D01*
X29024Y163902D01*
X29088Y164145D01*
X29096Y164210D01*
X29111Y164274D01*
X29137Y164523D01*
X29169Y164772D01*
X29169Y164838D01*
X29176Y164903D01*
X29170Y165154D01*
X29171Y165404D01*
X29162Y165469D01*
X29161Y165535D01*
X29123Y165783D01*
X29092Y166031D01*
X29076Y166095D01*
X29066Y166160D01*
X28998Y166401D01*
X28935Y166644D01*
X28911Y166705D01*
X28893Y166768D01*
X28795Y166998D01*
X28703Y167231D01*
X28671Y167289D01*
X28645Y167349D01*
X28519Y167565D01*
X28398Y167785D01*
X28359Y167838D01*
X28326Y167895D01*
X28173Y168093D01*
X28025Y168296D01*
X27980Y168343D01*
X27940Y168395D01*
X27764Y168572D01*
X27591Y168755D01*
X27540Y168797D01*
X27494Y168843D01*
X27297Y168997D01*
X27103Y169156D01*
X27047Y169191D01*
X26995Y169232D01*
X26780Y169359D01*
X26567Y169493D01*
X26501Y169524D01*
X26451Y169554D01*
X26323Y169609D01*
X26094Y169719D01*
X25300Y170047D01*
X22727Y172620D01*
X21335Y175981D01*
X21335Y179619D01*
X22727Y182980D01*
X25300Y185552D01*
X26094Y185881D01*
X26319Y185992D01*
X26546Y186096D01*
X26602Y186131D01*
X26661Y186160D01*
X26870Y186297D01*
X27083Y186430D01*
X27134Y186471D01*
X27189Y186507D01*
X27379Y186671D01*
X27574Y186828D01*
X27619Y186876D01*
X27669Y186919D01*
X27837Y187105D01*
X28010Y187286D01*
X28049Y187339D01*
X28093Y187388D01*
X28236Y187593D01*
X28385Y187795D01*
X28417Y187852D01*
X28454Y187906D01*
X28570Y188128D01*
X28692Y188347D01*
X28717Y188408D01*
X28747Y188466D01*
X28835Y188701D01*
X28928Y188933D01*
X28945Y188997D01*
X28967Y189059D01*
X29024Y189302D01*
X29088Y189545D01*
X29096Y189610D01*
X29111Y189674D01*
X29137Y189923D01*
X29169Y190172D01*
X29169Y190238D01*
X29176Y190303D01*
X29170Y190554D01*
X29171Y190804D01*
X29162Y190869D01*
X29161Y190935D01*
X29123Y191183D01*
X29092Y191431D01*
X29076Y191495D01*
X29066Y191560D01*
X28998Y191801D01*
X28935Y192044D01*
X28911Y192105D01*
X28893Y192168D01*
X28795Y192398D01*
X28703Y192631D01*
X28671Y192689D01*
X28645Y192749D01*
X28519Y192965D01*
X28398Y193185D01*
X28359Y193238D01*
X28326Y193295D01*
X28173Y193493D01*
X28025Y193696D01*
X27980Y193743D01*
X27940Y193795D01*
X27764Y193972D01*
X27591Y194155D01*
X27540Y194197D01*
X27494Y194243D01*
X27297Y194397D01*
X27103Y194556D01*
X27047Y194591D01*
X26995Y194632D01*
X26780Y194759D01*
X26567Y194893D01*
X26501Y194924D01*
X26451Y194954D01*
X26323Y195009D01*
X26094Y195119D01*
X25300Y195447D01*
X22727Y198020D01*
X21335Y201381D01*
X21335Y205019D01*
X22727Y208380D01*
X25300Y210953D01*
X28661Y212345D01*
X47539Y212345D01*
X50954Y210930D01*
X50990Y210901D01*
X51138Y210771D01*
X51237Y210704D01*
X51330Y210630D01*
X51498Y210527D01*
X51661Y210417D01*
X51768Y210363D01*
X51870Y210300D01*
X52049Y210220D01*
X52225Y210131D01*
X52337Y210091D01*
X52446Y210042D01*
X52635Y209985D01*
X52820Y209918D01*
X52937Y209893D01*
X53051Y209858D01*
X53246Y209825D01*
X53438Y209783D01*
X53556Y209772D01*
X53674Y209752D01*
X53928Y209739D01*
X54067Y209726D01*
X54125Y209729D01*
X54199Y209725D01*
X115598Y209725D01*
X117996Y208731D01*
X120535Y206193D01*
X240078Y86649D01*
X240168Y86570D01*
X240251Y86484D01*
X240405Y86361D01*
X240553Y86231D01*
X240651Y86164D01*
X240745Y86090D01*
X240913Y85987D01*
X241076Y85877D01*
X241182Y85823D01*
X241284Y85760D01*
X241464Y85680D01*
X241640Y85591D01*
X241752Y85551D01*
X241861Y85502D01*
X242050Y85445D01*
X242235Y85378D01*
X242352Y85353D01*
X242466Y85318D01*
X242660Y85285D01*
X242853Y85243D01*
X242971Y85232D01*
X243089Y85212D01*
X243343Y85199D01*
X243482Y85186D01*
X243540Y85189D01*
X243613Y85185D01*
X416787Y85185D01*
X416906Y85192D01*
X417025Y85190D01*
X417221Y85212D01*
X417417Y85225D01*
X417534Y85247D01*
X417653Y85260D01*
X417845Y85307D01*
X418038Y85344D01*
X418152Y85381D01*
X418268Y85409D01*
X418451Y85479D01*
X418639Y85541D01*
X418747Y85592D01*
X418858Y85634D01*
X419032Y85727D01*
X419210Y85811D01*
X419311Y85876D01*
X419416Y85932D01*
X419576Y86046D01*
X419742Y86152D01*
X419834Y86229D01*
X419931Y86298D01*
X420120Y86468D01*
X420228Y86557D01*
X420267Y86600D01*
X420322Y86649D01*
X423811Y90138D01*
X423890Y90228D01*
X423976Y90311D01*
X424099Y90465D01*
X424229Y90613D01*
X424296Y90711D01*
X424370Y90805D01*
X424473Y90973D01*
X424583Y91136D01*
X424637Y91242D01*
X424700Y91344D01*
X424780Y91524D01*
X424869Y91700D01*
X424909Y91812D01*
X424958Y91921D01*
X425015Y92110D01*
X425082Y92295D01*
X425107Y92412D01*
X425142Y92526D01*
X425175Y92720D01*
X425217Y92913D01*
X425228Y93031D01*
X425248Y93149D01*
X425261Y93403D01*
X425274Y93542D01*
X425271Y93600D01*
X425275Y93673D01*
X425275Y306098D01*
X426269Y308496D01*
X428807Y311034D01*
X428807Y311035D01*
X453504Y335731D01*
X455902Y336725D01*
X456812Y336725D01*
X456899Y336730D01*
X456985Y336728D01*
X457214Y336750D01*
X457443Y336765D01*
X457528Y336781D01*
X457614Y336789D01*
X457838Y336841D01*
X458064Y336884D01*
X458146Y336911D01*
X458230Y336930D01*
X458544Y337041D01*
X458665Y337081D01*
X458691Y337093D01*
X458725Y337105D01*
X461565Y338281D01*
X461789Y338392D01*
X462017Y338496D01*
X462073Y338531D01*
X462132Y338560D01*
X462341Y338697D01*
X462554Y338830D01*
X462605Y338871D01*
X462660Y338907D01*
X462850Y339071D01*
X463044Y339228D01*
X463090Y339276D01*
X463140Y339319D01*
X463308Y339505D01*
X463481Y339686D01*
X463520Y339739D01*
X463564Y339788D01*
X463707Y339993D01*
X463856Y340195D01*
X463888Y340252D01*
X463925Y340306D01*
X464041Y340528D01*
X464163Y340747D01*
X464188Y340808D01*
X464218Y340866D01*
X464306Y341101D01*
X464399Y341333D01*
X464416Y341397D01*
X464438Y341459D01*
X464495Y341703D01*
X464559Y341945D01*
X464567Y342010D01*
X464582Y342074D01*
X464608Y342324D01*
X464640Y342572D01*
X464640Y342638D01*
X464647Y342703D01*
X464641Y342953D01*
X464641Y343204D01*
X464633Y343269D01*
X464632Y343335D01*
X464594Y343582D01*
X464563Y343831D01*
X464547Y343895D01*
X464537Y343960D01*
X464469Y344201D01*
X464406Y344444D01*
X464382Y344505D01*
X464364Y344568D01*
X464266Y344799D01*
X464174Y345031D01*
X464142Y345089D01*
X464116Y345149D01*
X463989Y345365D01*
X463869Y345585D01*
X463830Y345638D01*
X463797Y345695D01*
X463644Y345893D01*
X463496Y346096D01*
X463451Y346143D01*
X463411Y346195D01*
X463234Y346373D01*
X463062Y346555D01*
X463011Y346597D01*
X462965Y346643D01*
X462768Y346797D01*
X462574Y346956D01*
X462518Y346991D01*
X462466Y347032D01*
X462251Y347159D01*
X462038Y347293D01*
X461972Y347324D01*
X461922Y347354D01*
X461794Y347409D01*
X461565Y347519D01*
X458725Y348695D01*
X458643Y348723D01*
X458565Y348758D01*
X458345Y348825D01*
X458127Y348899D01*
X458043Y348917D01*
X457960Y348942D01*
X457733Y348980D01*
X457508Y349027D01*
X457422Y349033D01*
X457337Y349048D01*
X457004Y349065D01*
X456878Y349075D01*
X456849Y349073D01*
X456812Y349075D01*
X455902Y349075D01*
X453504Y350069D01*
X426269Y377304D01*
X425275Y379702D01*
X425275Y465127D01*
X425268Y465246D01*
X425270Y465365D01*
X425248Y465561D01*
X425235Y465757D01*
X425213Y465874D01*
X425200Y465993D01*
X425153Y466185D01*
X425116Y466378D01*
X425079Y466492D01*
X425051Y466608D01*
X424981Y466791D01*
X424919Y466979D01*
X424868Y467087D01*
X424826Y467198D01*
X424733Y467372D01*
X424649Y467550D01*
X424584Y467651D01*
X424528Y467756D01*
X424414Y467916D01*
X424308Y468082D01*
X424231Y468174D01*
X424162Y468271D01*
X423992Y468460D01*
X423903Y468568D01*
X423860Y468607D01*
X423811Y468662D01*
X405162Y487311D01*
X405072Y487390D01*
X404989Y487476D01*
X404835Y487599D01*
X404687Y487729D01*
X404588Y487796D01*
X404495Y487870D01*
X404327Y487973D01*
X404164Y488083D01*
X404058Y488137D01*
X403956Y488200D01*
X403776Y488280D01*
X403600Y488369D01*
X403488Y488409D01*
X403379Y488458D01*
X403190Y488515D01*
X403005Y488582D01*
X402888Y488607D01*
X402774Y488642D01*
X402580Y488675D01*
X402387Y488717D01*
X402269Y488728D01*
X402151Y488748D01*
X401897Y488761D01*
X401758Y488774D01*
X401700Y488771D01*
X401627Y488775D01*
X296873Y488775D01*
X296754Y488768D01*
X296635Y488770D01*
X296439Y488748D01*
X296243Y488735D01*
X296126Y488713D01*
X296007Y488700D01*
X295815Y488653D01*
X295622Y488616D01*
X295508Y488579D01*
X295392Y488551D01*
X295209Y488481D01*
X295021Y488419D01*
X294913Y488368D01*
X294802Y488326D01*
X294628Y488233D01*
X294450Y488149D01*
X294349Y488084D01*
X294244Y488028D01*
X294084Y487914D01*
X293918Y487808D01*
X293826Y487731D01*
X293729Y487662D01*
X293540Y487492D01*
X293432Y487403D01*
X293393Y487360D01*
X293338Y487311D01*
X274689Y468662D01*
X274610Y468572D01*
X274524Y468489D01*
X274401Y468335D01*
X274271Y468187D01*
X274204Y468088D01*
X274130Y467995D01*
X274027Y467827D01*
X273917Y467664D01*
X273863Y467558D01*
X273800Y467456D01*
X273720Y467276D01*
X273631Y467100D01*
X273591Y466988D01*
X273542Y466879D01*
X273485Y466690D01*
X273418Y466505D01*
X273393Y466388D01*
X273358Y466274D01*
X273325Y466080D01*
X273283Y465887D01*
X273272Y465769D01*
X273252Y465651D01*
X273239Y465397D01*
X273226Y465258D01*
X273229Y465200D01*
X273225Y465127D01*
X273225Y341602D01*
X272231Y339204D01*
X244996Y311969D01*
X242598Y310975D01*
X222942Y310975D01*
X222823Y310968D01*
X222703Y310970D01*
X222507Y310948D01*
X222311Y310935D01*
X222194Y310913D01*
X222075Y310900D01*
X221884Y310853D01*
X221690Y310816D01*
X221577Y310779D01*
X221461Y310751D01*
X221277Y310681D01*
X221089Y310619D01*
X220981Y310568D01*
X220870Y310526D01*
X220697Y310433D01*
X220518Y310349D01*
X220418Y310284D01*
X220313Y310228D01*
X220152Y310114D01*
X219986Y310008D01*
X219894Y309931D01*
X219797Y309862D01*
X219608Y309692D01*
X219501Y309603D01*
X219461Y309560D01*
X219407Y309511D01*
X219267Y309371D01*
X212533Y309371D01*
X207771Y314133D01*
X207771Y320867D01*
X212533Y325629D01*
X219267Y325629D01*
X219407Y325489D01*
X219496Y325410D01*
X219579Y325324D01*
X219733Y325201D01*
X219881Y325071D01*
X219980Y325004D01*
X220073Y324930D01*
X220241Y324827D01*
X220404Y324717D01*
X220511Y324663D01*
X220613Y324600D01*
X220792Y324520D01*
X220968Y324431D01*
X221081Y324391D01*
X221190Y324342D01*
X221378Y324285D01*
X221564Y324218D01*
X221680Y324193D01*
X221794Y324158D01*
X221989Y324125D01*
X222181Y324083D01*
X222300Y324072D01*
X222417Y324052D01*
X222671Y324039D01*
X222810Y324026D01*
X222868Y324029D01*
X222942Y324025D01*
X236527Y324025D01*
X236646Y324032D01*
X236765Y324030D01*
X236961Y324052D01*
X237157Y324065D01*
X237274Y324087D01*
X237393Y324100D01*
X237585Y324147D01*
X237778Y324184D01*
X237892Y324221D01*
X238008Y324249D01*
X238191Y324319D01*
X238379Y324381D01*
X238487Y324432D01*
X238598Y324474D01*
X238772Y324567D01*
X238950Y324651D01*
X239051Y324716D01*
X239156Y324772D01*
X239316Y324886D01*
X239482Y324992D01*
X239574Y325069D01*
X239671Y325138D01*
X239860Y325308D01*
X239968Y325397D01*
X240007Y325440D01*
X240062Y325489D01*
X258711Y344138D01*
X258790Y344228D01*
X258876Y344311D01*
X258999Y344465D01*
X259129Y344613D01*
X259196Y344712D01*
X259270Y344805D01*
X259373Y344973D01*
X259483Y345136D01*
X259537Y345242D01*
X259600Y345344D01*
X259680Y345524D01*
X259769Y345700D01*
X259809Y345812D01*
X259858Y345921D01*
X259915Y346110D01*
X259982Y346295D01*
X260007Y346412D01*
X260042Y346526D01*
X260075Y346720D01*
X260117Y346913D01*
X260128Y347031D01*
X260148Y347149D01*
X260161Y347403D01*
X260174Y347542D01*
X260171Y347600D01*
X260175Y347673D01*
X260175Y471198D01*
X261169Y473596D01*
X288404Y500831D01*
X290802Y501825D01*
X407698Y501825D01*
X410096Y500831D01*
X437331Y473596D01*
X438325Y471198D01*
X438325Y385773D01*
X438332Y385654D01*
X438330Y385535D01*
X438352Y385339D01*
X438365Y385143D01*
X438387Y385026D01*
X438400Y384907D01*
X438447Y384715D01*
X438484Y384522D01*
X438521Y384408D01*
X438549Y384292D01*
X438619Y384108D01*
X438681Y383921D01*
X438732Y383813D01*
X438774Y383702D01*
X438867Y383528D01*
X438951Y383350D01*
X439016Y383249D01*
X439072Y383144D01*
X439186Y382984D01*
X439292Y382818D01*
X439369Y382726D01*
X439438Y382629D01*
X439608Y382440D01*
X439697Y382332D01*
X439740Y382293D01*
X439789Y382238D01*
X446633Y375394D01*
X446821Y375229D01*
X447005Y375058D01*
X447058Y375020D01*
X447107Y374977D01*
X447315Y374836D01*
X447518Y374690D01*
X447576Y374659D01*
X447631Y374622D01*
X447854Y374509D01*
X448074Y374390D01*
X448136Y374366D01*
X448194Y374336D01*
X448430Y374252D01*
X448664Y374162D01*
X448728Y374146D01*
X448790Y374124D01*
X449034Y374070D01*
X449278Y374010D01*
X449343Y374002D01*
X449407Y373988D01*
X449657Y373966D01*
X449905Y373937D01*
X449971Y373938D01*
X450037Y373932D01*
X450288Y373941D01*
X450538Y373944D01*
X450602Y373953D01*
X450668Y373955D01*
X450916Y373996D01*
X451164Y374030D01*
X451227Y374047D01*
X451292Y374058D01*
X451532Y374130D01*
X451774Y374195D01*
X451835Y374220D01*
X451898Y374239D01*
X452127Y374340D01*
X452358Y374436D01*
X452416Y374468D01*
X452476Y374495D01*
X452690Y374624D01*
X452908Y374748D01*
X452961Y374787D01*
X453017Y374821D01*
X453213Y374977D01*
X453414Y375127D01*
X453461Y375173D01*
X453513Y375214D01*
X453688Y375392D01*
X453868Y375567D01*
X453909Y375618D01*
X453955Y375665D01*
X454105Y375865D01*
X454262Y376061D01*
X454297Y376117D01*
X454336Y376169D01*
X454461Y376386D01*
X454592Y376600D01*
X454619Y376660D01*
X454651Y376717D01*
X454747Y376948D01*
X454850Y377177D01*
X454869Y377240D01*
X454895Y377301D01*
X454961Y377542D01*
X455034Y377782D01*
X455045Y377847D01*
X455062Y377910D01*
X455098Y378158D01*
X455140Y378405D01*
X455144Y378479D01*
X455152Y378536D01*
X455154Y378675D01*
X455167Y378929D01*
X455167Y382617D01*
X456405Y385605D01*
X458691Y387891D01*
X461565Y389081D01*
X461790Y389192D01*
X462017Y389296D01*
X462073Y389331D01*
X462132Y389360D01*
X462342Y389498D01*
X462554Y389630D01*
X462605Y389671D01*
X462660Y389707D01*
X462850Y389871D01*
X463044Y390028D01*
X463090Y390076D01*
X463140Y390119D01*
X463308Y390305D01*
X463481Y390486D01*
X463520Y390539D01*
X463564Y390588D01*
X463707Y390793D01*
X463856Y390995D01*
X463888Y391052D01*
X463925Y391106D01*
X464041Y391328D01*
X464163Y391547D01*
X464188Y391608D01*
X464218Y391666D01*
X464305Y391900D01*
X464399Y392133D01*
X464416Y392197D01*
X464438Y392259D01*
X464495Y392502D01*
X464559Y392745D01*
X464567Y392810D01*
X464582Y392874D01*
X464608Y393124D01*
X464640Y393372D01*
X464640Y393438D01*
X464647Y393503D01*
X464641Y393753D01*
X464641Y394004D01*
X464633Y394069D01*
X464632Y394135D01*
X464594Y394382D01*
X464563Y394631D01*
X464547Y394695D01*
X464537Y394760D01*
X464469Y395001D01*
X464406Y395244D01*
X464382Y395305D01*
X464364Y395368D01*
X464266Y395599D01*
X464174Y395831D01*
X464142Y395889D01*
X464116Y395949D01*
X463990Y396165D01*
X463869Y396385D01*
X463830Y396438D01*
X463797Y396495D01*
X463644Y396692D01*
X463496Y396896D01*
X463451Y396943D01*
X463411Y396995D01*
X463235Y397172D01*
X463062Y397355D01*
X463011Y397397D01*
X462965Y397443D01*
X462768Y397597D01*
X462574Y397756D01*
X462518Y397791D01*
X462466Y397832D01*
X462251Y397959D01*
X462038Y398093D01*
X461972Y398124D01*
X461922Y398154D01*
X461794Y398209D01*
X461565Y398319D01*
X458691Y399509D01*
X456405Y401795D01*
X455167Y404783D01*
X455167Y408017D01*
X456405Y411005D01*
X458691Y413291D01*
X461565Y414481D01*
X461790Y414592D01*
X462017Y414696D01*
X462073Y414731D01*
X462132Y414760D01*
X462342Y414898D01*
X462554Y415030D01*
X462605Y415071D01*
X462660Y415107D01*
X462850Y415271D01*
X463044Y415428D01*
X463090Y415476D01*
X463140Y415519D01*
X463308Y415705D01*
X463481Y415886D01*
X463520Y415939D01*
X463564Y415988D01*
X463707Y416193D01*
X463856Y416395D01*
X463888Y416452D01*
X463925Y416506D01*
X464041Y416727D01*
X464163Y416947D01*
X464188Y417008D01*
X464218Y417066D01*
X464305Y417300D01*
X464399Y417533D01*
X464416Y417597D01*
X464438Y417659D01*
X464495Y417902D01*
X464559Y418145D01*
X464567Y418210D01*
X464582Y418274D01*
X464608Y418524D01*
X464640Y418772D01*
X464640Y418838D01*
X464647Y418903D01*
X464641Y419153D01*
X464641Y419404D01*
X464633Y419469D01*
X464632Y419535D01*
X464594Y419782D01*
X464563Y420031D01*
X464547Y420095D01*
X464537Y420160D01*
X464469Y420401D01*
X464406Y420644D01*
X464382Y420705D01*
X464364Y420768D01*
X464266Y420999D01*
X464174Y421231D01*
X464142Y421289D01*
X464116Y421349D01*
X463990Y421565D01*
X463869Y421785D01*
X463830Y421838D01*
X463797Y421895D01*
X463644Y422092D01*
X463496Y422296D01*
X463451Y422343D01*
X463411Y422395D01*
X463235Y422572D01*
X463062Y422755D01*
X463011Y422797D01*
X462965Y422843D01*
X462768Y422997D01*
X462574Y423156D01*
X462518Y423191D01*
X462466Y423232D01*
X462251Y423359D01*
X462038Y423493D01*
X461972Y423524D01*
X461922Y423554D01*
X461794Y423609D01*
X461565Y423719D01*
X458691Y424909D01*
X456405Y427195D01*
X455167Y430183D01*
X455167Y433417D01*
X456405Y436405D01*
X458691Y438691D01*
X461565Y439881D01*
X461790Y439992D01*
X462017Y440096D01*
X462073Y440131D01*
X462132Y440160D01*
X462342Y440298D01*
X462554Y440430D01*
X462605Y440471D01*
X462660Y440507D01*
X462850Y440671D01*
X463044Y440828D01*
X463090Y440876D01*
X463140Y440919D01*
X463308Y441105D01*
X463481Y441286D01*
X463520Y441339D01*
X463564Y441388D01*
X463707Y441593D01*
X463856Y441795D01*
X463888Y441852D01*
X463925Y441906D01*
X464041Y442128D01*
X464163Y442347D01*
X464188Y442408D01*
X464218Y442466D01*
X464305Y442700D01*
X464399Y442933D01*
X464416Y442997D01*
X464438Y443059D01*
X464495Y443302D01*
X464559Y443545D01*
X464567Y443610D01*
X464582Y443674D01*
X464608Y443924D01*
X464640Y444172D01*
X464640Y444238D01*
X464647Y444303D01*
X464641Y444553D01*
X464641Y444804D01*
X464633Y444869D01*
X464632Y444935D01*
X464594Y445182D01*
X464563Y445431D01*
X464547Y445495D01*
X464537Y445560D01*
X464469Y445801D01*
X464406Y446044D01*
X464382Y446105D01*
X464364Y446168D01*
X464266Y446399D01*
X464174Y446631D01*
X464142Y446689D01*
X464116Y446749D01*
X463990Y446965D01*
X463869Y447185D01*
X463830Y447238D01*
X463797Y447295D01*
X463644Y447492D01*
X463496Y447696D01*
X463451Y447743D01*
X463411Y447795D01*
X463235Y447972D01*
X463062Y448155D01*
X463011Y448197D01*
X462965Y448243D01*
X462768Y448397D01*
X462574Y448556D01*
X462518Y448591D01*
X462466Y448632D01*
X462251Y448759D01*
X462038Y448893D01*
X461972Y448924D01*
X461922Y448954D01*
X461794Y449009D01*
X461565Y449119D01*
X458691Y450309D01*
X456405Y452595D01*
X455167Y455583D01*
X455167Y458817D01*
X456405Y461805D01*
X458691Y464091D01*
X461679Y465329D01*
X478121Y465329D01*
X481109Y464091D01*
X483395Y461805D01*
X484633Y458817D01*
X484633Y455583D01*
X483395Y452595D01*
X481109Y450309D01*
X478235Y449119D01*
X478010Y449008D01*
X477783Y448904D01*
X477727Y448869D01*
X477668Y448840D01*
X477459Y448703D01*
X477246Y448570D01*
X477195Y448529D01*
X477140Y448493D01*
X476950Y448329D01*
X476755Y448171D01*
X476710Y448124D01*
X476660Y448081D01*
X476492Y447895D01*
X476319Y447714D01*
X476280Y447661D01*
X476236Y447612D01*
X476093Y447407D01*
X475944Y447205D01*
X475912Y447148D01*
X475875Y447094D01*
X475759Y446872D01*
X475637Y446653D01*
X475612Y446592D01*
X475582Y446534D01*
X475494Y446299D01*
X475401Y446066D01*
X475384Y446003D01*
X475362Y445941D01*
X475305Y445697D01*
X475241Y445455D01*
X475233Y445390D01*
X475218Y445326D01*
X475192Y445076D01*
X475160Y444828D01*
X475160Y444762D01*
X475153Y444697D01*
X475159Y444446D01*
X475159Y444196D01*
X475167Y444131D01*
X475168Y444065D01*
X475206Y443818D01*
X475237Y443569D01*
X475253Y443505D01*
X475263Y443440D01*
X475331Y443199D01*
X475394Y442956D01*
X475418Y442895D01*
X475436Y442832D01*
X475534Y442602D01*
X475626Y442369D01*
X475658Y442311D01*
X475684Y442251D01*
X475811Y442034D01*
X475931Y441815D01*
X475970Y441762D01*
X476003Y441705D01*
X476157Y441506D01*
X476304Y441304D01*
X476349Y441257D01*
X476389Y441205D01*
X476566Y441027D01*
X476738Y440845D01*
X476789Y440803D01*
X476835Y440757D01*
X477033Y440603D01*
X477226Y440444D01*
X477282Y440409D01*
X477334Y440368D01*
X477549Y440241D01*
X477762Y440107D01*
X477828Y440076D01*
X477878Y440046D01*
X478006Y439991D01*
X478235Y439881D01*
X481109Y438691D01*
X483395Y436405D01*
X484633Y433417D01*
X484633Y430183D01*
X483395Y427195D01*
X481109Y424909D01*
X478235Y423719D01*
X478010Y423608D01*
X477783Y423504D01*
X477727Y423469D01*
X477668Y423440D01*
X477459Y423303D01*
X477246Y423170D01*
X477195Y423129D01*
X477140Y423093D01*
X476950Y422929D01*
X476755Y422771D01*
X476710Y422724D01*
X476660Y422681D01*
X476492Y422495D01*
X476319Y422314D01*
X476280Y422261D01*
X476236Y422212D01*
X476093Y422007D01*
X475944Y421805D01*
X475912Y421748D01*
X475875Y421694D01*
X475759Y421472D01*
X475637Y421253D01*
X475612Y421192D01*
X475582Y421134D01*
X475494Y420899D01*
X475401Y420666D01*
X475384Y420603D01*
X475362Y420541D01*
X475305Y420297D01*
X475241Y420055D01*
X475233Y419990D01*
X475218Y419926D01*
X475192Y419676D01*
X475160Y419428D01*
X475160Y419362D01*
X475153Y419297D01*
X475159Y419046D01*
X475159Y418796D01*
X475167Y418731D01*
X475168Y418665D01*
X475206Y418418D01*
X475237Y418169D01*
X475253Y418105D01*
X475263Y418040D01*
X475331Y417799D01*
X475394Y417556D01*
X475418Y417495D01*
X475436Y417432D01*
X475534Y417202D01*
X475626Y416969D01*
X475658Y416911D01*
X475684Y416851D01*
X475811Y416634D01*
X475931Y416415D01*
X475970Y416362D01*
X476003Y416305D01*
X476157Y416106D01*
X476304Y415904D01*
X476349Y415857D01*
X476389Y415805D01*
X476566Y415627D01*
X476738Y415445D01*
X476789Y415403D01*
X476835Y415357D01*
X477033Y415203D01*
X477226Y415044D01*
X477282Y415009D01*
X477334Y414968D01*
X477549Y414841D01*
X477762Y414707D01*
X477828Y414676D01*
X477878Y414646D01*
X478006Y414591D01*
X478235Y414481D01*
X481109Y413291D01*
X483395Y411005D01*
X484633Y408017D01*
X484633Y404783D01*
X483395Y401795D01*
X481109Y399509D01*
X478235Y398319D01*
X478010Y398208D01*
X477783Y398104D01*
X477727Y398069D01*
X477668Y398040D01*
X477459Y397903D01*
X477246Y397770D01*
X477195Y397729D01*
X477140Y397693D01*
X476950Y397529D01*
X476755Y397371D01*
X476710Y397324D01*
X476660Y397281D01*
X476492Y397095D01*
X476319Y396914D01*
X476280Y396861D01*
X476236Y396812D01*
X476093Y396607D01*
X475944Y396405D01*
X475912Y396348D01*
X475875Y396294D01*
X475759Y396072D01*
X475637Y395853D01*
X475612Y395792D01*
X475582Y395734D01*
X475494Y395499D01*
X475401Y395266D01*
X475384Y395203D01*
X475362Y395141D01*
X475305Y394897D01*
X475241Y394655D01*
X475233Y394590D01*
X475218Y394526D01*
X475192Y394276D01*
X475160Y394028D01*
X475160Y393962D01*
X475153Y393897D01*
X475159Y393646D01*
X475159Y393396D01*
X475167Y393331D01*
X475168Y393265D01*
X475206Y393018D01*
X475237Y392769D01*
X475253Y392705D01*
X475263Y392640D01*
X475331Y392399D01*
X475394Y392156D01*
X475418Y392095D01*
X475436Y392032D01*
X475534Y391802D01*
X475626Y391569D01*
X475658Y391511D01*
X475684Y391451D01*
X475811Y391234D01*
X475931Y391015D01*
X475970Y390962D01*
X476003Y390905D01*
X476157Y390706D01*
X476304Y390504D01*
X476349Y390457D01*
X476389Y390405D01*
X476566Y390227D01*
X476738Y390045D01*
X476789Y390003D01*
X476835Y389957D01*
X477033Y389803D01*
X477226Y389644D01*
X477282Y389609D01*
X477334Y389568D01*
X477549Y389441D01*
X477762Y389307D01*
X477828Y389276D01*
X477878Y389246D01*
X478006Y389191D01*
X478235Y389081D01*
X481109Y387891D01*
X483395Y385605D01*
X484633Y382617D01*
X484633Y379383D01*
X483395Y376395D01*
X481109Y374109D01*
X478235Y372919D01*
X478010Y372808D01*
X477783Y372704D01*
X477727Y372669D01*
X477668Y372640D01*
X477459Y372503D01*
X477246Y372370D01*
X477195Y372329D01*
X477140Y372293D01*
X476950Y372129D01*
X476755Y371971D01*
X476710Y371924D01*
X476660Y371881D01*
X476492Y371695D01*
X476319Y371514D01*
X476280Y371461D01*
X476236Y371412D01*
X476093Y371207D01*
X475944Y371005D01*
X475912Y370948D01*
X475875Y370894D01*
X475759Y370672D01*
X475637Y370453D01*
X475612Y370392D01*
X475582Y370334D01*
X475494Y370099D01*
X475401Y369866D01*
X475384Y369803D01*
X475362Y369741D01*
X475305Y369497D01*
X475241Y369255D01*
X475233Y369190D01*
X475218Y369126D01*
X475192Y368876D01*
X475160Y368628D01*
X475160Y368562D01*
X475153Y368497D01*
X475159Y368246D01*
X475159Y367996D01*
X475167Y367931D01*
X475168Y367865D01*
X475206Y367618D01*
X475237Y367369D01*
X475253Y367305D01*
X475263Y367240D01*
X475331Y366999D01*
X475394Y366756D01*
X475418Y366695D01*
X475436Y366632D01*
X475534Y366402D01*
X475626Y366169D01*
X475658Y366111D01*
X475684Y366051D01*
X475811Y365834D01*
X475931Y365615D01*
X475970Y365562D01*
X476003Y365505D01*
X476157Y365306D01*
X476304Y365104D01*
X476349Y365057D01*
X476389Y365005D01*
X476566Y364827D01*
X476738Y364645D01*
X476789Y364603D01*
X476835Y364557D01*
X477033Y364403D01*
X477226Y364244D01*
X477282Y364209D01*
X477334Y364168D01*
X477549Y364041D01*
X477762Y363907D01*
X477828Y363876D01*
X477878Y363846D01*
X478006Y363791D01*
X478235Y363681D01*
X481109Y362491D01*
X483395Y360205D01*
X484633Y357217D01*
X484633Y353983D01*
X483395Y350995D01*
X481109Y348709D01*
X478235Y347519D01*
X478010Y347408D01*
X477783Y347304D01*
X477727Y347269D01*
X477668Y347240D01*
X477459Y347103D01*
X477246Y346970D01*
X477195Y346929D01*
X477140Y346893D01*
X476950Y346729D01*
X476755Y346571D01*
X476710Y346524D01*
X476660Y346481D01*
X476492Y346295D01*
X476319Y346114D01*
X476280Y346061D01*
X476236Y346012D01*
X476093Y345807D01*
X475944Y345605D01*
X475912Y345548D01*
X475875Y345494D01*
X475759Y345272D01*
X475637Y345053D01*
X475612Y344992D01*
X475582Y344934D01*
X475494Y344699D01*
X475401Y344466D01*
X475384Y344403D01*
X475362Y344341D01*
X475305Y344097D01*
X475241Y343855D01*
X475233Y343790D01*
X475218Y343726D01*
X475192Y343476D01*
X475160Y343228D01*
X475160Y343162D01*
X475153Y343097D01*
X475159Y342846D01*
X475159Y342596D01*
X475167Y342531D01*
X475168Y342465D01*
X475206Y342218D01*
X475237Y341969D01*
X475253Y341905D01*
X475263Y341840D01*
X475331Y341599D01*
X475394Y341356D01*
X475418Y341295D01*
X475436Y341232D01*
X475534Y341002D01*
X475626Y340769D01*
X475658Y340711D01*
X475684Y340651D01*
X475811Y340434D01*
X475931Y340215D01*
X475970Y340162D01*
X476003Y340105D01*
X476157Y339906D01*
X476304Y339704D01*
X476349Y339657D01*
X476389Y339605D01*
X476566Y339427D01*
X476738Y339245D01*
X476789Y339203D01*
X476835Y339157D01*
X477033Y339003D01*
X477226Y338844D01*
X477282Y338809D01*
X477334Y338768D01*
X477549Y338641D01*
X477762Y338507D01*
X477828Y338476D01*
X477878Y338446D01*
X478006Y338391D01*
X478235Y338281D01*
X481109Y337091D01*
X483395Y334805D01*
X484633Y331817D01*
X484633Y328583D01*
X483395Y325595D01*
X481109Y323309D01*
X479572Y322672D01*
X479454Y322615D01*
X479333Y322566D01*
X479171Y322476D01*
X479004Y322394D01*
X478895Y322322D01*
X478781Y322258D01*
X478631Y322148D01*
X478476Y322046D01*
X478377Y321961D01*
X478272Y321883D01*
X478137Y321755D01*
X477997Y321635D01*
X477909Y321538D01*
X477814Y321447D01*
X477697Y321303D01*
X477573Y321166D01*
X477498Y321058D01*
X477415Y320957D01*
X477317Y320800D01*
X477211Y320647D01*
X477150Y320531D01*
X477081Y320420D01*
X477004Y320251D01*
X476918Y320087D01*
X476872Y319965D01*
X476818Y319846D01*
X476762Y319669D01*
X476698Y319495D01*
X476668Y319367D01*
X476629Y319242D01*
X476596Y319060D01*
X476554Y318879D01*
X476541Y318749D01*
X476518Y318620D01*
X476508Y318435D01*
X476489Y318250D01*
X476493Y318120D01*
X476486Y317989D01*
X476500Y317804D01*
X476504Y317619D01*
X476524Y317489D01*
X476534Y317359D01*
X476571Y317177D01*
X476599Y316994D01*
X476635Y316868D01*
X476661Y316739D01*
X476721Y316564D01*
X476772Y316386D01*
X476823Y316265D01*
X476866Y316141D01*
X476947Y315975D01*
X477020Y315804D01*
X477086Y315691D01*
X477144Y315574D01*
X477246Y315419D01*
X477340Y315259D01*
X477420Y315155D01*
X477491Y315046D01*
X477612Y314905D01*
X477725Y314758D01*
X477818Y314665D01*
X477903Y314566D01*
X478040Y314442D01*
X478171Y314310D01*
X478275Y314230D01*
X478372Y314142D01*
X478524Y314036D01*
X478670Y313922D01*
X478783Y313855D01*
X478890Y313780D01*
X479054Y313694D01*
X479214Y313600D01*
X479334Y313548D01*
X479450Y313487D01*
X479668Y313403D01*
X479794Y313349D01*
X479859Y313330D01*
X479940Y313299D01*
X480015Y313275D01*
X481297Y312621D01*
X482461Y311775D01*
X483479Y310757D01*
X484175Y309799D01*
X469900Y309799D01*
X452213Y309799D01*
X452112Y309871D01*
X451912Y310023D01*
X451855Y310056D01*
X451802Y310094D01*
X451582Y310213D01*
X451364Y310338D01*
X451303Y310363D01*
X451246Y310394D01*
X451012Y310484D01*
X450781Y310581D01*
X450717Y310599D01*
X450656Y310622D01*
X450414Y310682D01*
X450171Y310749D01*
X450106Y310758D01*
X450043Y310774D01*
X449795Y310803D01*
X449546Y310838D01*
X449480Y310839D01*
X449415Y310847D01*
X449164Y310844D01*
X448914Y310848D01*
X448848Y310841D01*
X448783Y310840D01*
X448534Y310806D01*
X448285Y310778D01*
X448221Y310763D01*
X448156Y310754D01*
X447915Y310688D01*
X447671Y310629D01*
X447610Y310606D01*
X447546Y310589D01*
X447314Y310494D01*
X447080Y310404D01*
X447023Y310374D01*
X446962Y310349D01*
X446744Y310225D01*
X446523Y310107D01*
X446469Y310069D01*
X446412Y310036D01*
X446212Y309886D01*
X446007Y309741D01*
X445953Y309692D01*
X445906Y309657D01*
X445806Y309560D01*
X445617Y309390D01*
X439789Y303562D01*
X439710Y303472D01*
X439624Y303389D01*
X439501Y303235D01*
X439371Y303087D01*
X439304Y302989D01*
X439230Y302895D01*
X439127Y302727D01*
X439017Y302564D01*
X438963Y302458D01*
X438900Y302356D01*
X438820Y302176D01*
X438731Y302000D01*
X438691Y301888D01*
X438642Y301779D01*
X438585Y301590D01*
X438518Y301405D01*
X438493Y301288D01*
X438458Y301174D01*
X438425Y300980D01*
X438383Y300787D01*
X438372Y300669D01*
X438352Y300551D01*
X438339Y300297D01*
X438326Y300158D01*
X438329Y300100D01*
X438325Y300027D01*
X438325Y87602D01*
X437331Y85204D01*
X434793Y82666D01*
X434793Y82665D01*
X427795Y75667D01*
X427794Y75667D01*
X425256Y73129D01*
X422858Y72135D01*
X237542Y72135D01*
G37*
%LPD*%
%LPC*%
G36*
X393700Y284399D02*
X393700Y284399D01*
X379425Y284399D01*
X380121Y285357D01*
X381139Y286375D01*
X382303Y287221D01*
X383586Y287875D01*
X383660Y287899D01*
X383781Y287947D01*
X383906Y287986D01*
X384075Y288064D01*
X384248Y288132D01*
X384362Y288195D01*
X384481Y288249D01*
X384639Y288347D01*
X384801Y288437D01*
X384907Y288514D01*
X385018Y288583D01*
X385162Y288700D01*
X385312Y288810D01*
X385407Y288899D01*
X385508Y288982D01*
X385636Y289116D01*
X385771Y289244D01*
X385854Y289345D01*
X385944Y289439D01*
X386055Y289589D01*
X386172Y289732D01*
X386242Y289843D01*
X386319Y289948D01*
X386410Y290111D01*
X386508Y290268D01*
X386563Y290386D01*
X386627Y290500D01*
X386696Y290673D01*
X386774Y290841D01*
X386814Y290966D01*
X386863Y291087D01*
X386910Y291266D01*
X386966Y291443D01*
X386989Y291572D01*
X387022Y291699D01*
X387046Y291882D01*
X387080Y292065D01*
X387087Y292196D01*
X387104Y292325D01*
X387104Y292511D01*
X387114Y292696D01*
X387105Y292827D01*
X387105Y292958D01*
X387082Y293142D01*
X387069Y293327D01*
X387043Y293455D01*
X387027Y293585D01*
X386981Y293764D01*
X386944Y293946D01*
X386903Y294071D01*
X386870Y294197D01*
X386802Y294369D01*
X386743Y294545D01*
X386686Y294663D01*
X386637Y294785D01*
X386548Y294947D01*
X386467Y295114D01*
X386395Y295224D01*
X386332Y295338D01*
X386223Y295488D01*
X386122Y295644D01*
X386037Y295743D01*
X385960Y295849D01*
X385832Y295984D01*
X385712Y296125D01*
X385616Y296213D01*
X385526Y296309D01*
X385382Y296426D01*
X385245Y296551D01*
X385139Y296627D01*
X385037Y296710D01*
X384880Y296809D01*
X384729Y296915D01*
X384613Y296976D01*
X384502Y297046D01*
X384291Y297147D01*
X384170Y297211D01*
X384107Y297235D01*
X384028Y297272D01*
X382491Y297909D01*
X380205Y300195D01*
X378967Y303183D01*
X378967Y306417D01*
X380205Y309405D01*
X382491Y311691D01*
X385365Y312881D01*
X385589Y312992D01*
X385817Y313096D01*
X385873Y313131D01*
X385932Y313160D01*
X386141Y313298D01*
X386354Y313430D01*
X386405Y313471D01*
X386460Y313507D01*
X386650Y313671D01*
X386844Y313829D01*
X386890Y313876D01*
X386940Y313919D01*
X387108Y314105D01*
X387281Y314286D01*
X387320Y314339D01*
X387364Y314388D01*
X387507Y314593D01*
X387656Y314795D01*
X387688Y314852D01*
X387725Y314906D01*
X387841Y315128D01*
X387963Y315347D01*
X387988Y315408D01*
X388018Y315466D01*
X388106Y315701D01*
X388199Y315934D01*
X388216Y315997D01*
X388238Y316059D01*
X388295Y316303D01*
X388359Y316545D01*
X388367Y316610D01*
X388382Y316674D01*
X388408Y316924D01*
X388440Y317172D01*
X388440Y317238D01*
X388447Y317303D01*
X388441Y317554D01*
X388441Y317804D01*
X388433Y317869D01*
X388432Y317935D01*
X388394Y318182D01*
X388363Y318431D01*
X388347Y318495D01*
X388337Y318560D01*
X388269Y318801D01*
X388206Y319044D01*
X388182Y319105D01*
X388164Y319168D01*
X388066Y319398D01*
X387974Y319631D01*
X387942Y319689D01*
X387916Y319749D01*
X387789Y319965D01*
X387669Y320185D01*
X387630Y320238D01*
X387597Y320295D01*
X387444Y320493D01*
X387296Y320696D01*
X387251Y320743D01*
X387211Y320795D01*
X387035Y320972D01*
X386862Y321155D01*
X386811Y321197D01*
X386765Y321243D01*
X386567Y321397D01*
X386374Y321556D01*
X386318Y321591D01*
X386266Y321632D01*
X386050Y321759D01*
X385838Y321893D01*
X385772Y321924D01*
X385722Y321954D01*
X385594Y322009D01*
X385365Y322119D01*
X382491Y323309D01*
X380205Y325595D01*
X378967Y328583D01*
X378967Y331817D01*
X380205Y334805D01*
X382491Y337091D01*
X385365Y338281D01*
X385589Y338392D01*
X385817Y338496D01*
X385873Y338531D01*
X385932Y338560D01*
X386141Y338698D01*
X386354Y338830D01*
X386405Y338871D01*
X386460Y338907D01*
X386650Y339071D01*
X386844Y339229D01*
X386890Y339276D01*
X386940Y339319D01*
X387108Y339505D01*
X387281Y339686D01*
X387320Y339739D01*
X387364Y339788D01*
X387507Y339993D01*
X387656Y340195D01*
X387688Y340252D01*
X387725Y340306D01*
X387841Y340528D01*
X387963Y340747D01*
X387988Y340808D01*
X388018Y340866D01*
X388106Y341101D01*
X388199Y341334D01*
X388216Y341397D01*
X388238Y341459D01*
X388295Y341703D01*
X388359Y341945D01*
X388367Y342010D01*
X388382Y342074D01*
X388408Y342324D01*
X388440Y342572D01*
X388440Y342638D01*
X388447Y342703D01*
X388441Y342954D01*
X388441Y343204D01*
X388433Y343269D01*
X388432Y343335D01*
X388394Y343582D01*
X388363Y343831D01*
X388347Y343895D01*
X388337Y343960D01*
X388269Y344201D01*
X388206Y344444D01*
X388182Y344505D01*
X388164Y344568D01*
X388066Y344798D01*
X387974Y345031D01*
X387942Y345089D01*
X387916Y345149D01*
X387789Y345365D01*
X387669Y345585D01*
X387630Y345638D01*
X387597Y345695D01*
X387444Y345893D01*
X387296Y346096D01*
X387251Y346143D01*
X387211Y346195D01*
X387035Y346372D01*
X386862Y346555D01*
X386811Y346597D01*
X386765Y346643D01*
X386567Y346797D01*
X386374Y346956D01*
X386318Y346991D01*
X386266Y347032D01*
X386050Y347159D01*
X385838Y347293D01*
X385772Y347324D01*
X385722Y347354D01*
X385594Y347409D01*
X385365Y347519D01*
X382491Y348709D01*
X380205Y350995D01*
X378967Y353983D01*
X378967Y357217D01*
X380205Y360205D01*
X382491Y362491D01*
X385365Y363681D01*
X385589Y363792D01*
X385817Y363896D01*
X385873Y363931D01*
X385932Y363960D01*
X386141Y364098D01*
X386354Y364230D01*
X386405Y364271D01*
X386460Y364307D01*
X386650Y364471D01*
X386844Y364629D01*
X386890Y364676D01*
X386940Y364719D01*
X387108Y364905D01*
X387281Y365086D01*
X387320Y365139D01*
X387364Y365188D01*
X387507Y365393D01*
X387656Y365595D01*
X387688Y365652D01*
X387725Y365706D01*
X387841Y365928D01*
X387963Y366147D01*
X387988Y366208D01*
X388018Y366266D01*
X388106Y366501D01*
X388199Y366734D01*
X388216Y366797D01*
X388238Y366859D01*
X388295Y367103D01*
X388359Y367345D01*
X388367Y367410D01*
X388382Y367474D01*
X388408Y367724D01*
X388440Y367972D01*
X388440Y368038D01*
X388447Y368103D01*
X388441Y368354D01*
X388441Y368604D01*
X388433Y368669D01*
X388432Y368735D01*
X388394Y368982D01*
X388363Y369231D01*
X388347Y369295D01*
X388337Y369360D01*
X388269Y369601D01*
X388206Y369844D01*
X388182Y369905D01*
X388164Y369968D01*
X388066Y370198D01*
X387974Y370431D01*
X387942Y370489D01*
X387916Y370549D01*
X387789Y370765D01*
X387669Y370985D01*
X387630Y371038D01*
X387597Y371095D01*
X387444Y371293D01*
X387296Y371496D01*
X387251Y371543D01*
X387211Y371595D01*
X387035Y371772D01*
X386862Y371955D01*
X386811Y371997D01*
X386765Y372043D01*
X386567Y372197D01*
X386374Y372356D01*
X386318Y372391D01*
X386266Y372432D01*
X386050Y372559D01*
X385838Y372693D01*
X385772Y372724D01*
X385722Y372754D01*
X385594Y372809D01*
X385365Y372919D01*
X382491Y374109D01*
X380205Y376395D01*
X378967Y379383D01*
X378967Y382617D01*
X380205Y385605D01*
X382491Y387891D01*
X385365Y389081D01*
X385590Y389192D01*
X385817Y389296D01*
X385873Y389331D01*
X385932Y389360D01*
X386141Y389497D01*
X386354Y389630D01*
X386405Y389671D01*
X386460Y389707D01*
X386650Y389871D01*
X386845Y390029D01*
X386890Y390076D01*
X386940Y390119D01*
X387108Y390305D01*
X387281Y390486D01*
X387320Y390539D01*
X387364Y390588D01*
X387507Y390793D01*
X387656Y390995D01*
X387688Y391052D01*
X387725Y391106D01*
X387841Y391328D01*
X387963Y391547D01*
X387988Y391608D01*
X388018Y391666D01*
X388106Y391901D01*
X388199Y392134D01*
X388216Y392197D01*
X388238Y392259D01*
X388295Y392503D01*
X388359Y392745D01*
X388367Y392810D01*
X388382Y392874D01*
X388408Y393124D01*
X388440Y393372D01*
X388440Y393438D01*
X388447Y393503D01*
X388441Y393754D01*
X388441Y394004D01*
X388433Y394069D01*
X388432Y394135D01*
X388394Y394382D01*
X388363Y394631D01*
X388347Y394695D01*
X388337Y394760D01*
X388269Y395001D01*
X388206Y395244D01*
X388182Y395305D01*
X388164Y395368D01*
X388066Y395597D01*
X387974Y395831D01*
X387942Y395889D01*
X387916Y395949D01*
X387790Y396165D01*
X387669Y396385D01*
X387630Y396438D01*
X387597Y396495D01*
X387443Y396694D01*
X387296Y396896D01*
X387251Y396943D01*
X387211Y396995D01*
X387034Y397173D01*
X386862Y397355D01*
X386811Y397397D01*
X386765Y397443D01*
X386567Y397597D01*
X386374Y397756D01*
X386318Y397791D01*
X386266Y397832D01*
X386051Y397959D01*
X385838Y398093D01*
X385772Y398124D01*
X385722Y398154D01*
X385594Y398209D01*
X385365Y398319D01*
X382491Y399509D01*
X380205Y401795D01*
X378967Y404783D01*
X378967Y408017D01*
X380205Y411005D01*
X382491Y413291D01*
X385365Y414481D01*
X385590Y414592D01*
X385817Y414696D01*
X385873Y414731D01*
X385932Y414760D01*
X386141Y414897D01*
X386354Y415030D01*
X386405Y415071D01*
X386460Y415107D01*
X386650Y415271D01*
X386845Y415429D01*
X386890Y415476D01*
X386940Y415519D01*
X387108Y415705D01*
X387281Y415886D01*
X387320Y415939D01*
X387364Y415988D01*
X387507Y416193D01*
X387656Y416395D01*
X387688Y416452D01*
X387725Y416506D01*
X387841Y416728D01*
X387963Y416947D01*
X387988Y417008D01*
X388018Y417066D01*
X388106Y417301D01*
X388199Y417534D01*
X388216Y417597D01*
X388238Y417659D01*
X388295Y417903D01*
X388359Y418145D01*
X388367Y418210D01*
X388382Y418274D01*
X388408Y418524D01*
X388440Y418772D01*
X388440Y418838D01*
X388447Y418903D01*
X388441Y419154D01*
X388441Y419404D01*
X388433Y419469D01*
X388432Y419535D01*
X388394Y419782D01*
X388363Y420031D01*
X388347Y420095D01*
X388337Y420160D01*
X388269Y420401D01*
X388206Y420644D01*
X388182Y420705D01*
X388164Y420768D01*
X388066Y420998D01*
X387974Y421231D01*
X387942Y421289D01*
X387916Y421349D01*
X387789Y421566D01*
X387669Y421785D01*
X387630Y421838D01*
X387597Y421895D01*
X387443Y422094D01*
X387296Y422296D01*
X387251Y422343D01*
X387211Y422395D01*
X387034Y422573D01*
X386862Y422755D01*
X386811Y422797D01*
X386765Y422843D01*
X386567Y422997D01*
X386374Y423156D01*
X386318Y423191D01*
X386266Y423232D01*
X386051Y423359D01*
X385838Y423493D01*
X385772Y423524D01*
X385722Y423554D01*
X385594Y423609D01*
X385365Y423719D01*
X382491Y424909D01*
X381089Y426311D01*
X381000Y426390D01*
X380917Y426476D01*
X380763Y426599D01*
X380615Y426729D01*
X380516Y426796D01*
X380423Y426870D01*
X380255Y426973D01*
X380092Y427083D01*
X379985Y427137D01*
X379883Y427200D01*
X379704Y427280D01*
X379528Y427369D01*
X379415Y427409D01*
X379306Y427458D01*
X379118Y427515D01*
X378932Y427582D01*
X378816Y427607D01*
X378702Y427642D01*
X378507Y427675D01*
X378315Y427717D01*
X378196Y427728D01*
X378079Y427748D01*
X377825Y427761D01*
X377686Y427774D01*
X377628Y427771D01*
X377554Y427775D01*
X359338Y427775D01*
X359219Y427768D01*
X359099Y427770D01*
X358903Y427748D01*
X358707Y427735D01*
X358590Y427713D01*
X358471Y427700D01*
X358280Y427653D01*
X358086Y427616D01*
X357973Y427579D01*
X357857Y427551D01*
X357673Y427481D01*
X357486Y427419D01*
X357378Y427368D01*
X357266Y427326D01*
X357093Y427233D01*
X356914Y427149D01*
X356814Y427084D01*
X356709Y427028D01*
X356548Y426914D01*
X356382Y426808D01*
X356290Y426731D01*
X356193Y426662D01*
X356004Y426492D01*
X355897Y426403D01*
X355858Y426360D01*
X355803Y426311D01*
X311284Y381792D01*
X311227Y381727D01*
X311164Y381668D01*
X311018Y381490D01*
X310866Y381318D01*
X310818Y381246D01*
X310763Y381179D01*
X310641Y380985D01*
X310512Y380795D01*
X310472Y380717D01*
X310426Y380644D01*
X310297Y380373D01*
X310260Y380305D01*
X310250Y380279D01*
X310226Y380231D01*
X310216Y380203D01*
X310200Y380170D01*
X309299Y377994D01*
X307806Y376501D01*
X305856Y375693D01*
X303744Y375693D01*
X301794Y376501D01*
X300301Y377994D01*
X299493Y379944D01*
X299493Y382056D01*
X300301Y384006D01*
X301794Y385499D01*
X303970Y386400D01*
X304048Y386438D01*
X304129Y386469D01*
X304331Y386577D01*
X304538Y386679D01*
X304610Y386726D01*
X304686Y386767D01*
X304873Y386900D01*
X305066Y387026D01*
X305132Y387083D01*
X305202Y387133D01*
X305449Y387355D01*
X305545Y387438D01*
X305565Y387460D01*
X305592Y387484D01*
X353320Y435212D01*
X354799Y435825D01*
X377554Y435825D01*
X377673Y435832D01*
X377793Y435830D01*
X377989Y435852D01*
X378185Y435865D01*
X378302Y435887D01*
X378421Y435900D01*
X378612Y435947D01*
X378806Y435984D01*
X378919Y436021D01*
X379035Y436049D01*
X379219Y436119D01*
X379407Y436181D01*
X379515Y436232D01*
X379626Y436274D01*
X379799Y436367D01*
X379978Y436451D01*
X380078Y436516D01*
X380183Y436572D01*
X380344Y436686D01*
X380510Y436792D01*
X380602Y436869D01*
X380699Y436938D01*
X380888Y437108D01*
X380995Y437197D01*
X381035Y437240D01*
X381089Y437289D01*
X382491Y438691D01*
X385365Y439881D01*
X385590Y439992D01*
X385817Y440096D01*
X385873Y440131D01*
X385932Y440160D01*
X386141Y440297D01*
X386354Y440430D01*
X386405Y440471D01*
X386460Y440507D01*
X386650Y440671D01*
X386845Y440829D01*
X386890Y440876D01*
X386940Y440919D01*
X387108Y441105D01*
X387281Y441286D01*
X387320Y441339D01*
X387364Y441388D01*
X387507Y441593D01*
X387656Y441795D01*
X387688Y441852D01*
X387725Y441906D01*
X387841Y442128D01*
X387963Y442347D01*
X387988Y442408D01*
X388018Y442466D01*
X388106Y442701D01*
X388199Y442934D01*
X388216Y442997D01*
X388238Y443059D01*
X388295Y443303D01*
X388359Y443545D01*
X388367Y443610D01*
X388382Y443674D01*
X388408Y443924D01*
X388440Y444172D01*
X388440Y444238D01*
X388447Y444303D01*
X388441Y444554D01*
X388441Y444804D01*
X388433Y444869D01*
X388432Y444935D01*
X388394Y445182D01*
X388363Y445431D01*
X388347Y445495D01*
X388337Y445560D01*
X388269Y445801D01*
X388206Y446044D01*
X388182Y446105D01*
X388164Y446168D01*
X388066Y446398D01*
X387974Y446631D01*
X387942Y446689D01*
X387916Y446749D01*
X387789Y446966D01*
X387669Y447185D01*
X387630Y447238D01*
X387597Y447295D01*
X387443Y447494D01*
X387296Y447696D01*
X387251Y447743D01*
X387211Y447795D01*
X387034Y447973D01*
X386862Y448155D01*
X386811Y448197D01*
X386765Y448243D01*
X386567Y448397D01*
X386374Y448556D01*
X386318Y448591D01*
X386266Y448632D01*
X386051Y448759D01*
X385838Y448893D01*
X385772Y448924D01*
X385722Y448954D01*
X385594Y449009D01*
X385365Y449119D01*
X382491Y450309D01*
X380205Y452595D01*
X378967Y455583D01*
X378967Y458817D01*
X380205Y461805D01*
X382491Y464091D01*
X385479Y465329D01*
X401921Y465329D01*
X404909Y464091D01*
X407195Y461805D01*
X408433Y458817D01*
X408433Y455583D01*
X407195Y452595D01*
X404909Y450309D01*
X402035Y449119D01*
X401810Y449008D01*
X401583Y448904D01*
X401527Y448869D01*
X401468Y448840D01*
X401258Y448702D01*
X401046Y448570D01*
X400995Y448529D01*
X400940Y448493D01*
X400750Y448329D01*
X400556Y448172D01*
X400510Y448124D01*
X400460Y448081D01*
X400292Y447895D01*
X400119Y447714D01*
X400080Y447661D01*
X400036Y447612D01*
X399893Y447407D01*
X399744Y447205D01*
X399712Y447148D01*
X399675Y447094D01*
X399559Y446872D01*
X399437Y446653D01*
X399412Y446592D01*
X399382Y446534D01*
X399295Y446300D01*
X399201Y446067D01*
X399184Y446003D01*
X399162Y445941D01*
X399105Y445698D01*
X399041Y445455D01*
X399033Y445390D01*
X399018Y445326D01*
X398992Y445076D01*
X398960Y444828D01*
X398960Y444762D01*
X398953Y444697D01*
X398959Y444447D01*
X398959Y444196D01*
X398967Y444131D01*
X398968Y444065D01*
X399006Y443818D01*
X399037Y443569D01*
X399053Y443505D01*
X399063Y443440D01*
X399131Y443199D01*
X399194Y442956D01*
X399218Y442895D01*
X399236Y442832D01*
X399334Y442601D01*
X399426Y442369D01*
X399458Y442311D01*
X399484Y442251D01*
X399610Y442035D01*
X399731Y441815D01*
X399770Y441762D01*
X399803Y441705D01*
X399956Y441507D01*
X400104Y441304D01*
X400149Y441257D01*
X400189Y441205D01*
X400365Y441027D01*
X400538Y440845D01*
X400589Y440803D01*
X400635Y440757D01*
X400832Y440603D01*
X401026Y440444D01*
X401082Y440409D01*
X401134Y440368D01*
X401349Y440241D01*
X401562Y440107D01*
X401628Y440076D01*
X401678Y440046D01*
X401806Y439991D01*
X402035Y439881D01*
X404909Y438691D01*
X407195Y436405D01*
X408433Y433417D01*
X408433Y430183D01*
X407195Y427195D01*
X404909Y424909D01*
X402035Y423719D01*
X401810Y423608D01*
X401583Y423504D01*
X401527Y423469D01*
X401468Y423440D01*
X401258Y423302D01*
X401046Y423170D01*
X400995Y423129D01*
X400940Y423093D01*
X400750Y422929D01*
X400556Y422772D01*
X400510Y422724D01*
X400460Y422681D01*
X400292Y422495D01*
X400119Y422314D01*
X400080Y422261D01*
X400036Y422212D01*
X399893Y422007D01*
X399744Y421805D01*
X399712Y421748D01*
X399675Y421694D01*
X399559Y421472D01*
X399437Y421253D01*
X399412Y421192D01*
X399382Y421134D01*
X399295Y420900D01*
X399201Y420667D01*
X399184Y420603D01*
X399162Y420541D01*
X399105Y420298D01*
X399041Y420055D01*
X399033Y419990D01*
X399018Y419926D01*
X398992Y419676D01*
X398960Y419428D01*
X398960Y419362D01*
X398953Y419297D01*
X398959Y419047D01*
X398959Y418796D01*
X398967Y418731D01*
X398968Y418665D01*
X399006Y418418D01*
X399037Y418169D01*
X399053Y418105D01*
X399063Y418040D01*
X399131Y417799D01*
X399194Y417556D01*
X399218Y417495D01*
X399236Y417432D01*
X399334Y417201D01*
X399426Y416969D01*
X399458Y416911D01*
X399484Y416851D01*
X399610Y416635D01*
X399731Y416415D01*
X399770Y416362D01*
X399803Y416305D01*
X399956Y416107D01*
X400104Y415904D01*
X400149Y415856D01*
X400189Y415805D01*
X400365Y415627D01*
X400538Y415445D01*
X400589Y415403D01*
X400635Y415357D01*
X400832Y415203D01*
X401026Y415044D01*
X401082Y415009D01*
X401134Y414968D01*
X401349Y414841D01*
X401562Y414707D01*
X401628Y414676D01*
X401678Y414646D01*
X401806Y414591D01*
X402035Y414481D01*
X404909Y413291D01*
X407195Y411005D01*
X408433Y408017D01*
X408433Y404783D01*
X407195Y401795D01*
X404909Y399509D01*
X402035Y398319D01*
X401810Y398208D01*
X401583Y398104D01*
X401527Y398069D01*
X401468Y398040D01*
X401258Y397902D01*
X401046Y397770D01*
X400995Y397729D01*
X400940Y397693D01*
X400750Y397529D01*
X400556Y397372D01*
X400510Y397324D01*
X400460Y397281D01*
X400292Y397095D01*
X400119Y396914D01*
X400080Y396861D01*
X400036Y396812D01*
X399893Y396607D01*
X399744Y396405D01*
X399712Y396348D01*
X399675Y396294D01*
X399559Y396072D01*
X399437Y395853D01*
X399412Y395792D01*
X399382Y395734D01*
X399295Y395500D01*
X399201Y395267D01*
X399184Y395203D01*
X399162Y395141D01*
X399105Y394898D01*
X399041Y394655D01*
X399033Y394590D01*
X399018Y394526D01*
X398992Y394276D01*
X398960Y394028D01*
X398960Y393962D01*
X398953Y393897D01*
X398959Y393647D01*
X398959Y393396D01*
X398967Y393331D01*
X398968Y393265D01*
X399006Y393018D01*
X399037Y392769D01*
X399053Y392705D01*
X399063Y392640D01*
X399131Y392399D01*
X399194Y392156D01*
X399218Y392095D01*
X399236Y392032D01*
X399334Y391801D01*
X399426Y391569D01*
X399458Y391511D01*
X399484Y391451D01*
X399610Y391235D01*
X399731Y391015D01*
X399770Y390962D01*
X399803Y390905D01*
X399956Y390707D01*
X400104Y390504D01*
X400149Y390457D01*
X400189Y390405D01*
X400365Y390227D01*
X400538Y390045D01*
X400589Y390003D01*
X400635Y389957D01*
X400832Y389803D01*
X401026Y389644D01*
X401082Y389609D01*
X401134Y389568D01*
X401349Y389441D01*
X401562Y389307D01*
X401628Y389276D01*
X401678Y389246D01*
X401806Y389191D01*
X402035Y389081D01*
X404909Y387891D01*
X407195Y385605D01*
X408433Y382617D01*
X408433Y379383D01*
X407195Y376395D01*
X404909Y374109D01*
X402035Y372919D01*
X401810Y372808D01*
X401583Y372704D01*
X401527Y372669D01*
X401468Y372640D01*
X401258Y372502D01*
X401046Y372370D01*
X400995Y372329D01*
X400940Y372293D01*
X400750Y372129D01*
X400556Y371972D01*
X400510Y371924D01*
X400460Y371881D01*
X400292Y371695D01*
X400119Y371514D01*
X400080Y371461D01*
X400036Y371412D01*
X399893Y371207D01*
X399744Y371005D01*
X399712Y370948D01*
X399675Y370894D01*
X399559Y370672D01*
X399437Y370453D01*
X399412Y370392D01*
X399382Y370334D01*
X399295Y370099D01*
X399201Y369867D01*
X399184Y369803D01*
X399162Y369741D01*
X399105Y369497D01*
X399041Y369255D01*
X399033Y369190D01*
X399018Y369126D01*
X398992Y368876D01*
X398960Y368628D01*
X398960Y368562D01*
X398953Y368497D01*
X398959Y368247D01*
X398959Y367996D01*
X398967Y367931D01*
X398968Y367865D01*
X399006Y367618D01*
X399037Y367369D01*
X399053Y367305D01*
X399063Y367240D01*
X399131Y366999D01*
X399194Y366756D01*
X399218Y366695D01*
X399236Y366632D01*
X399334Y366401D01*
X399426Y366169D01*
X399458Y366111D01*
X399484Y366051D01*
X399611Y365835D01*
X399731Y365615D01*
X399770Y365562D01*
X399803Y365505D01*
X399956Y365307D01*
X400104Y365104D01*
X400149Y365057D01*
X400189Y365005D01*
X400366Y364827D01*
X400538Y364645D01*
X400589Y364603D01*
X400635Y364557D01*
X400833Y364403D01*
X401026Y364244D01*
X401082Y364209D01*
X401134Y364168D01*
X401349Y364041D01*
X401562Y363907D01*
X401628Y363876D01*
X401678Y363846D01*
X401806Y363791D01*
X402035Y363681D01*
X404909Y362491D01*
X407195Y360205D01*
X408433Y357217D01*
X408433Y353983D01*
X407195Y350995D01*
X404909Y348709D01*
X402035Y347519D01*
X401810Y347408D01*
X401583Y347304D01*
X401527Y347269D01*
X401468Y347240D01*
X401258Y347102D01*
X401046Y346970D01*
X400995Y346929D01*
X400940Y346893D01*
X400750Y346729D01*
X400556Y346572D01*
X400510Y346524D01*
X400460Y346481D01*
X400292Y346295D01*
X400119Y346114D01*
X400080Y346061D01*
X400036Y346012D01*
X399893Y345807D01*
X399744Y345605D01*
X399712Y345548D01*
X399675Y345494D01*
X399559Y345272D01*
X399437Y345053D01*
X399412Y344992D01*
X399382Y344934D01*
X399295Y344699D01*
X399201Y344467D01*
X399184Y344403D01*
X399162Y344341D01*
X399105Y344097D01*
X399041Y343855D01*
X399033Y343790D01*
X399018Y343726D01*
X398992Y343476D01*
X398960Y343228D01*
X398960Y343162D01*
X398953Y343097D01*
X398959Y342847D01*
X398959Y342596D01*
X398967Y342531D01*
X398968Y342465D01*
X399006Y342218D01*
X399037Y341969D01*
X399053Y341905D01*
X399063Y341840D01*
X399131Y341599D01*
X399194Y341356D01*
X399218Y341295D01*
X399236Y341232D01*
X399334Y341001D01*
X399426Y340769D01*
X399458Y340711D01*
X399484Y340651D01*
X399611Y340435D01*
X399731Y340215D01*
X399770Y340162D01*
X399803Y340105D01*
X399956Y339907D01*
X400104Y339704D01*
X400149Y339657D01*
X400189Y339605D01*
X400366Y339427D01*
X400538Y339245D01*
X400589Y339203D01*
X400635Y339157D01*
X400833Y339003D01*
X401026Y338844D01*
X401082Y338809D01*
X401134Y338768D01*
X401349Y338641D01*
X401562Y338507D01*
X401628Y338476D01*
X401678Y338446D01*
X401806Y338391D01*
X402035Y338281D01*
X404909Y337091D01*
X407195Y334805D01*
X408433Y331817D01*
X408433Y328583D01*
X407195Y325595D01*
X404909Y323309D01*
X402035Y322119D01*
X401810Y322008D01*
X401583Y321904D01*
X401527Y321869D01*
X401468Y321840D01*
X401258Y321702D01*
X401046Y321570D01*
X400995Y321529D01*
X400940Y321493D01*
X400750Y321329D01*
X400556Y321172D01*
X400510Y321124D01*
X400460Y321081D01*
X400292Y320895D01*
X400119Y320714D01*
X400080Y320661D01*
X400036Y320612D01*
X399893Y320407D01*
X399744Y320205D01*
X399712Y320148D01*
X399675Y320094D01*
X399559Y319872D01*
X399437Y319653D01*
X399412Y319592D01*
X399382Y319534D01*
X399295Y319299D01*
X399201Y319067D01*
X399184Y319003D01*
X399162Y318941D01*
X399105Y318697D01*
X399041Y318455D01*
X399033Y318390D01*
X399018Y318326D01*
X398992Y318076D01*
X398960Y317828D01*
X398960Y317762D01*
X398953Y317697D01*
X398959Y317447D01*
X398959Y317196D01*
X398967Y317131D01*
X398968Y317065D01*
X399006Y316818D01*
X399037Y316569D01*
X399053Y316505D01*
X399063Y316440D01*
X399131Y316199D01*
X399194Y315956D01*
X399218Y315895D01*
X399236Y315832D01*
X399335Y315601D01*
X399426Y315369D01*
X399458Y315311D01*
X399484Y315251D01*
X399611Y315035D01*
X399731Y314815D01*
X399770Y314762D01*
X399803Y314705D01*
X399956Y314507D01*
X400104Y314304D01*
X400149Y314257D01*
X400189Y314205D01*
X400366Y314027D01*
X400538Y313845D01*
X400589Y313803D01*
X400635Y313757D01*
X400833Y313603D01*
X401026Y313444D01*
X401082Y313409D01*
X401134Y313368D01*
X401349Y313241D01*
X401562Y313107D01*
X401628Y313076D01*
X401678Y313046D01*
X401806Y312991D01*
X402035Y312881D01*
X404909Y311691D01*
X407195Y309405D01*
X408433Y306417D01*
X408433Y303183D01*
X407195Y300195D01*
X404909Y297909D01*
X403372Y297272D01*
X403255Y297215D01*
X403133Y297166D01*
X402970Y297075D01*
X402804Y296994D01*
X402695Y296922D01*
X402581Y296858D01*
X402431Y296748D01*
X402276Y296646D01*
X402177Y296561D01*
X402072Y296483D01*
X401938Y296356D01*
X401797Y296235D01*
X401709Y296137D01*
X401614Y296047D01*
X401497Y295904D01*
X401373Y295766D01*
X401298Y295658D01*
X401215Y295557D01*
X401117Y295399D01*
X401011Y295247D01*
X400951Y295132D01*
X400881Y295020D01*
X400804Y294852D01*
X400718Y294687D01*
X400672Y294564D01*
X400618Y294446D01*
X400563Y294269D01*
X400498Y294095D01*
X400468Y293967D01*
X400429Y293842D01*
X400396Y293660D01*
X400354Y293479D01*
X400341Y293349D01*
X400318Y293220D01*
X400308Y293035D01*
X400289Y292850D01*
X400293Y292720D01*
X400286Y292589D01*
X400300Y292404D01*
X400305Y292218D01*
X400324Y292089D01*
X400334Y291959D01*
X400371Y291777D01*
X400399Y291594D01*
X400435Y291468D01*
X400461Y291340D01*
X400521Y291164D01*
X400572Y290986D01*
X400623Y290865D01*
X400666Y290741D01*
X400747Y290575D01*
X400820Y290404D01*
X400886Y290291D01*
X400944Y290174D01*
X401046Y290019D01*
X401140Y289859D01*
X401219Y289755D01*
X401291Y289646D01*
X401412Y289505D01*
X401525Y289358D01*
X401618Y289265D01*
X401703Y289166D01*
X401841Y289041D01*
X401971Y288910D01*
X402074Y288830D01*
X402172Y288742D01*
X402324Y288636D01*
X402470Y288522D01*
X402583Y288455D01*
X402690Y288380D01*
X402854Y288294D01*
X403014Y288200D01*
X403134Y288148D01*
X403250Y288087D01*
X403468Y288003D01*
X403594Y287949D01*
X403659Y287930D01*
X403740Y287899D01*
X403814Y287875D01*
X405097Y287221D01*
X406261Y286375D01*
X407279Y285357D01*
X407975Y284399D01*
X393700Y284399D01*
X393700Y284399D01*
G37*
%LPD*%
%LPC*%
G36*
X814662Y130022D02*
X814662Y130022D01*
X810811Y131617D01*
X807864Y134565D01*
X807647Y135088D01*
X807609Y135165D01*
X807578Y135246D01*
X807470Y135448D01*
X807369Y135655D01*
X807321Y135727D01*
X807280Y135804D01*
X807147Y135991D01*
X807021Y136183D01*
X806964Y136249D01*
X806914Y136319D01*
X806692Y136567D01*
X806609Y136663D01*
X806587Y136682D01*
X806563Y136709D01*
X781869Y161404D01*
X780875Y163802D01*
X780875Y319398D01*
X781869Y321796D01*
X784407Y324335D01*
X805856Y345783D01*
X805913Y345848D01*
X805976Y345908D01*
X806122Y346085D01*
X806274Y346258D01*
X806322Y346329D01*
X806377Y346396D01*
X806499Y346590D01*
X806628Y346781D01*
X806668Y346858D01*
X806714Y346931D01*
X806857Y347232D01*
X806914Y347345D01*
X806924Y347373D01*
X806940Y347405D01*
X807864Y349635D01*
X810811Y352583D01*
X814662Y354178D01*
X836738Y354178D01*
X840589Y352583D01*
X843537Y349635D01*
X845132Y345784D01*
X845132Y341616D01*
X843537Y337765D01*
X840589Y334817D01*
X836738Y333222D01*
X813820Y333222D01*
X813701Y333214D01*
X813581Y333216D01*
X813385Y333194D01*
X813189Y333182D01*
X813072Y333159D01*
X812953Y333146D01*
X812762Y333100D01*
X812568Y333063D01*
X812455Y333025D01*
X812339Y332997D01*
X812155Y332927D01*
X811968Y332866D01*
X811860Y332815D01*
X811748Y332772D01*
X811575Y332680D01*
X811396Y332595D01*
X811296Y332531D01*
X811191Y332475D01*
X811030Y332361D01*
X810864Y332254D01*
X810772Y332178D01*
X810675Y332109D01*
X810486Y331939D01*
X810379Y331849D01*
X810376Y331846D01*
X810375Y331845D01*
X810338Y331805D01*
X810285Y331758D01*
X795389Y316862D01*
X795310Y316772D01*
X795224Y316689D01*
X795101Y316535D01*
X794971Y316387D01*
X794904Y316288D01*
X794830Y316195D01*
X794727Y316027D01*
X794617Y315864D01*
X794563Y315758D01*
X794500Y315656D01*
X794420Y315476D01*
X794331Y315300D01*
X794291Y315188D01*
X794242Y315079D01*
X794185Y314890D01*
X794118Y314705D01*
X794093Y314588D01*
X794058Y314474D01*
X794025Y314280D01*
X793983Y314087D01*
X793972Y313969D01*
X793952Y313851D01*
X793939Y313597D01*
X793926Y313458D01*
X793929Y313400D01*
X793925Y313327D01*
X793925Y169873D01*
X793932Y169754D01*
X793930Y169635D01*
X793952Y169439D01*
X793965Y169243D01*
X793987Y169126D01*
X794000Y169007D01*
X794047Y168815D01*
X794084Y168622D01*
X794121Y168508D01*
X794149Y168392D01*
X794219Y168209D01*
X794281Y168021D01*
X794332Y167913D01*
X794374Y167802D01*
X794467Y167628D01*
X794551Y167450D01*
X794616Y167349D01*
X794672Y167244D01*
X794786Y167084D01*
X794892Y166918D01*
X794969Y166826D01*
X795038Y166729D01*
X795208Y166540D01*
X795297Y166432D01*
X795340Y166393D01*
X795389Y166338D01*
X809533Y152194D01*
X809647Y152093D01*
X809755Y151986D01*
X809884Y151885D01*
X810008Y151776D01*
X810134Y151691D01*
X810254Y151597D01*
X810395Y151514D01*
X810531Y151422D01*
X810667Y151353D01*
X810798Y151275D01*
X810948Y151210D01*
X811095Y151136D01*
X811238Y151085D01*
X811378Y151024D01*
X811536Y150979D01*
X811690Y150924D01*
X811839Y150891D01*
X811985Y150849D01*
X812147Y150823D01*
X812307Y150788D01*
X812459Y150774D01*
X812609Y150751D01*
X812773Y150746D01*
X812937Y150732D01*
X813089Y150737D01*
X813241Y150733D01*
X813404Y150749D01*
X813569Y150755D01*
X813719Y150780D01*
X813870Y150795D01*
X814030Y150831D01*
X814192Y150858D01*
X814338Y150901D01*
X814487Y150935D01*
X814608Y150978D01*
X836738Y150978D01*
X840589Y149383D01*
X843537Y146435D01*
X845132Y142584D01*
X845132Y138416D01*
X843537Y134565D01*
X840589Y131617D01*
X836738Y130022D01*
X814662Y130022D01*
G37*
%LPD*%
%LPC*%
G36*
X461679Y118871D02*
X461679Y118871D01*
X458691Y120109D01*
X456405Y122395D01*
X455167Y125383D01*
X455167Y128617D01*
X456405Y131605D01*
X458691Y133891D01*
X461565Y135081D01*
X461790Y135192D01*
X462017Y135296D01*
X462073Y135331D01*
X462132Y135360D01*
X462342Y135498D01*
X462554Y135630D01*
X462605Y135671D01*
X462660Y135707D01*
X462850Y135871D01*
X463044Y136028D01*
X463090Y136076D01*
X463140Y136119D01*
X463308Y136305D01*
X463481Y136486D01*
X463520Y136539D01*
X463564Y136588D01*
X463707Y136793D01*
X463856Y136995D01*
X463888Y137052D01*
X463925Y137106D01*
X464041Y137328D01*
X464163Y137547D01*
X464188Y137608D01*
X464218Y137666D01*
X464305Y137901D01*
X464399Y138133D01*
X464416Y138197D01*
X464438Y138259D01*
X464495Y138503D01*
X464559Y138745D01*
X464567Y138810D01*
X464582Y138874D01*
X464608Y139124D01*
X464640Y139372D01*
X464640Y139438D01*
X464647Y139503D01*
X464641Y139753D01*
X464641Y140004D01*
X464633Y140069D01*
X464632Y140135D01*
X464594Y140382D01*
X464563Y140631D01*
X464547Y140695D01*
X464537Y140760D01*
X464469Y141001D01*
X464406Y141244D01*
X464382Y141305D01*
X464364Y141368D01*
X464266Y141599D01*
X464174Y141831D01*
X464142Y141889D01*
X464116Y141949D01*
X463989Y142165D01*
X463869Y142385D01*
X463830Y142438D01*
X463797Y142495D01*
X463644Y142693D01*
X463496Y142896D01*
X463451Y142943D01*
X463411Y142995D01*
X463234Y143173D01*
X463062Y143355D01*
X463011Y143397D01*
X462965Y143443D01*
X462767Y143597D01*
X462574Y143756D01*
X462518Y143791D01*
X462466Y143832D01*
X462251Y143959D01*
X462038Y144093D01*
X461972Y144124D01*
X461922Y144154D01*
X461794Y144209D01*
X461565Y144319D01*
X458691Y145509D01*
X456405Y147795D01*
X455167Y150783D01*
X455167Y154017D01*
X456405Y157005D01*
X458691Y159291D01*
X461565Y160481D01*
X461790Y160592D01*
X462017Y160696D01*
X462073Y160731D01*
X462132Y160760D01*
X462342Y160898D01*
X462554Y161030D01*
X462605Y161071D01*
X462660Y161107D01*
X462850Y161271D01*
X463044Y161428D01*
X463090Y161476D01*
X463140Y161519D01*
X463308Y161705D01*
X463481Y161886D01*
X463520Y161939D01*
X463564Y161988D01*
X463707Y162193D01*
X463856Y162395D01*
X463888Y162452D01*
X463925Y162506D01*
X464041Y162728D01*
X464163Y162947D01*
X464188Y163008D01*
X464218Y163066D01*
X464305Y163301D01*
X464399Y163533D01*
X464416Y163597D01*
X464438Y163659D01*
X464495Y163903D01*
X464559Y164145D01*
X464567Y164210D01*
X464582Y164274D01*
X464608Y164524D01*
X464640Y164772D01*
X464640Y164838D01*
X464647Y164903D01*
X464641Y165153D01*
X464641Y165404D01*
X464633Y165469D01*
X464632Y165535D01*
X464594Y165782D01*
X464563Y166031D01*
X464547Y166095D01*
X464537Y166160D01*
X464469Y166401D01*
X464406Y166644D01*
X464382Y166705D01*
X464364Y166768D01*
X464266Y166999D01*
X464174Y167231D01*
X464142Y167289D01*
X464116Y167349D01*
X463989Y167565D01*
X463869Y167785D01*
X463830Y167838D01*
X463797Y167895D01*
X463644Y168093D01*
X463496Y168296D01*
X463451Y168343D01*
X463411Y168395D01*
X463234Y168573D01*
X463062Y168755D01*
X463011Y168797D01*
X462965Y168843D01*
X462767Y168997D01*
X462574Y169156D01*
X462518Y169191D01*
X462466Y169232D01*
X462251Y169359D01*
X462038Y169493D01*
X461972Y169524D01*
X461922Y169554D01*
X461794Y169609D01*
X461565Y169719D01*
X458691Y170909D01*
X456405Y173195D01*
X455167Y176183D01*
X455167Y179417D01*
X456405Y182405D01*
X458691Y184691D01*
X461565Y185881D01*
X461790Y185992D01*
X462017Y186096D01*
X462073Y186131D01*
X462132Y186160D01*
X462342Y186298D01*
X462554Y186430D01*
X462605Y186471D01*
X462660Y186507D01*
X462850Y186671D01*
X463044Y186828D01*
X463090Y186876D01*
X463140Y186919D01*
X463308Y187105D01*
X463481Y187286D01*
X463520Y187339D01*
X463564Y187388D01*
X463707Y187593D01*
X463856Y187795D01*
X463888Y187852D01*
X463925Y187906D01*
X464041Y188128D01*
X464163Y188347D01*
X464188Y188408D01*
X464218Y188466D01*
X464305Y188701D01*
X464399Y188933D01*
X464416Y188997D01*
X464438Y189059D01*
X464495Y189303D01*
X464559Y189545D01*
X464567Y189610D01*
X464582Y189674D01*
X464608Y189924D01*
X464640Y190172D01*
X464640Y190238D01*
X464647Y190303D01*
X464641Y190553D01*
X464641Y190804D01*
X464633Y190869D01*
X464632Y190935D01*
X464594Y191182D01*
X464563Y191431D01*
X464547Y191495D01*
X464537Y191560D01*
X464469Y191801D01*
X464406Y192044D01*
X464382Y192105D01*
X464364Y192168D01*
X464266Y192399D01*
X464174Y192631D01*
X464142Y192689D01*
X464116Y192749D01*
X463989Y192965D01*
X463869Y193185D01*
X463830Y193238D01*
X463797Y193295D01*
X463644Y193493D01*
X463496Y193696D01*
X463451Y193743D01*
X463411Y193795D01*
X463234Y193973D01*
X463062Y194155D01*
X463011Y194197D01*
X462965Y194243D01*
X462767Y194397D01*
X462574Y194556D01*
X462518Y194591D01*
X462466Y194632D01*
X462251Y194759D01*
X462038Y194893D01*
X461972Y194924D01*
X461922Y194954D01*
X461794Y195009D01*
X461565Y195119D01*
X458691Y196309D01*
X456405Y198595D01*
X455167Y201583D01*
X455167Y204817D01*
X456405Y207805D01*
X458691Y210091D01*
X461565Y211281D01*
X461790Y211392D01*
X462017Y211496D01*
X462073Y211531D01*
X462132Y211560D01*
X462342Y211698D01*
X462554Y211830D01*
X462605Y211871D01*
X462660Y211907D01*
X462850Y212071D01*
X463044Y212228D01*
X463090Y212276D01*
X463140Y212319D01*
X463308Y212505D01*
X463481Y212686D01*
X463520Y212739D01*
X463564Y212788D01*
X463707Y212993D01*
X463856Y213195D01*
X463888Y213252D01*
X463925Y213306D01*
X464041Y213528D01*
X464163Y213747D01*
X464188Y213808D01*
X464218Y213866D01*
X464305Y214101D01*
X464399Y214333D01*
X464416Y214397D01*
X464438Y214459D01*
X464495Y214702D01*
X464559Y214945D01*
X464567Y215010D01*
X464582Y215074D01*
X464608Y215324D01*
X464640Y215572D01*
X464640Y215638D01*
X464647Y215703D01*
X464641Y215953D01*
X464641Y216204D01*
X464633Y216269D01*
X464632Y216335D01*
X464594Y216582D01*
X464563Y216831D01*
X464547Y216895D01*
X464537Y216960D01*
X464469Y217201D01*
X464406Y217444D01*
X464382Y217505D01*
X464364Y217568D01*
X464266Y217799D01*
X464174Y218031D01*
X464142Y218089D01*
X464116Y218149D01*
X463989Y218365D01*
X463869Y218585D01*
X463830Y218638D01*
X463797Y218695D01*
X463644Y218893D01*
X463496Y219096D01*
X463451Y219143D01*
X463411Y219195D01*
X463234Y219373D01*
X463062Y219555D01*
X463011Y219597D01*
X462965Y219643D01*
X462767Y219797D01*
X462574Y219956D01*
X462518Y219991D01*
X462466Y220032D01*
X462251Y220159D01*
X462038Y220293D01*
X461972Y220324D01*
X461922Y220354D01*
X461794Y220409D01*
X461565Y220519D01*
X458691Y221709D01*
X456405Y223995D01*
X455167Y226983D01*
X455167Y230217D01*
X456405Y233205D01*
X458691Y235491D01*
X461565Y236681D01*
X461790Y236792D01*
X462017Y236896D01*
X462073Y236931D01*
X462132Y236960D01*
X462342Y237098D01*
X462554Y237230D01*
X462605Y237271D01*
X462660Y237307D01*
X462850Y237471D01*
X463044Y237628D01*
X463090Y237676D01*
X463140Y237719D01*
X463308Y237905D01*
X463481Y238086D01*
X463520Y238139D01*
X463564Y238188D01*
X463707Y238393D01*
X463856Y238595D01*
X463888Y238652D01*
X463925Y238706D01*
X464041Y238928D01*
X464163Y239147D01*
X464188Y239208D01*
X464218Y239266D01*
X464305Y239501D01*
X464399Y239733D01*
X464416Y239797D01*
X464438Y239859D01*
X464495Y240103D01*
X464559Y240345D01*
X464567Y240410D01*
X464582Y240474D01*
X464608Y240724D01*
X464640Y240972D01*
X464640Y241038D01*
X464647Y241103D01*
X464641Y241353D01*
X464641Y241604D01*
X464633Y241669D01*
X464632Y241735D01*
X464594Y241982D01*
X464563Y242231D01*
X464547Y242295D01*
X464537Y242360D01*
X464469Y242601D01*
X464406Y242844D01*
X464382Y242905D01*
X464364Y242968D01*
X464266Y243199D01*
X464174Y243431D01*
X464142Y243489D01*
X464116Y243549D01*
X463989Y243765D01*
X463869Y243985D01*
X463830Y244038D01*
X463797Y244095D01*
X463644Y244293D01*
X463496Y244496D01*
X463451Y244543D01*
X463411Y244595D01*
X463234Y244773D01*
X463062Y244955D01*
X463011Y244997D01*
X462965Y245043D01*
X462767Y245197D01*
X462574Y245356D01*
X462518Y245391D01*
X462466Y245432D01*
X462251Y245559D01*
X462038Y245693D01*
X461972Y245724D01*
X461922Y245754D01*
X461794Y245809D01*
X461565Y245919D01*
X458691Y247109D01*
X456405Y249395D01*
X455167Y252383D01*
X455167Y255617D01*
X456405Y258605D01*
X458691Y260891D01*
X461565Y262081D01*
X461790Y262192D01*
X462017Y262296D01*
X462073Y262331D01*
X462132Y262360D01*
X462342Y262498D01*
X462554Y262630D01*
X462605Y262671D01*
X462660Y262707D01*
X462850Y262871D01*
X463044Y263028D01*
X463090Y263076D01*
X463140Y263119D01*
X463308Y263305D01*
X463481Y263486D01*
X463520Y263539D01*
X463564Y263588D01*
X463707Y263793D01*
X463856Y263995D01*
X463888Y264052D01*
X463925Y264106D01*
X464041Y264328D01*
X464163Y264547D01*
X464188Y264608D01*
X464218Y264666D01*
X464305Y264901D01*
X464399Y265133D01*
X464416Y265197D01*
X464438Y265259D01*
X464495Y265503D01*
X464559Y265745D01*
X464567Y265810D01*
X464582Y265874D01*
X464608Y266124D01*
X464640Y266372D01*
X464640Y266438D01*
X464647Y266503D01*
X464641Y266753D01*
X464641Y267004D01*
X464633Y267069D01*
X464632Y267135D01*
X464594Y267382D01*
X464563Y267631D01*
X464547Y267695D01*
X464537Y267760D01*
X464469Y268001D01*
X464406Y268244D01*
X464382Y268305D01*
X464364Y268368D01*
X464266Y268599D01*
X464174Y268831D01*
X464142Y268889D01*
X464116Y268949D01*
X463989Y269165D01*
X463869Y269385D01*
X463830Y269438D01*
X463797Y269495D01*
X463644Y269693D01*
X463496Y269896D01*
X463451Y269943D01*
X463411Y269995D01*
X463234Y270173D01*
X463062Y270355D01*
X463011Y270397D01*
X462965Y270443D01*
X462767Y270597D01*
X462574Y270756D01*
X462518Y270791D01*
X462466Y270832D01*
X462251Y270959D01*
X462038Y271093D01*
X461972Y271124D01*
X461922Y271154D01*
X461794Y271209D01*
X461565Y271319D01*
X458691Y272509D01*
X456405Y274795D01*
X455167Y277783D01*
X455167Y281017D01*
X456405Y284005D01*
X458691Y286291D01*
X460228Y286928D01*
X460346Y286985D01*
X460467Y287034D01*
X460629Y287124D01*
X460796Y287206D01*
X460905Y287278D01*
X461019Y287342D01*
X461169Y287452D01*
X461324Y287554D01*
X461423Y287639D01*
X461528Y287717D01*
X461663Y287845D01*
X461803Y287965D01*
X461891Y288062D01*
X461986Y288153D01*
X462103Y288297D01*
X462227Y288434D01*
X462302Y288542D01*
X462385Y288643D01*
X462483Y288800D01*
X462589Y288953D01*
X462650Y289069D01*
X462719Y289180D01*
X462796Y289349D01*
X462882Y289513D01*
X462928Y289635D01*
X462982Y289754D01*
X463038Y289931D01*
X463102Y290105D01*
X463132Y290233D01*
X463171Y290358D01*
X463204Y290540D01*
X463246Y290721D01*
X463259Y290851D01*
X463282Y290980D01*
X463292Y291165D01*
X463311Y291350D01*
X463307Y291480D01*
X463314Y291611D01*
X463300Y291796D01*
X463296Y291981D01*
X463276Y292111D01*
X463266Y292241D01*
X463229Y292423D01*
X463201Y292606D01*
X463165Y292732D01*
X463139Y292861D01*
X463079Y293036D01*
X463028Y293214D01*
X462977Y293335D01*
X462934Y293459D01*
X462853Y293625D01*
X462780Y293796D01*
X462714Y293909D01*
X462656Y294026D01*
X462554Y294181D01*
X462460Y294341D01*
X462380Y294445D01*
X462309Y294554D01*
X462188Y294695D01*
X462075Y294842D01*
X461982Y294935D01*
X461897Y295034D01*
X461760Y295158D01*
X461629Y295290D01*
X461525Y295370D01*
X461428Y295458D01*
X461276Y295564D01*
X461130Y295678D01*
X461017Y295745D01*
X460910Y295820D01*
X460746Y295906D01*
X460586Y296000D01*
X460466Y296052D01*
X460350Y296113D01*
X460132Y296197D01*
X460006Y296251D01*
X459941Y296270D01*
X459860Y296301D01*
X459785Y296325D01*
X458503Y296979D01*
X457339Y297825D01*
X456321Y298843D01*
X455625Y299801D01*
X469900Y299801D01*
X484175Y299801D01*
X483479Y298843D01*
X482461Y297825D01*
X481297Y296979D01*
X480014Y296325D01*
X479940Y296301D01*
X479819Y296253D01*
X479694Y296214D01*
X479525Y296136D01*
X479352Y296068D01*
X479238Y296005D01*
X479119Y295951D01*
X478961Y295853D01*
X478799Y295763D01*
X478693Y295686D01*
X478582Y295617D01*
X478438Y295500D01*
X478288Y295390D01*
X478193Y295301D01*
X478092Y295218D01*
X477964Y295084D01*
X477829Y294956D01*
X477746Y294855D01*
X477656Y294761D01*
X477545Y294611D01*
X477428Y294468D01*
X477358Y294357D01*
X477281Y294252D01*
X477190Y294089D01*
X477092Y293932D01*
X477037Y293814D01*
X476973Y293700D01*
X476904Y293527D01*
X476826Y293359D01*
X476786Y293234D01*
X476737Y293113D01*
X476690Y292934D01*
X476634Y292757D01*
X476611Y292628D01*
X476578Y292501D01*
X476554Y292318D01*
X476520Y292135D01*
X476513Y292004D01*
X476496Y291875D01*
X476496Y291689D01*
X476486Y291504D01*
X476495Y291373D01*
X476495Y291242D01*
X476518Y291058D01*
X476531Y290873D01*
X476557Y290745D01*
X476573Y290615D01*
X476619Y290436D01*
X476656Y290254D01*
X476697Y290129D01*
X476730Y290003D01*
X476798Y289831D01*
X476857Y289655D01*
X476914Y289537D01*
X476963Y289415D01*
X477052Y289253D01*
X477133Y289086D01*
X477205Y288976D01*
X477268Y288862D01*
X477377Y288712D01*
X477478Y288556D01*
X477563Y288457D01*
X477640Y288351D01*
X477768Y288216D01*
X477888Y288075D01*
X477984Y287987D01*
X478074Y287891D01*
X478218Y287774D01*
X478355Y287649D01*
X478461Y287573D01*
X478563Y287490D01*
X478720Y287391D01*
X478871Y287285D01*
X478987Y287224D01*
X479098Y287154D01*
X479309Y287053D01*
X479430Y286989D01*
X479493Y286965D01*
X479572Y286928D01*
X481109Y286291D01*
X483395Y284005D01*
X484633Y281017D01*
X484633Y277783D01*
X483395Y274795D01*
X481109Y272509D01*
X478235Y271319D01*
X478011Y271208D01*
X477783Y271104D01*
X477727Y271069D01*
X477668Y271040D01*
X477459Y270902D01*
X477246Y270770D01*
X477195Y270729D01*
X477140Y270693D01*
X476950Y270529D01*
X476756Y270371D01*
X476710Y270324D01*
X476660Y270281D01*
X476492Y270095D01*
X476319Y269914D01*
X476280Y269861D01*
X476236Y269812D01*
X476093Y269607D01*
X475944Y269405D01*
X475912Y269348D01*
X475875Y269294D01*
X475759Y269072D01*
X475637Y268853D01*
X475612Y268792D01*
X475582Y268734D01*
X475494Y268499D01*
X475401Y268266D01*
X475384Y268203D01*
X475362Y268141D01*
X475305Y267897D01*
X475241Y267655D01*
X475233Y267590D01*
X475218Y267526D01*
X475192Y267276D01*
X475160Y267028D01*
X475160Y266962D01*
X475153Y266897D01*
X475159Y266646D01*
X475159Y266396D01*
X475167Y266331D01*
X475168Y266265D01*
X475206Y266018D01*
X475237Y265769D01*
X475253Y265705D01*
X475263Y265640D01*
X475331Y265399D01*
X475394Y265156D01*
X475418Y265095D01*
X475436Y265032D01*
X475534Y264802D01*
X475626Y264569D01*
X475658Y264511D01*
X475684Y264451D01*
X475811Y264235D01*
X475931Y264015D01*
X475970Y263962D01*
X476003Y263905D01*
X476156Y263707D01*
X476304Y263504D01*
X476349Y263457D01*
X476389Y263405D01*
X476566Y263227D01*
X476738Y263045D01*
X476789Y263003D01*
X476835Y262957D01*
X477033Y262803D01*
X477226Y262644D01*
X477282Y262609D01*
X477334Y262568D01*
X477550Y262441D01*
X477762Y262307D01*
X477828Y262276D01*
X477878Y262246D01*
X478006Y262191D01*
X478235Y262081D01*
X481109Y260891D01*
X483395Y258605D01*
X484633Y255617D01*
X484633Y252383D01*
X483395Y249395D01*
X481109Y247109D01*
X478235Y245919D01*
X478011Y245808D01*
X477783Y245704D01*
X477727Y245669D01*
X477668Y245640D01*
X477459Y245502D01*
X477246Y245370D01*
X477195Y245329D01*
X477140Y245293D01*
X476950Y245129D01*
X476756Y244971D01*
X476710Y244924D01*
X476660Y244881D01*
X476492Y244695D01*
X476319Y244514D01*
X476280Y244461D01*
X476236Y244412D01*
X476093Y244207D01*
X475944Y244005D01*
X475912Y243948D01*
X475875Y243894D01*
X475759Y243672D01*
X475637Y243453D01*
X475612Y243392D01*
X475582Y243334D01*
X475494Y243098D01*
X475401Y242866D01*
X475384Y242803D01*
X475362Y242741D01*
X475305Y242497D01*
X475241Y242255D01*
X475233Y242190D01*
X475218Y242126D01*
X475192Y241876D01*
X475160Y241628D01*
X475160Y241562D01*
X475153Y241497D01*
X475159Y241246D01*
X475159Y240996D01*
X475167Y240931D01*
X475168Y240865D01*
X475206Y240618D01*
X475237Y240369D01*
X475253Y240305D01*
X475263Y240240D01*
X475331Y239999D01*
X475394Y239756D01*
X475418Y239695D01*
X475436Y239632D01*
X475534Y239402D01*
X475626Y239169D01*
X475658Y239111D01*
X475684Y239051D01*
X475811Y238835D01*
X475931Y238615D01*
X475970Y238562D01*
X476003Y238505D01*
X476156Y238307D01*
X476304Y238104D01*
X476349Y238057D01*
X476389Y238005D01*
X476566Y237827D01*
X476738Y237645D01*
X476789Y237603D01*
X476835Y237557D01*
X477033Y237403D01*
X477226Y237244D01*
X477282Y237209D01*
X477334Y237168D01*
X477550Y237041D01*
X477762Y236907D01*
X477828Y236876D01*
X477878Y236846D01*
X478007Y236791D01*
X478235Y236681D01*
X481109Y235491D01*
X483395Y233205D01*
X484633Y230217D01*
X484633Y226983D01*
X483395Y223995D01*
X481109Y221709D01*
X478235Y220519D01*
X478011Y220408D01*
X477783Y220304D01*
X477727Y220269D01*
X477668Y220240D01*
X477459Y220102D01*
X477246Y219970D01*
X477195Y219929D01*
X477140Y219893D01*
X476950Y219729D01*
X476756Y219571D01*
X476710Y219524D01*
X476660Y219481D01*
X476492Y219295D01*
X476319Y219114D01*
X476280Y219061D01*
X476236Y219012D01*
X476093Y218807D01*
X475944Y218605D01*
X475912Y218548D01*
X475875Y218494D01*
X475759Y218272D01*
X475637Y218053D01*
X475612Y217992D01*
X475582Y217934D01*
X475494Y217699D01*
X475401Y217466D01*
X475384Y217403D01*
X475362Y217341D01*
X475305Y217097D01*
X475241Y216855D01*
X475233Y216790D01*
X475218Y216726D01*
X475192Y216476D01*
X475160Y216228D01*
X475160Y216162D01*
X475153Y216097D01*
X475159Y215846D01*
X475159Y215596D01*
X475167Y215531D01*
X475168Y215465D01*
X475206Y215218D01*
X475237Y214969D01*
X475253Y214905D01*
X475263Y214840D01*
X475331Y214599D01*
X475394Y214356D01*
X475418Y214295D01*
X475436Y214232D01*
X475534Y214002D01*
X475626Y213769D01*
X475658Y213711D01*
X475684Y213651D01*
X475811Y213435D01*
X475931Y213215D01*
X475970Y213162D01*
X476003Y213105D01*
X476156Y212907D01*
X476304Y212704D01*
X476349Y212657D01*
X476389Y212605D01*
X476566Y212427D01*
X476738Y212245D01*
X476789Y212203D01*
X476835Y212157D01*
X477033Y212003D01*
X477226Y211844D01*
X477282Y211809D01*
X477334Y211768D01*
X477550Y211641D01*
X477762Y211507D01*
X477828Y211476D01*
X477878Y211446D01*
X478006Y211391D01*
X478235Y211281D01*
X481109Y210091D01*
X483395Y207805D01*
X484633Y204817D01*
X484633Y201583D01*
X483395Y198595D01*
X481109Y196309D01*
X478235Y195119D01*
X478011Y195008D01*
X477783Y194904D01*
X477727Y194869D01*
X477668Y194840D01*
X477459Y194702D01*
X477246Y194570D01*
X477195Y194529D01*
X477140Y194493D01*
X476950Y194329D01*
X476756Y194171D01*
X476710Y194124D01*
X476660Y194081D01*
X476492Y193895D01*
X476319Y193714D01*
X476280Y193661D01*
X476236Y193612D01*
X476093Y193407D01*
X475944Y193205D01*
X475912Y193148D01*
X475875Y193094D01*
X475759Y192872D01*
X475637Y192653D01*
X475612Y192592D01*
X475582Y192534D01*
X475494Y192299D01*
X475401Y192066D01*
X475384Y192003D01*
X475362Y191941D01*
X475305Y191697D01*
X475241Y191455D01*
X475233Y191390D01*
X475218Y191326D01*
X475192Y191076D01*
X475160Y190828D01*
X475160Y190762D01*
X475153Y190697D01*
X475159Y190446D01*
X475159Y190196D01*
X475167Y190131D01*
X475168Y190065D01*
X475206Y189818D01*
X475237Y189569D01*
X475253Y189505D01*
X475263Y189440D01*
X475331Y189199D01*
X475394Y188956D01*
X475418Y188895D01*
X475436Y188832D01*
X475534Y188602D01*
X475626Y188369D01*
X475658Y188311D01*
X475684Y188251D01*
X475811Y188035D01*
X475931Y187815D01*
X475970Y187762D01*
X476003Y187705D01*
X476156Y187507D01*
X476304Y187304D01*
X476349Y187256D01*
X476389Y187205D01*
X476566Y187027D01*
X476738Y186845D01*
X476789Y186803D01*
X476835Y186757D01*
X477033Y186603D01*
X477226Y186444D01*
X477282Y186409D01*
X477334Y186368D01*
X477550Y186241D01*
X477762Y186107D01*
X477828Y186076D01*
X477878Y186046D01*
X478006Y185991D01*
X478235Y185881D01*
X481109Y184691D01*
X483395Y182405D01*
X484633Y179417D01*
X484633Y176183D01*
X483395Y173195D01*
X481109Y170909D01*
X478235Y169719D01*
X478011Y169608D01*
X477783Y169504D01*
X477727Y169469D01*
X477668Y169440D01*
X477459Y169302D01*
X477246Y169170D01*
X477195Y169129D01*
X477140Y169093D01*
X476950Y168929D01*
X476756Y168771D01*
X476710Y168724D01*
X476660Y168681D01*
X476492Y168495D01*
X476319Y168314D01*
X476280Y168261D01*
X476236Y168212D01*
X476093Y168007D01*
X475944Y167805D01*
X475912Y167748D01*
X475875Y167694D01*
X475759Y167472D01*
X475637Y167253D01*
X475612Y167192D01*
X475582Y167134D01*
X475494Y166899D01*
X475401Y166666D01*
X475384Y166603D01*
X475362Y166541D01*
X475305Y166297D01*
X475241Y166055D01*
X475233Y165990D01*
X475218Y165926D01*
X475192Y165676D01*
X475160Y165428D01*
X475160Y165362D01*
X475153Y165297D01*
X475159Y165046D01*
X475159Y164796D01*
X475167Y164731D01*
X475168Y164665D01*
X475206Y164418D01*
X475237Y164169D01*
X475253Y164105D01*
X475263Y164040D01*
X475331Y163799D01*
X475394Y163556D01*
X475418Y163495D01*
X475436Y163432D01*
X475534Y163202D01*
X475626Y162969D01*
X475658Y162911D01*
X475684Y162851D01*
X475811Y162635D01*
X475931Y162415D01*
X475970Y162362D01*
X476003Y162305D01*
X476156Y162107D01*
X476304Y161904D01*
X476349Y161856D01*
X476389Y161805D01*
X476566Y161627D01*
X476738Y161445D01*
X476789Y161403D01*
X476835Y161357D01*
X477033Y161203D01*
X477226Y161044D01*
X477282Y161009D01*
X477334Y160968D01*
X477550Y160841D01*
X477762Y160707D01*
X477828Y160676D01*
X477878Y160646D01*
X478006Y160591D01*
X478235Y160481D01*
X481109Y159291D01*
X483395Y157005D01*
X484633Y154017D01*
X484633Y150783D01*
X483395Y147795D01*
X481109Y145509D01*
X478235Y144319D01*
X478011Y144208D01*
X477783Y144104D01*
X477727Y144069D01*
X477668Y144040D01*
X477459Y143902D01*
X477246Y143770D01*
X477195Y143729D01*
X477140Y143693D01*
X476950Y143529D01*
X476756Y143371D01*
X476710Y143324D01*
X476660Y143281D01*
X476492Y143095D01*
X476319Y142914D01*
X476280Y142861D01*
X476236Y142812D01*
X476093Y142607D01*
X475944Y142405D01*
X475912Y142348D01*
X475875Y142294D01*
X475759Y142072D01*
X475637Y141853D01*
X475612Y141792D01*
X475582Y141734D01*
X475494Y141499D01*
X475401Y141266D01*
X475384Y141203D01*
X475362Y141141D01*
X475305Y140897D01*
X475241Y140655D01*
X475233Y140590D01*
X475218Y140526D01*
X475192Y140276D01*
X475160Y140028D01*
X475160Y139962D01*
X475153Y139897D01*
X475159Y139646D01*
X475159Y139396D01*
X475167Y139331D01*
X475168Y139265D01*
X475206Y139018D01*
X475237Y138769D01*
X475253Y138705D01*
X475263Y138640D01*
X475331Y138399D01*
X475394Y138156D01*
X475418Y138095D01*
X475436Y138032D01*
X475534Y137802D01*
X475626Y137569D01*
X475658Y137511D01*
X475684Y137451D01*
X475811Y137235D01*
X475931Y137015D01*
X475970Y136962D01*
X476003Y136905D01*
X476156Y136707D01*
X476304Y136504D01*
X476349Y136456D01*
X476389Y136405D01*
X476566Y136227D01*
X476738Y136045D01*
X476789Y136003D01*
X476835Y135957D01*
X477033Y135803D01*
X477226Y135644D01*
X477282Y135609D01*
X477334Y135568D01*
X477550Y135441D01*
X477762Y135307D01*
X477828Y135276D01*
X477878Y135246D01*
X478006Y135191D01*
X478235Y135081D01*
X481109Y133891D01*
X483395Y131605D01*
X484633Y128617D01*
X484633Y125383D01*
X483395Y122395D01*
X481109Y120109D01*
X478121Y118871D01*
X461679Y118871D01*
G37*
%LPD*%
%LPC*%
G36*
X385479Y118871D02*
X385479Y118871D01*
X382491Y120109D01*
X380205Y122395D01*
X378967Y125383D01*
X378967Y128617D01*
X380205Y131605D01*
X382491Y133891D01*
X385365Y135081D01*
X385589Y135192D01*
X385817Y135296D01*
X385873Y135331D01*
X385932Y135360D01*
X386141Y135498D01*
X386354Y135630D01*
X386405Y135671D01*
X386460Y135707D01*
X386650Y135871D01*
X386844Y136029D01*
X386890Y136076D01*
X386940Y136119D01*
X387108Y136305D01*
X387281Y136486D01*
X387320Y136539D01*
X387364Y136588D01*
X387507Y136793D01*
X387656Y136995D01*
X387688Y137052D01*
X387725Y137106D01*
X387841Y137328D01*
X387963Y137547D01*
X387988Y137608D01*
X388018Y137666D01*
X388106Y137901D01*
X388199Y138134D01*
X388216Y138197D01*
X388238Y138259D01*
X388295Y138503D01*
X388359Y138745D01*
X388367Y138810D01*
X388382Y138874D01*
X388408Y139124D01*
X388440Y139372D01*
X388440Y139438D01*
X388447Y139503D01*
X388441Y139754D01*
X388441Y140004D01*
X388433Y140069D01*
X388432Y140135D01*
X388394Y140382D01*
X388363Y140631D01*
X388347Y140695D01*
X388337Y140760D01*
X388269Y141001D01*
X388206Y141244D01*
X388182Y141305D01*
X388164Y141368D01*
X388066Y141598D01*
X387974Y141831D01*
X387942Y141889D01*
X387916Y141949D01*
X387789Y142165D01*
X387669Y142385D01*
X387630Y142438D01*
X387597Y142495D01*
X387444Y142693D01*
X387296Y142896D01*
X387251Y142943D01*
X387211Y142995D01*
X387035Y143172D01*
X386862Y143355D01*
X386811Y143397D01*
X386765Y143443D01*
X386567Y143597D01*
X386374Y143756D01*
X386318Y143791D01*
X386266Y143832D01*
X386050Y143959D01*
X385838Y144093D01*
X385772Y144124D01*
X385722Y144154D01*
X385594Y144209D01*
X385365Y144319D01*
X382491Y145509D01*
X380205Y147795D01*
X378967Y150783D01*
X378967Y154017D01*
X380205Y157005D01*
X382491Y159291D01*
X385365Y160481D01*
X385589Y160592D01*
X385817Y160696D01*
X385873Y160731D01*
X385932Y160760D01*
X386141Y160898D01*
X386354Y161030D01*
X386405Y161071D01*
X386460Y161107D01*
X386650Y161271D01*
X386844Y161429D01*
X386890Y161476D01*
X386940Y161519D01*
X387108Y161705D01*
X387281Y161886D01*
X387320Y161939D01*
X387364Y161988D01*
X387507Y162193D01*
X387656Y162395D01*
X387688Y162452D01*
X387725Y162506D01*
X387841Y162728D01*
X387963Y162947D01*
X387988Y163008D01*
X388018Y163066D01*
X388106Y163301D01*
X388199Y163534D01*
X388216Y163597D01*
X388238Y163659D01*
X388295Y163903D01*
X388359Y164145D01*
X388367Y164210D01*
X388382Y164274D01*
X388408Y164524D01*
X388440Y164772D01*
X388440Y164838D01*
X388447Y164903D01*
X388441Y165154D01*
X388441Y165404D01*
X388433Y165469D01*
X388432Y165535D01*
X388394Y165782D01*
X388363Y166031D01*
X388347Y166095D01*
X388337Y166160D01*
X388269Y166401D01*
X388206Y166644D01*
X388182Y166705D01*
X388164Y166768D01*
X388066Y166998D01*
X387974Y167231D01*
X387942Y167289D01*
X387916Y167349D01*
X387789Y167565D01*
X387669Y167785D01*
X387630Y167838D01*
X387597Y167895D01*
X387444Y168093D01*
X387296Y168296D01*
X387251Y168343D01*
X387211Y168395D01*
X387035Y168572D01*
X386862Y168755D01*
X386811Y168797D01*
X386765Y168843D01*
X386567Y168997D01*
X386374Y169156D01*
X386318Y169191D01*
X386266Y169232D01*
X386050Y169359D01*
X385838Y169493D01*
X385772Y169524D01*
X385722Y169554D01*
X385594Y169609D01*
X385365Y169719D01*
X382491Y170909D01*
X380205Y173195D01*
X378967Y176183D01*
X378967Y179417D01*
X380205Y182405D01*
X382491Y184691D01*
X385365Y185881D01*
X385589Y185992D01*
X385817Y186096D01*
X385873Y186131D01*
X385932Y186160D01*
X386141Y186298D01*
X386354Y186430D01*
X386405Y186471D01*
X386460Y186507D01*
X386650Y186671D01*
X386844Y186829D01*
X386890Y186876D01*
X386940Y186919D01*
X387108Y187105D01*
X387281Y187286D01*
X387320Y187339D01*
X387364Y187388D01*
X387507Y187593D01*
X387656Y187795D01*
X387688Y187852D01*
X387725Y187906D01*
X387841Y188128D01*
X387963Y188347D01*
X387988Y188408D01*
X388018Y188466D01*
X388106Y188701D01*
X388199Y188934D01*
X388216Y188997D01*
X388238Y189059D01*
X388295Y189303D01*
X388359Y189545D01*
X388367Y189610D01*
X388382Y189674D01*
X388408Y189924D01*
X388440Y190172D01*
X388440Y190238D01*
X388447Y190303D01*
X388441Y190554D01*
X388441Y190804D01*
X388433Y190869D01*
X388432Y190935D01*
X388394Y191182D01*
X388363Y191431D01*
X388347Y191495D01*
X388337Y191560D01*
X388269Y191801D01*
X388206Y192044D01*
X388182Y192105D01*
X388164Y192168D01*
X388066Y192398D01*
X387974Y192631D01*
X387942Y192689D01*
X387916Y192749D01*
X387789Y192965D01*
X387669Y193185D01*
X387630Y193238D01*
X387597Y193295D01*
X387444Y193493D01*
X387296Y193696D01*
X387251Y193743D01*
X387211Y193795D01*
X387035Y193972D01*
X386862Y194155D01*
X386811Y194197D01*
X386765Y194243D01*
X386567Y194397D01*
X386374Y194556D01*
X386318Y194591D01*
X386266Y194632D01*
X386050Y194759D01*
X385838Y194893D01*
X385772Y194924D01*
X385722Y194954D01*
X385594Y195009D01*
X385365Y195119D01*
X382491Y196309D01*
X380205Y198595D01*
X378967Y201583D01*
X378967Y204817D01*
X380205Y207805D01*
X382491Y210091D01*
X385365Y211281D01*
X385589Y211392D01*
X385817Y211496D01*
X385873Y211531D01*
X385932Y211560D01*
X386141Y211698D01*
X386354Y211830D01*
X386405Y211871D01*
X386460Y211907D01*
X386650Y212071D01*
X386844Y212229D01*
X386890Y212276D01*
X386940Y212319D01*
X387108Y212505D01*
X387281Y212686D01*
X387320Y212739D01*
X387364Y212788D01*
X387507Y212993D01*
X387656Y213195D01*
X387688Y213252D01*
X387725Y213306D01*
X387841Y213528D01*
X387963Y213747D01*
X387988Y213808D01*
X388018Y213866D01*
X388106Y214101D01*
X388199Y214334D01*
X388216Y214397D01*
X388238Y214459D01*
X388295Y214703D01*
X388359Y214945D01*
X388367Y215010D01*
X388382Y215074D01*
X388408Y215324D01*
X388440Y215572D01*
X388440Y215638D01*
X388447Y215703D01*
X388441Y215954D01*
X388441Y216204D01*
X388433Y216269D01*
X388432Y216335D01*
X388394Y216582D01*
X388363Y216831D01*
X388347Y216895D01*
X388337Y216960D01*
X388269Y217201D01*
X388206Y217444D01*
X388182Y217505D01*
X388164Y217568D01*
X388066Y217798D01*
X387974Y218031D01*
X387942Y218089D01*
X387916Y218149D01*
X387789Y218365D01*
X387669Y218585D01*
X387630Y218638D01*
X387597Y218695D01*
X387444Y218893D01*
X387296Y219096D01*
X387251Y219143D01*
X387211Y219195D01*
X387035Y219372D01*
X386862Y219555D01*
X386811Y219597D01*
X386765Y219643D01*
X386567Y219797D01*
X386374Y219956D01*
X386318Y219991D01*
X386266Y220032D01*
X386050Y220159D01*
X385838Y220293D01*
X385772Y220324D01*
X385722Y220354D01*
X385594Y220409D01*
X385365Y220519D01*
X382491Y221709D01*
X380205Y223995D01*
X378967Y226983D01*
X378967Y230217D01*
X380205Y233205D01*
X382491Y235491D01*
X385365Y236681D01*
X385589Y236792D01*
X385817Y236896D01*
X385873Y236931D01*
X385932Y236960D01*
X386141Y237098D01*
X386354Y237230D01*
X386405Y237271D01*
X386460Y237307D01*
X386650Y237471D01*
X386844Y237629D01*
X386890Y237676D01*
X386940Y237719D01*
X387108Y237905D01*
X387281Y238086D01*
X387320Y238139D01*
X387364Y238188D01*
X387507Y238393D01*
X387656Y238595D01*
X387688Y238652D01*
X387725Y238706D01*
X387841Y238928D01*
X387963Y239147D01*
X387988Y239208D01*
X388018Y239266D01*
X388106Y239501D01*
X388199Y239734D01*
X388216Y239797D01*
X388238Y239859D01*
X388295Y240103D01*
X388359Y240345D01*
X388367Y240410D01*
X388382Y240474D01*
X388408Y240724D01*
X388440Y240972D01*
X388440Y241038D01*
X388447Y241103D01*
X388441Y241354D01*
X388441Y241604D01*
X388433Y241669D01*
X388432Y241735D01*
X388394Y241982D01*
X388363Y242231D01*
X388347Y242295D01*
X388337Y242360D01*
X388269Y242601D01*
X388206Y242844D01*
X388182Y242905D01*
X388164Y242968D01*
X388066Y243198D01*
X387974Y243431D01*
X387942Y243489D01*
X387916Y243549D01*
X387789Y243765D01*
X387669Y243985D01*
X387630Y244038D01*
X387597Y244095D01*
X387444Y244293D01*
X387296Y244496D01*
X387251Y244543D01*
X387211Y244595D01*
X387035Y244772D01*
X386862Y244955D01*
X386811Y244997D01*
X386765Y245043D01*
X386567Y245197D01*
X386374Y245356D01*
X386318Y245391D01*
X386266Y245432D01*
X386050Y245559D01*
X385838Y245693D01*
X385772Y245724D01*
X385722Y245754D01*
X385594Y245809D01*
X385365Y245919D01*
X382491Y247109D01*
X380205Y249395D01*
X378967Y252383D01*
X378967Y255617D01*
X380205Y258605D01*
X382491Y260891D01*
X384028Y261528D01*
X384145Y261585D01*
X384267Y261634D01*
X384429Y261724D01*
X384596Y261806D01*
X384705Y261878D01*
X384819Y261942D01*
X384969Y262052D01*
X385124Y262154D01*
X385223Y262239D01*
X385328Y262317D01*
X385462Y262444D01*
X385603Y262565D01*
X385691Y262663D01*
X385786Y262753D01*
X385903Y262896D01*
X386027Y263034D01*
X386102Y263142D01*
X386185Y263243D01*
X386283Y263401D01*
X386389Y263553D01*
X386449Y263668D01*
X386519Y263780D01*
X386596Y263948D01*
X386682Y264113D01*
X386728Y264236D01*
X386782Y264354D01*
X386837Y264531D01*
X386902Y264705D01*
X386932Y264833D01*
X386971Y264958D01*
X387004Y265140D01*
X387046Y265321D01*
X387059Y265451D01*
X387082Y265580D01*
X387092Y265765D01*
X387111Y265950D01*
X387107Y266080D01*
X387114Y266211D01*
X387100Y266396D01*
X387095Y266582D01*
X387076Y266711D01*
X387066Y266841D01*
X387029Y267023D01*
X387001Y267206D01*
X386965Y267332D01*
X386939Y267460D01*
X386879Y267636D01*
X386828Y267814D01*
X386777Y267935D01*
X386734Y268059D01*
X386653Y268225D01*
X386580Y268396D01*
X386514Y268509D01*
X386456Y268626D01*
X386354Y268781D01*
X386260Y268941D01*
X386181Y269045D01*
X386109Y269154D01*
X385988Y269295D01*
X385875Y269442D01*
X385782Y269535D01*
X385697Y269634D01*
X385559Y269759D01*
X385429Y269890D01*
X385326Y269970D01*
X385228Y270058D01*
X385076Y270164D01*
X384930Y270278D01*
X384817Y270345D01*
X384710Y270420D01*
X384546Y270506D01*
X384386Y270600D01*
X384266Y270652D01*
X384150Y270713D01*
X383932Y270797D01*
X383806Y270851D01*
X383741Y270870D01*
X383660Y270901D01*
X383586Y270925D01*
X382303Y271579D01*
X381139Y272425D01*
X380121Y273443D01*
X379425Y274401D01*
X393700Y274401D01*
X407975Y274401D01*
X407279Y273443D01*
X406261Y272425D01*
X405097Y271579D01*
X403814Y270925D01*
X403740Y270901D01*
X403619Y270853D01*
X403494Y270814D01*
X403325Y270736D01*
X403152Y270668D01*
X403038Y270605D01*
X402919Y270551D01*
X402761Y270453D01*
X402599Y270363D01*
X402493Y270286D01*
X402382Y270217D01*
X402238Y270100D01*
X402088Y269990D01*
X401993Y269901D01*
X401892Y269818D01*
X401764Y269684D01*
X401629Y269556D01*
X401546Y269455D01*
X401456Y269361D01*
X401345Y269211D01*
X401228Y269068D01*
X401158Y268957D01*
X401081Y268852D01*
X400990Y268689D01*
X400892Y268532D01*
X400837Y268414D01*
X400773Y268300D01*
X400704Y268127D01*
X400626Y267959D01*
X400586Y267834D01*
X400537Y267713D01*
X400490Y267534D01*
X400434Y267357D01*
X400411Y267228D01*
X400378Y267101D01*
X400354Y266918D01*
X400320Y266735D01*
X400313Y266604D01*
X400296Y266475D01*
X400296Y266289D01*
X400286Y266104D01*
X400295Y265973D01*
X400295Y265842D01*
X400318Y265658D01*
X400331Y265473D01*
X400357Y265345D01*
X400373Y265215D01*
X400419Y265036D01*
X400456Y264854D01*
X400497Y264729D01*
X400530Y264603D01*
X400598Y264431D01*
X400657Y264255D01*
X400714Y264137D01*
X400763Y264015D01*
X400852Y263853D01*
X400933Y263686D01*
X401005Y263576D01*
X401068Y263462D01*
X401177Y263312D01*
X401278Y263156D01*
X401363Y263057D01*
X401440Y262951D01*
X401568Y262816D01*
X401688Y262675D01*
X401784Y262587D01*
X401874Y262491D01*
X402018Y262374D01*
X402155Y262249D01*
X402261Y262173D01*
X402363Y262090D01*
X402520Y261991D01*
X402671Y261885D01*
X402787Y261824D01*
X402898Y261754D01*
X403109Y261653D01*
X403230Y261589D01*
X403293Y261565D01*
X403372Y261528D01*
X404909Y260891D01*
X407195Y258605D01*
X408433Y255617D01*
X408433Y252383D01*
X407195Y249395D01*
X404909Y247109D01*
X402035Y245919D01*
X401810Y245808D01*
X401583Y245704D01*
X401527Y245669D01*
X401468Y245640D01*
X401258Y245502D01*
X401046Y245370D01*
X400995Y245329D01*
X400940Y245293D01*
X400750Y245129D01*
X400556Y244972D01*
X400510Y244924D01*
X400460Y244881D01*
X400292Y244695D01*
X400119Y244514D01*
X400080Y244461D01*
X400036Y244412D01*
X399893Y244207D01*
X399744Y244005D01*
X399712Y243948D01*
X399675Y243894D01*
X399559Y243672D01*
X399437Y243453D01*
X399412Y243392D01*
X399382Y243334D01*
X399295Y243099D01*
X399201Y242867D01*
X399184Y242803D01*
X399162Y242741D01*
X399105Y242497D01*
X399041Y242255D01*
X399033Y242190D01*
X399018Y242126D01*
X398992Y241876D01*
X398960Y241628D01*
X398960Y241562D01*
X398953Y241497D01*
X398959Y241247D01*
X398959Y240996D01*
X398967Y240931D01*
X398968Y240865D01*
X399006Y240618D01*
X399037Y240369D01*
X399053Y240305D01*
X399063Y240240D01*
X399131Y239999D01*
X399194Y239756D01*
X399218Y239695D01*
X399236Y239632D01*
X399334Y239401D01*
X399426Y239169D01*
X399458Y239111D01*
X399484Y239051D01*
X399611Y238835D01*
X399731Y238615D01*
X399770Y238562D01*
X399803Y238505D01*
X399956Y238307D01*
X400104Y238104D01*
X400149Y238057D01*
X400189Y238005D01*
X400366Y237827D01*
X400538Y237645D01*
X400589Y237603D01*
X400635Y237557D01*
X400833Y237403D01*
X401026Y237244D01*
X401082Y237209D01*
X401134Y237168D01*
X401349Y237041D01*
X401562Y236907D01*
X401628Y236876D01*
X401678Y236846D01*
X401806Y236791D01*
X402035Y236681D01*
X404909Y235491D01*
X407195Y233205D01*
X408433Y230217D01*
X408433Y226983D01*
X407195Y223995D01*
X404909Y221709D01*
X402035Y220519D01*
X401810Y220408D01*
X401583Y220304D01*
X401527Y220269D01*
X401468Y220240D01*
X401258Y220102D01*
X401046Y219970D01*
X400995Y219929D01*
X400940Y219893D01*
X400750Y219729D01*
X400556Y219572D01*
X400510Y219524D01*
X400460Y219481D01*
X400292Y219295D01*
X400119Y219114D01*
X400080Y219061D01*
X400036Y219012D01*
X399893Y218807D01*
X399744Y218605D01*
X399712Y218548D01*
X399675Y218494D01*
X399559Y218272D01*
X399437Y218053D01*
X399412Y217992D01*
X399382Y217934D01*
X399295Y217699D01*
X399201Y217467D01*
X399184Y217403D01*
X399162Y217341D01*
X399105Y217097D01*
X399041Y216855D01*
X399033Y216790D01*
X399018Y216726D01*
X398992Y216476D01*
X398960Y216228D01*
X398960Y216162D01*
X398953Y216097D01*
X398959Y215847D01*
X398959Y215596D01*
X398967Y215531D01*
X398968Y215465D01*
X399006Y215218D01*
X399037Y214969D01*
X399053Y214905D01*
X399063Y214840D01*
X399131Y214599D01*
X399194Y214356D01*
X399218Y214295D01*
X399236Y214232D01*
X399334Y214001D01*
X399426Y213769D01*
X399458Y213711D01*
X399484Y213651D01*
X399611Y213435D01*
X399731Y213215D01*
X399770Y213162D01*
X399803Y213105D01*
X399956Y212907D01*
X400104Y212704D01*
X400149Y212657D01*
X400189Y212605D01*
X400366Y212427D01*
X400538Y212245D01*
X400589Y212203D01*
X400635Y212157D01*
X400833Y212003D01*
X401026Y211844D01*
X401082Y211809D01*
X401134Y211768D01*
X401349Y211641D01*
X401562Y211507D01*
X401628Y211476D01*
X401678Y211446D01*
X401806Y211391D01*
X402035Y211281D01*
X404909Y210091D01*
X407195Y207805D01*
X408433Y204817D01*
X408433Y201583D01*
X407195Y198595D01*
X404909Y196309D01*
X402035Y195119D01*
X401810Y195008D01*
X401583Y194904D01*
X401527Y194869D01*
X401468Y194840D01*
X401258Y194702D01*
X401046Y194570D01*
X400995Y194529D01*
X400940Y194493D01*
X400750Y194329D01*
X400556Y194172D01*
X400510Y194124D01*
X400460Y194081D01*
X400292Y193895D01*
X400119Y193714D01*
X400080Y193661D01*
X400036Y193612D01*
X399893Y193407D01*
X399744Y193205D01*
X399712Y193148D01*
X399675Y193094D01*
X399559Y192872D01*
X399437Y192653D01*
X399412Y192592D01*
X399382Y192534D01*
X399295Y192299D01*
X399201Y192067D01*
X399184Y192003D01*
X399162Y191941D01*
X399105Y191697D01*
X399041Y191455D01*
X399033Y191390D01*
X399018Y191326D01*
X398992Y191076D01*
X398960Y190828D01*
X398960Y190762D01*
X398953Y190697D01*
X398959Y190447D01*
X398959Y190196D01*
X398967Y190131D01*
X398968Y190065D01*
X399006Y189818D01*
X399037Y189569D01*
X399053Y189505D01*
X399063Y189440D01*
X399131Y189199D01*
X399194Y188956D01*
X399218Y188895D01*
X399236Y188832D01*
X399334Y188601D01*
X399426Y188369D01*
X399458Y188311D01*
X399484Y188251D01*
X399611Y188035D01*
X399731Y187815D01*
X399770Y187762D01*
X399803Y187705D01*
X399956Y187507D01*
X400104Y187304D01*
X400149Y187256D01*
X400189Y187205D01*
X400366Y187027D01*
X400538Y186845D01*
X400589Y186803D01*
X400635Y186757D01*
X400833Y186603D01*
X401026Y186444D01*
X401082Y186409D01*
X401134Y186368D01*
X401349Y186241D01*
X401562Y186107D01*
X401628Y186076D01*
X401678Y186046D01*
X401806Y185991D01*
X402035Y185881D01*
X404909Y184691D01*
X407195Y182405D01*
X408433Y179417D01*
X408433Y176183D01*
X407195Y173195D01*
X404909Y170909D01*
X402035Y169719D01*
X401810Y169608D01*
X401583Y169504D01*
X401527Y169469D01*
X401468Y169440D01*
X401258Y169302D01*
X401046Y169170D01*
X400995Y169129D01*
X400940Y169093D01*
X400750Y168929D01*
X400556Y168772D01*
X400510Y168724D01*
X400460Y168681D01*
X400292Y168495D01*
X400119Y168314D01*
X400080Y168261D01*
X400036Y168212D01*
X399893Y168007D01*
X399744Y167805D01*
X399712Y167748D01*
X399675Y167694D01*
X399559Y167472D01*
X399437Y167253D01*
X399412Y167192D01*
X399382Y167134D01*
X399295Y166899D01*
X399201Y166667D01*
X399184Y166603D01*
X399162Y166541D01*
X399104Y166296D01*
X399041Y166055D01*
X399033Y165990D01*
X399018Y165926D01*
X398992Y165676D01*
X398960Y165428D01*
X398960Y165362D01*
X398953Y165297D01*
X398959Y165047D01*
X398959Y164796D01*
X398967Y164731D01*
X398968Y164665D01*
X399006Y164418D01*
X399037Y164169D01*
X399053Y164105D01*
X399063Y164040D01*
X399131Y163799D01*
X399194Y163556D01*
X399218Y163495D01*
X399236Y163432D01*
X399334Y163201D01*
X399426Y162969D01*
X399458Y162911D01*
X399484Y162851D01*
X399611Y162635D01*
X399731Y162415D01*
X399770Y162362D01*
X399803Y162305D01*
X399956Y162107D01*
X400104Y161904D01*
X400149Y161856D01*
X400189Y161805D01*
X400366Y161627D01*
X400538Y161445D01*
X400589Y161403D01*
X400635Y161357D01*
X400833Y161203D01*
X401026Y161044D01*
X401082Y161009D01*
X401134Y160968D01*
X401349Y160841D01*
X401562Y160707D01*
X401628Y160676D01*
X401678Y160646D01*
X401806Y160591D01*
X402035Y160481D01*
X404909Y159291D01*
X407195Y157005D01*
X408433Y154017D01*
X408433Y150783D01*
X407195Y147795D01*
X404909Y145509D01*
X402035Y144319D01*
X401810Y144208D01*
X401583Y144104D01*
X401527Y144069D01*
X401468Y144040D01*
X401258Y143902D01*
X401046Y143770D01*
X400995Y143729D01*
X400940Y143693D01*
X400750Y143529D01*
X400556Y143372D01*
X400510Y143324D01*
X400460Y143281D01*
X400292Y143095D01*
X400119Y142914D01*
X400080Y142861D01*
X400036Y142812D01*
X399893Y142607D01*
X399744Y142405D01*
X399712Y142348D01*
X399675Y142294D01*
X399559Y142072D01*
X399437Y141853D01*
X399412Y141792D01*
X399382Y141734D01*
X399295Y141499D01*
X399201Y141267D01*
X399184Y141203D01*
X399162Y141141D01*
X399105Y140897D01*
X399041Y140655D01*
X399033Y140590D01*
X399018Y140526D01*
X398992Y140276D01*
X398960Y140028D01*
X398960Y139962D01*
X398953Y139897D01*
X398959Y139647D01*
X398959Y139396D01*
X398967Y139331D01*
X398968Y139265D01*
X399006Y139017D01*
X399037Y138769D01*
X399053Y138705D01*
X399063Y138640D01*
X399131Y138399D01*
X399194Y138156D01*
X399218Y138095D01*
X399236Y138032D01*
X399334Y137801D01*
X399426Y137569D01*
X399458Y137511D01*
X399484Y137451D01*
X399611Y137235D01*
X399731Y137015D01*
X399770Y136962D01*
X399803Y136905D01*
X399956Y136707D01*
X400104Y136504D01*
X400149Y136456D01*
X400189Y136405D01*
X400366Y136227D01*
X400538Y136045D01*
X400589Y136003D01*
X400635Y135957D01*
X400833Y135803D01*
X401026Y135644D01*
X401082Y135609D01*
X401134Y135568D01*
X401349Y135441D01*
X401562Y135307D01*
X401628Y135276D01*
X401678Y135246D01*
X401806Y135191D01*
X402035Y135081D01*
X404909Y133891D01*
X407195Y131605D01*
X408433Y128617D01*
X408433Y125383D01*
X407195Y122395D01*
X404909Y120109D01*
X401921Y118871D01*
X385479Y118871D01*
G37*
%LPD*%
%LPC*%
G36*
X646083Y378967D02*
X646083Y378967D01*
X643095Y380205D01*
X640809Y382491D01*
X640172Y384028D01*
X640115Y384146D01*
X640066Y384267D01*
X639976Y384429D01*
X639894Y384596D01*
X639822Y384705D01*
X639758Y384819D01*
X639648Y384969D01*
X639546Y385124D01*
X639461Y385223D01*
X639383Y385328D01*
X639255Y385463D01*
X639135Y385603D01*
X639038Y385691D01*
X638947Y385786D01*
X638803Y385903D01*
X638666Y386027D01*
X638558Y386102D01*
X638457Y386185D01*
X638300Y386283D01*
X638147Y386389D01*
X638031Y386450D01*
X637920Y386519D01*
X637751Y386596D01*
X637587Y386682D01*
X637465Y386728D01*
X637346Y386782D01*
X637169Y386838D01*
X636995Y386902D01*
X636867Y386932D01*
X636742Y386971D01*
X636560Y387004D01*
X636379Y387046D01*
X636249Y387059D01*
X636120Y387082D01*
X635935Y387092D01*
X635750Y387111D01*
X635620Y387107D01*
X635489Y387114D01*
X635304Y387100D01*
X635119Y387096D01*
X634989Y387076D01*
X634859Y387066D01*
X634677Y387029D01*
X634494Y387001D01*
X634368Y386965D01*
X634239Y386939D01*
X634064Y386879D01*
X633886Y386828D01*
X633765Y386777D01*
X633641Y386734D01*
X633475Y386653D01*
X633304Y386580D01*
X633191Y386514D01*
X633074Y386456D01*
X632919Y386354D01*
X632759Y386260D01*
X632655Y386180D01*
X632546Y386109D01*
X632405Y385988D01*
X632258Y385875D01*
X632165Y385782D01*
X632066Y385697D01*
X631942Y385560D01*
X631810Y385429D01*
X631730Y385325D01*
X631642Y385228D01*
X631536Y385076D01*
X631422Y384930D01*
X631355Y384817D01*
X631280Y384710D01*
X631194Y384546D01*
X631100Y384386D01*
X631048Y384266D01*
X630987Y384150D01*
X630903Y383932D01*
X630849Y383806D01*
X630830Y383741D01*
X630799Y383660D01*
X630775Y383585D01*
X630121Y382303D01*
X629275Y381139D01*
X628257Y380121D01*
X627299Y379425D01*
X627299Y393700D01*
X627299Y407975D01*
X628257Y407279D01*
X629275Y406261D01*
X630121Y405097D01*
X630775Y403815D01*
X630799Y403740D01*
X630847Y403618D01*
X630886Y403494D01*
X630963Y403325D01*
X631032Y403153D01*
X631095Y403038D01*
X631149Y402919D01*
X631247Y402761D01*
X631337Y402599D01*
X631414Y402493D01*
X631483Y402382D01*
X631600Y402238D01*
X631710Y402088D01*
X631799Y401993D01*
X631882Y401892D01*
X632016Y401764D01*
X632144Y401629D01*
X632245Y401546D01*
X632339Y401456D01*
X632489Y401346D01*
X632632Y401228D01*
X632743Y401158D01*
X632848Y401081D01*
X633010Y400990D01*
X633167Y400892D01*
X633286Y400837D01*
X633400Y400773D01*
X633572Y400704D01*
X633741Y400626D01*
X633866Y400586D01*
X633987Y400537D01*
X634167Y400490D01*
X634343Y400434D01*
X634472Y400411D01*
X634599Y400378D01*
X634783Y400354D01*
X634965Y400320D01*
X635096Y400313D01*
X635225Y400296D01*
X635411Y400296D01*
X635596Y400286D01*
X635727Y400295D01*
X635858Y400295D01*
X636042Y400318D01*
X636227Y400331D01*
X636355Y400357D01*
X636485Y400373D01*
X636664Y400419D01*
X636846Y400456D01*
X636970Y400497D01*
X637097Y400530D01*
X637270Y400598D01*
X637445Y400657D01*
X637563Y400714D01*
X637685Y400763D01*
X637847Y400852D01*
X638014Y400933D01*
X638124Y401005D01*
X638238Y401068D01*
X638388Y401177D01*
X638544Y401278D01*
X638643Y401363D01*
X638749Y401440D01*
X638884Y401567D01*
X639025Y401688D01*
X639113Y401784D01*
X639209Y401874D01*
X639326Y402017D01*
X639451Y402154D01*
X639527Y402262D01*
X639610Y402363D01*
X639708Y402520D01*
X639815Y402671D01*
X639876Y402787D01*
X639946Y402898D01*
X640047Y403108D01*
X640111Y403230D01*
X640135Y403293D01*
X640172Y403372D01*
X640809Y404909D01*
X643095Y407195D01*
X646083Y408433D01*
X649317Y408433D01*
X652305Y407195D01*
X654591Y404909D01*
X655781Y402035D01*
X655892Y401810D01*
X655996Y401583D01*
X656031Y401527D01*
X656060Y401468D01*
X656197Y401259D01*
X656330Y401046D01*
X656371Y400995D01*
X656407Y400940D01*
X656571Y400750D01*
X656729Y400555D01*
X656776Y400510D01*
X656819Y400460D01*
X657005Y400292D01*
X657186Y400119D01*
X657239Y400080D01*
X657288Y400036D01*
X657493Y399893D01*
X657695Y399744D01*
X657753Y399712D01*
X657806Y399675D01*
X658028Y399559D01*
X658247Y399437D01*
X658308Y399412D01*
X658366Y399382D01*
X658601Y399294D01*
X658834Y399201D01*
X658897Y399184D01*
X658959Y399162D01*
X659203Y399105D01*
X659445Y399041D01*
X659510Y399033D01*
X659574Y399018D01*
X659824Y398992D01*
X660072Y398960D01*
X660138Y398960D01*
X660203Y398953D01*
X660454Y398959D01*
X660704Y398959D01*
X660769Y398967D01*
X660835Y398968D01*
X661082Y399006D01*
X661331Y399037D01*
X661395Y399053D01*
X661460Y399063D01*
X661701Y399131D01*
X661944Y399194D01*
X662005Y399218D01*
X662068Y399236D01*
X662298Y399334D01*
X662531Y399426D01*
X662589Y399458D01*
X662649Y399484D01*
X662866Y399611D01*
X663085Y399731D01*
X663138Y399770D01*
X663195Y399803D01*
X663394Y399957D01*
X663596Y400104D01*
X663643Y400149D01*
X663695Y400189D01*
X663873Y400366D01*
X664055Y400538D01*
X664097Y400589D01*
X664143Y400635D01*
X664297Y400833D01*
X664456Y401026D01*
X664491Y401082D01*
X664532Y401134D01*
X664659Y401349D01*
X664793Y401562D01*
X664824Y401628D01*
X664854Y401678D01*
X664909Y401806D01*
X665019Y402035D01*
X666209Y404909D01*
X668495Y407195D01*
X671483Y408433D01*
X674717Y408433D01*
X677705Y407195D01*
X679991Y404909D01*
X681229Y401921D01*
X681229Y385479D01*
X679991Y382491D01*
X677705Y380205D01*
X674717Y378967D01*
X671483Y378967D01*
X668495Y380205D01*
X666209Y382491D01*
X665019Y385365D01*
X664908Y385590D01*
X664804Y385817D01*
X664769Y385873D01*
X664740Y385932D01*
X664602Y386142D01*
X664470Y386354D01*
X664429Y386405D01*
X664393Y386460D01*
X664229Y386650D01*
X664072Y386844D01*
X664024Y386890D01*
X663981Y386940D01*
X663795Y387108D01*
X663614Y387281D01*
X663561Y387320D01*
X663512Y387364D01*
X663307Y387507D01*
X663105Y387656D01*
X663048Y387688D01*
X662994Y387725D01*
X662772Y387841D01*
X662553Y387963D01*
X662492Y387988D01*
X662434Y388018D01*
X662200Y388105D01*
X661967Y388199D01*
X661903Y388216D01*
X661841Y388238D01*
X661598Y388295D01*
X661355Y388359D01*
X661290Y388367D01*
X661226Y388382D01*
X660976Y388408D01*
X660728Y388440D01*
X660662Y388440D01*
X660597Y388447D01*
X660347Y388441D01*
X660096Y388441D01*
X660031Y388433D01*
X659965Y388432D01*
X659718Y388394D01*
X659469Y388363D01*
X659405Y388347D01*
X659340Y388337D01*
X659099Y388269D01*
X658856Y388206D01*
X658795Y388182D01*
X658732Y388164D01*
X658501Y388066D01*
X658269Y387974D01*
X658211Y387942D01*
X658151Y387916D01*
X657935Y387790D01*
X657715Y387669D01*
X657662Y387630D01*
X657605Y387597D01*
X657408Y387444D01*
X657204Y387296D01*
X657157Y387251D01*
X657105Y387211D01*
X656927Y387035D01*
X656745Y386862D01*
X656703Y386811D01*
X656657Y386765D01*
X656503Y386568D01*
X656344Y386374D01*
X656309Y386318D01*
X656268Y386266D01*
X656141Y386051D01*
X656007Y385838D01*
X655976Y385772D01*
X655946Y385722D01*
X655891Y385594D01*
X655781Y385365D01*
X654591Y382491D01*
X652305Y380205D01*
X649317Y378967D01*
X646083Y378967D01*
G37*
%LPD*%
%LPC*%
G36*
X38100Y411399D02*
X38100Y411399D01*
X21624Y411399D01*
X21790Y411725D01*
X22730Y413019D01*
X23861Y414150D01*
X25155Y415090D01*
X25254Y415141D01*
X25301Y415169D01*
X25351Y415191D01*
X25572Y415329D01*
X25798Y415463D01*
X25841Y415496D01*
X25887Y415525D01*
X26091Y415690D01*
X26297Y415851D01*
X26335Y415889D01*
X26378Y415924D01*
X26559Y416114D01*
X26743Y416299D01*
X26776Y416342D01*
X26814Y416381D01*
X26969Y416592D01*
X27129Y416800D01*
X27157Y416847D01*
X27189Y416890D01*
X27316Y417119D01*
X27449Y417345D01*
X27470Y417395D01*
X27497Y417442D01*
X27594Y417685D01*
X27697Y417926D01*
X27712Y417979D01*
X27732Y418029D01*
X27798Y418282D01*
X27870Y418534D01*
X27878Y418588D01*
X27892Y418641D01*
X27925Y418900D01*
X27965Y419159D01*
X27966Y419213D01*
X27973Y419267D01*
X27974Y419529D01*
X27980Y419791D01*
X27974Y419845D01*
X27975Y419900D01*
X27942Y420159D01*
X27915Y420420D01*
X27903Y420473D01*
X27896Y420527D01*
X27832Y420780D01*
X27772Y421035D01*
X27753Y421086D01*
X27740Y421139D01*
X27643Y421382D01*
X27552Y421628D01*
X27527Y421676D01*
X27507Y421727D01*
X27381Y421956D01*
X27259Y422188D01*
X27228Y422233D01*
X27202Y422280D01*
X27047Y422492D01*
X26898Y422707D01*
X26861Y422747D01*
X26829Y422791D01*
X26649Y422982D01*
X26474Y423176D01*
X26433Y423211D01*
X26395Y423251D01*
X26193Y423417D01*
X25994Y423587D01*
X25949Y423617D01*
X25907Y423652D01*
X25685Y423791D01*
X25466Y423935D01*
X25418Y423959D01*
X25371Y423988D01*
X25348Y423999D01*
X22727Y426620D01*
X21335Y429981D01*
X21335Y433619D01*
X22727Y436980D01*
X25300Y439553D01*
X28661Y440945D01*
X47539Y440945D01*
X50900Y439553D01*
X53473Y436980D01*
X54865Y433619D01*
X54865Y429981D01*
X53473Y426620D01*
X50840Y423987D01*
X50735Y423936D01*
X50689Y423906D01*
X50641Y423881D01*
X50426Y423732D01*
X50207Y423588D01*
X50166Y423553D01*
X50121Y423522D01*
X49926Y423347D01*
X49727Y423177D01*
X49691Y423136D01*
X49650Y423100D01*
X49479Y422902D01*
X49303Y422708D01*
X49272Y422663D01*
X49236Y422622D01*
X49091Y422404D01*
X48942Y422189D01*
X48916Y422141D01*
X48886Y422096D01*
X48770Y421861D01*
X48649Y421629D01*
X48630Y421578D01*
X48605Y421529D01*
X48520Y421282D01*
X48428Y421037D01*
X48416Y420984D01*
X48398Y420932D01*
X48344Y420676D01*
X48285Y420421D01*
X48279Y420367D01*
X48268Y420314D01*
X48247Y420053D01*
X48220Y419792D01*
X48221Y419738D01*
X48217Y419684D01*
X48229Y419423D01*
X48235Y419161D01*
X48243Y419107D01*
X48246Y419052D01*
X48290Y418795D01*
X48330Y418536D01*
X48345Y418483D01*
X48354Y418430D01*
X48431Y418180D01*
X48503Y417928D01*
X48524Y417877D01*
X48540Y417825D01*
X48648Y417587D01*
X48751Y417346D01*
X48778Y417299D01*
X48801Y417250D01*
X48938Y417027D01*
X49070Y416801D01*
X49103Y416758D01*
X49132Y416711D01*
X49296Y416507D01*
X49456Y416300D01*
X49494Y416261D01*
X49529Y416219D01*
X49717Y416038D01*
X49902Y415852D01*
X49945Y415819D01*
X49984Y415781D01*
X50194Y415625D01*
X50401Y415464D01*
X50447Y415436D01*
X50491Y415404D01*
X50941Y415144D01*
X50944Y415142D01*
X50945Y415142D01*
X50946Y415141D01*
X51045Y415090D01*
X52339Y414150D01*
X53470Y413019D01*
X54410Y411725D01*
X54576Y411399D01*
X38100Y411399D01*
X38100Y411399D01*
G37*
%LPD*%
%LPC*%
G36*
X38100Y297099D02*
X38100Y297099D01*
X21624Y297099D01*
X21790Y297425D01*
X22730Y298719D01*
X23861Y299850D01*
X25155Y300790D01*
X25254Y300841D01*
X25301Y300869D01*
X25351Y300891D01*
X25572Y301029D01*
X25798Y301163D01*
X25841Y301196D01*
X25887Y301225D01*
X26091Y301390D01*
X26297Y301551D01*
X26335Y301589D01*
X26378Y301624D01*
X26559Y301814D01*
X26743Y301999D01*
X26776Y302042D01*
X26814Y302081D01*
X26969Y302292D01*
X27129Y302500D01*
X27157Y302547D01*
X27189Y302590D01*
X27316Y302819D01*
X27449Y303045D01*
X27470Y303095D01*
X27497Y303142D01*
X27594Y303385D01*
X27697Y303626D01*
X27712Y303679D01*
X27732Y303729D01*
X27798Y303981D01*
X27870Y304234D01*
X27878Y304288D01*
X27892Y304341D01*
X27925Y304600D01*
X27965Y304859D01*
X27966Y304913D01*
X27973Y304967D01*
X27974Y305229D01*
X27980Y305491D01*
X27974Y305545D01*
X27975Y305600D01*
X27942Y305859D01*
X27915Y306120D01*
X27903Y306173D01*
X27896Y306227D01*
X27832Y306480D01*
X27772Y306735D01*
X27753Y306786D01*
X27740Y306839D01*
X27643Y307082D01*
X27552Y307328D01*
X27527Y307376D01*
X27507Y307427D01*
X27381Y307656D01*
X27259Y307888D01*
X27228Y307933D01*
X27202Y307980D01*
X27047Y308192D01*
X26898Y308407D01*
X26861Y308447D01*
X26829Y308491D01*
X26649Y308682D01*
X26474Y308876D01*
X26433Y308911D01*
X26395Y308951D01*
X26193Y309117D01*
X25994Y309287D01*
X25949Y309317D01*
X25907Y309352D01*
X25685Y309491D01*
X25466Y309635D01*
X25418Y309659D01*
X25371Y309688D01*
X25348Y309699D01*
X22727Y312320D01*
X21335Y315681D01*
X21335Y319319D01*
X22727Y322680D01*
X25300Y325253D01*
X28661Y326645D01*
X47539Y326645D01*
X50900Y325253D01*
X53473Y322680D01*
X54865Y319319D01*
X54865Y315681D01*
X53473Y312320D01*
X50840Y309687D01*
X50735Y309636D01*
X50689Y309606D01*
X50641Y309581D01*
X50426Y309432D01*
X50207Y309288D01*
X50166Y309253D01*
X50121Y309222D01*
X49926Y309047D01*
X49727Y308877D01*
X49691Y308836D01*
X49650Y308800D01*
X49479Y308602D01*
X49303Y308408D01*
X49272Y308363D01*
X49236Y308322D01*
X49091Y308104D01*
X48942Y307889D01*
X48916Y307841D01*
X48886Y307796D01*
X48770Y307561D01*
X48649Y307329D01*
X48630Y307278D01*
X48605Y307229D01*
X48520Y306982D01*
X48428Y306737D01*
X48416Y306684D01*
X48398Y306632D01*
X48344Y306376D01*
X48285Y306121D01*
X48279Y306067D01*
X48268Y306014D01*
X48247Y305753D01*
X48220Y305492D01*
X48221Y305438D01*
X48217Y305384D01*
X48229Y305123D01*
X48235Y304861D01*
X48243Y304807D01*
X48246Y304752D01*
X48290Y304495D01*
X48330Y304236D01*
X48345Y304183D01*
X48354Y304130D01*
X48431Y303879D01*
X48503Y303628D01*
X48524Y303577D01*
X48540Y303525D01*
X48648Y303287D01*
X48751Y303046D01*
X48778Y302999D01*
X48801Y302950D01*
X48938Y302727D01*
X49070Y302501D01*
X49103Y302458D01*
X49132Y302411D01*
X49296Y302207D01*
X49456Y302000D01*
X49494Y301961D01*
X49529Y301919D01*
X49717Y301738D01*
X49902Y301552D01*
X49945Y301519D01*
X49984Y301481D01*
X50194Y301325D01*
X50401Y301164D01*
X50447Y301136D01*
X50491Y301104D01*
X50941Y300844D01*
X50944Y300842D01*
X50945Y300842D01*
X50946Y300841D01*
X51045Y300790D01*
X52339Y299850D01*
X53470Y298719D01*
X54410Y297425D01*
X54576Y297099D01*
X38100Y297099D01*
X38100Y297099D01*
G37*
%LPD*%
%LPC*%
G36*
X328381Y580135D02*
X328381Y580135D01*
X325020Y581527D01*
X322387Y584160D01*
X322336Y584265D01*
X322306Y584311D01*
X322281Y584359D01*
X322132Y584575D01*
X321988Y584793D01*
X321953Y584834D01*
X321922Y584879D01*
X321747Y585074D01*
X321577Y585273D01*
X321536Y585309D01*
X321500Y585350D01*
X321302Y585521D01*
X321108Y585697D01*
X321063Y585728D01*
X321022Y585764D01*
X320804Y585908D01*
X320589Y586058D01*
X320541Y586084D01*
X320496Y586114D01*
X320261Y586230D01*
X320029Y586351D01*
X319978Y586370D01*
X319929Y586395D01*
X319681Y586481D01*
X319437Y586572D01*
X319384Y586584D01*
X319332Y586602D01*
X319076Y586656D01*
X318821Y586715D01*
X318767Y586721D01*
X318714Y586732D01*
X318454Y586753D01*
X318193Y586780D01*
X318138Y586779D01*
X318084Y586783D01*
X317822Y586771D01*
X317561Y586765D01*
X317507Y586757D01*
X317452Y586754D01*
X317195Y586710D01*
X316936Y586670D01*
X316883Y586655D01*
X316829Y586646D01*
X316579Y586569D01*
X316328Y586498D01*
X316278Y586476D01*
X316225Y586460D01*
X315987Y586352D01*
X315746Y586249D01*
X315699Y586222D01*
X315649Y586199D01*
X315427Y586062D01*
X315201Y585930D01*
X315158Y585897D01*
X315111Y585868D01*
X314908Y585704D01*
X314700Y585544D01*
X314661Y585506D01*
X314619Y585471D01*
X314438Y585283D01*
X314252Y585098D01*
X314219Y585055D01*
X314181Y585016D01*
X314025Y584806D01*
X313864Y584599D01*
X313836Y584552D01*
X313803Y584509D01*
X313545Y584062D01*
X313542Y584056D01*
X313541Y584055D01*
X313541Y584054D01*
X313490Y583954D01*
X312550Y582661D01*
X311419Y581530D01*
X310125Y580590D01*
X309799Y580424D01*
X309799Y596900D01*
X309799Y613376D01*
X310125Y613210D01*
X311419Y612270D01*
X312550Y611139D01*
X313490Y609845D01*
X313541Y609746D01*
X313569Y609699D01*
X313591Y609649D01*
X313729Y609428D01*
X313863Y609202D01*
X313896Y609159D01*
X313925Y609113D01*
X314090Y608909D01*
X314251Y608703D01*
X314289Y608665D01*
X314324Y608622D01*
X314514Y608441D01*
X314699Y608257D01*
X314742Y608224D01*
X314781Y608186D01*
X314992Y608031D01*
X315200Y607871D01*
X315247Y607843D01*
X315290Y607811D01*
X315519Y607684D01*
X315745Y607551D01*
X315795Y607530D01*
X315842Y607503D01*
X316085Y607406D01*
X316326Y607303D01*
X316379Y607288D01*
X316429Y607268D01*
X316682Y607202D01*
X316934Y607130D01*
X316988Y607122D01*
X317041Y607108D01*
X317300Y607075D01*
X317559Y607035D01*
X317613Y607034D01*
X317667Y607027D01*
X317929Y607026D01*
X318191Y607020D01*
X318245Y607026D01*
X318300Y607025D01*
X318559Y607058D01*
X318820Y607085D01*
X318873Y607097D01*
X318927Y607104D01*
X319181Y607169D01*
X319435Y607228D01*
X319486Y607247D01*
X319539Y607260D01*
X319782Y607357D01*
X320028Y607448D01*
X320076Y607473D01*
X320127Y607493D01*
X320356Y607619D01*
X320588Y607741D01*
X320633Y607772D01*
X320680Y607798D01*
X320892Y607953D01*
X321107Y608102D01*
X321147Y608139D01*
X321191Y608171D01*
X321382Y608351D01*
X321576Y608526D01*
X321611Y608567D01*
X321651Y608605D01*
X321817Y608807D01*
X321987Y609006D01*
X322017Y609051D01*
X322052Y609093D01*
X322191Y609315D01*
X322335Y609534D01*
X322359Y609582D01*
X322388Y609629D01*
X322399Y609652D01*
X325020Y612273D01*
X328381Y613665D01*
X332019Y613665D01*
X335380Y612273D01*
X337953Y609700D01*
X339345Y606339D01*
X339345Y587461D01*
X337953Y584100D01*
X335380Y581527D01*
X332019Y580135D01*
X328381Y580135D01*
G37*
%LPD*%
%LPC*%
G36*
X277581Y580135D02*
X277581Y580135D01*
X274220Y581527D01*
X271647Y584100D01*
X270255Y587461D01*
X270255Y606339D01*
X271647Y609700D01*
X274220Y612273D01*
X277581Y613665D01*
X281219Y613665D01*
X284580Y612273D01*
X287213Y609640D01*
X287264Y609535D01*
X287294Y609489D01*
X287319Y609441D01*
X287468Y609225D01*
X287612Y609007D01*
X287647Y608966D01*
X287678Y608921D01*
X287853Y608726D01*
X288023Y608527D01*
X288064Y608491D01*
X288100Y608450D01*
X288298Y608279D01*
X288492Y608103D01*
X288537Y608072D01*
X288578Y608036D01*
X288796Y607892D01*
X289011Y607742D01*
X289059Y607716D01*
X289104Y607686D01*
X289339Y607570D01*
X289571Y607449D01*
X289622Y607430D01*
X289671Y607405D01*
X289919Y607319D01*
X290163Y607228D01*
X290216Y607216D01*
X290268Y607198D01*
X290524Y607144D01*
X290779Y607085D01*
X290833Y607079D01*
X290886Y607068D01*
X291146Y607047D01*
X291407Y607020D01*
X291462Y607021D01*
X291516Y607017D01*
X291778Y607029D01*
X292039Y607035D01*
X292093Y607043D01*
X292148Y607046D01*
X292405Y607090D01*
X292664Y607130D01*
X292717Y607145D01*
X292771Y607154D01*
X293021Y607231D01*
X293272Y607302D01*
X293322Y607324D01*
X293375Y607340D01*
X293613Y607448D01*
X293854Y607551D01*
X293901Y607578D01*
X293951Y607601D01*
X294173Y607738D01*
X294399Y607870D01*
X294442Y607903D01*
X294489Y607932D01*
X294692Y608096D01*
X294900Y608256D01*
X294939Y608294D01*
X294981Y608329D01*
X295162Y608517D01*
X295348Y608702D01*
X295381Y608745D01*
X295419Y608784D01*
X295575Y608994D01*
X295736Y609201D01*
X295764Y609248D01*
X295797Y609291D01*
X296055Y609738D01*
X296058Y609744D01*
X296059Y609745D01*
X296059Y609746D01*
X296110Y609846D01*
X297050Y611139D01*
X298181Y612270D01*
X299475Y613210D01*
X299801Y613376D01*
X299801Y596900D01*
X299801Y580424D01*
X299475Y580590D01*
X298181Y581530D01*
X297050Y582661D01*
X296110Y583954D01*
X296059Y584054D01*
X296031Y584101D01*
X296009Y584151D01*
X295871Y584373D01*
X295737Y584598D01*
X295704Y584641D01*
X295675Y584687D01*
X295509Y584891D01*
X295349Y585097D01*
X295310Y585135D01*
X295276Y585178D01*
X295086Y585359D01*
X294901Y585543D01*
X294858Y585576D01*
X294818Y585614D01*
X294608Y585769D01*
X294401Y585929D01*
X294353Y585957D01*
X294310Y585989D01*
X294081Y586116D01*
X293855Y586249D01*
X293805Y586270D01*
X293757Y586297D01*
X293514Y586394D01*
X293274Y586497D01*
X293222Y586512D01*
X293171Y586532D01*
X292918Y586598D01*
X292666Y586670D01*
X292612Y586678D01*
X292559Y586692D01*
X292300Y586726D01*
X292041Y586765D01*
X291987Y586766D01*
X291932Y586773D01*
X291671Y586774D01*
X291409Y586780D01*
X291355Y586774D01*
X291300Y586775D01*
X291041Y586742D01*
X290780Y586715D01*
X290727Y586703D01*
X290673Y586696D01*
X290420Y586632D01*
X290165Y586572D01*
X290114Y586553D01*
X290061Y586540D01*
X289817Y586443D01*
X289572Y586352D01*
X289524Y586327D01*
X289473Y586307D01*
X289244Y586181D01*
X289012Y586059D01*
X288967Y586028D01*
X288920Y586002D01*
X288709Y585848D01*
X288493Y585698D01*
X288453Y585661D01*
X288409Y585629D01*
X288219Y585450D01*
X288025Y585274D01*
X287989Y585232D01*
X287949Y585195D01*
X287784Y584993D01*
X287613Y584794D01*
X287583Y584749D01*
X287548Y584707D01*
X287409Y584486D01*
X287265Y584267D01*
X287241Y584218D01*
X287212Y584171D01*
X287201Y584148D01*
X284580Y581527D01*
X281219Y580135D01*
X277581Y580135D01*
G37*
%LPD*%
%LPC*%
G36*
X814662Y383222D02*
X814662Y383222D01*
X810811Y384817D01*
X807863Y387765D01*
X806268Y391616D01*
X806268Y395784D01*
X807863Y399635D01*
X810811Y402583D01*
X814662Y404178D01*
X836738Y404178D01*
X840589Y402583D01*
X843537Y399635D01*
X845132Y395784D01*
X845132Y391616D01*
X843537Y387765D01*
X840589Y384817D01*
X836738Y383222D01*
X814662Y383222D01*
G37*
%LPD*%
%LPC*%
G36*
X814662Y180022D02*
X814662Y180022D01*
X810811Y181617D01*
X807863Y184565D01*
X806268Y188416D01*
X806268Y192584D01*
X807863Y196435D01*
X810811Y199383D01*
X814662Y200978D01*
X836738Y200978D01*
X840589Y199383D01*
X843537Y196435D01*
X845132Y192584D01*
X845132Y188416D01*
X843537Y184565D01*
X840589Y181617D01*
X836738Y180022D01*
X814662Y180022D01*
G37*
%LPD*%
%LPC*%
G36*
X814662Y230022D02*
X814662Y230022D01*
X810811Y231617D01*
X807863Y234565D01*
X806268Y238416D01*
X806268Y242584D01*
X807863Y246435D01*
X810811Y249383D01*
X814662Y250978D01*
X836738Y250978D01*
X840589Y249383D01*
X843537Y246435D01*
X845132Y242584D01*
X845132Y238416D01*
X843537Y234565D01*
X840589Y231617D01*
X836738Y230022D01*
X814662Y230022D01*
G37*
%LPD*%
%LPC*%
G36*
X814662Y433222D02*
X814662Y433222D01*
X810811Y434817D01*
X807863Y437765D01*
X806268Y441616D01*
X806268Y445784D01*
X807863Y449635D01*
X810811Y452583D01*
X814662Y454178D01*
X836738Y454178D01*
X840589Y452583D01*
X843537Y449635D01*
X845132Y445784D01*
X845132Y441616D01*
X843537Y437765D01*
X840589Y434817D01*
X836738Y433222D01*
X814662Y433222D01*
G37*
%LPD*%
%LPC*%
G36*
X667997Y528192D02*
X667997Y528192D01*
X660780Y535409D01*
X660780Y545615D01*
X667997Y552832D01*
X678203Y552832D01*
X685420Y545615D01*
X685420Y535409D01*
X678203Y528192D01*
X667997Y528192D01*
G37*
%LPD*%
%LPC*%
G36*
X667997Y463168D02*
X667997Y463168D01*
X660780Y470385D01*
X660780Y480591D01*
X667997Y487808D01*
X678203Y487808D01*
X685420Y480591D01*
X685420Y470385D01*
X678203Y463168D01*
X667997Y463168D01*
G37*
%LPD*%
%LPC*%
G36*
X326833Y144271D02*
X326833Y144271D01*
X321753Y149351D01*
X321615Y149473D01*
X321482Y149602D01*
X321378Y149682D01*
X321279Y149769D01*
X321126Y149872D01*
X320979Y149984D01*
X320865Y150050D01*
X320756Y150123D01*
X320591Y150207D01*
X320430Y150299D01*
X320309Y150350D01*
X320192Y150409D01*
X320018Y150471D01*
X319847Y150542D01*
X319720Y150577D01*
X319597Y150621D01*
X319416Y150661D01*
X319238Y150710D01*
X319107Y150729D01*
X318979Y150757D01*
X318795Y150773D01*
X318612Y150800D01*
X318480Y150802D01*
X318350Y150813D01*
X318165Y150807D01*
X317980Y150809D01*
X317849Y150795D01*
X317718Y150790D01*
X317536Y150760D01*
X317352Y150739D01*
X317224Y150708D01*
X317094Y150687D01*
X316917Y150634D01*
X316737Y150591D01*
X316614Y150544D01*
X316489Y150506D01*
X316320Y150431D01*
X316147Y150366D01*
X316031Y150304D01*
X315911Y150251D01*
X315752Y150155D01*
X315589Y150068D01*
X315482Y149992D01*
X315369Y149924D01*
X315224Y149809D01*
X315074Y149702D01*
X314959Y149599D01*
X314874Y149532D01*
X314798Y149454D01*
X314683Y149351D01*
X309799Y144467D01*
X309799Y152400D01*
X309799Y160333D01*
X314683Y155449D01*
X314822Y155327D01*
X314954Y155198D01*
X315059Y155118D01*
X315158Y155031D01*
X315311Y154928D01*
X315458Y154816D01*
X315572Y154750D01*
X315681Y154677D01*
X315846Y154593D01*
X316006Y154501D01*
X316128Y154450D01*
X316245Y154391D01*
X316419Y154329D01*
X316590Y154258D01*
X316716Y154223D01*
X316840Y154179D01*
X317021Y154139D01*
X317199Y154090D01*
X317329Y154071D01*
X317458Y154043D01*
X317641Y154027D01*
X317825Y154000D01*
X317956Y153998D01*
X318087Y153987D01*
X318272Y153993D01*
X318457Y153991D01*
X318587Y154005D01*
X318719Y154010D01*
X318901Y154040D01*
X319085Y154061D01*
X319213Y154092D01*
X319342Y154113D01*
X319520Y154166D01*
X319699Y154209D01*
X319822Y154256D01*
X319948Y154294D01*
X320117Y154369D01*
X320290Y154434D01*
X320406Y154496D01*
X320526Y154549D01*
X320685Y154645D01*
X320848Y154732D01*
X320955Y154808D01*
X321067Y154876D01*
X321212Y154991D01*
X321363Y155098D01*
X321477Y155201D01*
X321563Y155268D01*
X321639Y155346D01*
X321753Y155449D01*
X326833Y160529D01*
X333567Y160529D01*
X338329Y155767D01*
X338329Y149033D01*
X333567Y144271D01*
X326833Y144271D01*
G37*
%LPD*%
%LPC*%
G36*
X203200Y563799D02*
X203200Y563799D01*
X195267Y563799D01*
X200151Y568683D01*
X200273Y568822D01*
X200402Y568954D01*
X200482Y569059D01*
X200569Y569158D01*
X200672Y569311D01*
X200784Y569458D01*
X200850Y569572D01*
X200923Y569681D01*
X201007Y569846D01*
X201099Y570006D01*
X201150Y570128D01*
X201209Y570245D01*
X201271Y570419D01*
X201342Y570590D01*
X201377Y570716D01*
X201421Y570840D01*
X201461Y571021D01*
X201510Y571199D01*
X201529Y571329D01*
X201557Y571458D01*
X201573Y571641D01*
X201600Y571825D01*
X201602Y571956D01*
X201613Y572087D01*
X201607Y572272D01*
X201609Y572457D01*
X201595Y572587D01*
X201590Y572719D01*
X201560Y572901D01*
X201539Y573085D01*
X201508Y573213D01*
X201487Y573342D01*
X201434Y573519D01*
X201391Y573699D01*
X201344Y573822D01*
X201306Y573948D01*
X201231Y574117D01*
X201166Y574290D01*
X201104Y574406D01*
X201051Y574526D01*
X200955Y574685D01*
X200868Y574848D01*
X200792Y574955D01*
X200724Y575067D01*
X200609Y575212D01*
X200502Y575363D01*
X200399Y575477D01*
X200332Y575563D01*
X200254Y575639D01*
X200151Y575753D01*
X195071Y580833D01*
X195071Y587567D01*
X199833Y592329D01*
X206567Y592329D01*
X211329Y587567D01*
X211329Y580833D01*
X206249Y575753D01*
X206127Y575615D01*
X205998Y575482D01*
X205918Y575378D01*
X205831Y575279D01*
X205728Y575126D01*
X205616Y574979D01*
X205550Y574864D01*
X205477Y574756D01*
X205393Y574591D01*
X205301Y574431D01*
X205250Y574309D01*
X205191Y574192D01*
X205129Y574018D01*
X205058Y573847D01*
X205023Y573720D01*
X204979Y573597D01*
X204939Y573416D01*
X204890Y573238D01*
X204871Y573107D01*
X204843Y572979D01*
X204827Y572795D01*
X204800Y572612D01*
X204798Y572480D01*
X204787Y572350D01*
X204793Y572165D01*
X204791Y571980D01*
X204805Y571849D01*
X204810Y571718D01*
X204840Y571536D01*
X204861Y571352D01*
X204892Y571224D01*
X204913Y571094D01*
X204966Y570917D01*
X205009Y570737D01*
X205056Y570615D01*
X205094Y570489D01*
X205169Y570319D01*
X205234Y570147D01*
X205296Y570031D01*
X205349Y569911D01*
X205445Y569752D01*
X205532Y569589D01*
X205608Y569482D01*
X205676Y569370D01*
X205791Y569224D01*
X205898Y569074D01*
X206001Y568960D01*
X206068Y568874D01*
X206146Y568798D01*
X206249Y568683D01*
X211133Y563799D01*
X203200Y563799D01*
X203200Y563799D01*
G37*
%LPD*%
%LPC*%
G36*
X406400Y563799D02*
X406400Y563799D01*
X398467Y563799D01*
X403351Y568683D01*
X403473Y568822D01*
X403602Y568954D01*
X403682Y569059D01*
X403769Y569158D01*
X403872Y569311D01*
X403984Y569458D01*
X404050Y569572D01*
X404123Y569681D01*
X404207Y569846D01*
X404299Y570006D01*
X404350Y570128D01*
X404409Y570245D01*
X404471Y570419D01*
X404542Y570590D01*
X404577Y570716D01*
X404621Y570840D01*
X404661Y571021D01*
X404710Y571199D01*
X404729Y571329D01*
X404757Y571458D01*
X404773Y571641D01*
X404800Y571825D01*
X404802Y571956D01*
X404813Y572087D01*
X404807Y572272D01*
X404809Y572457D01*
X404795Y572587D01*
X404790Y572719D01*
X404760Y572901D01*
X404739Y573085D01*
X404708Y573213D01*
X404687Y573342D01*
X404634Y573519D01*
X404591Y573699D01*
X404544Y573822D01*
X404506Y573948D01*
X404431Y574117D01*
X404366Y574290D01*
X404304Y574406D01*
X404251Y574526D01*
X404155Y574685D01*
X404068Y574848D01*
X403992Y574955D01*
X403924Y575067D01*
X403809Y575212D01*
X403702Y575363D01*
X403599Y575477D01*
X403532Y575563D01*
X403454Y575639D01*
X403351Y575753D01*
X398271Y580833D01*
X398271Y587567D01*
X403033Y592329D01*
X409767Y592329D01*
X414529Y587567D01*
X414529Y580833D01*
X409449Y575753D01*
X409327Y575615D01*
X409198Y575482D01*
X409118Y575378D01*
X409031Y575279D01*
X408928Y575126D01*
X408816Y574979D01*
X408750Y574864D01*
X408677Y574756D01*
X408593Y574591D01*
X408501Y574431D01*
X408450Y574309D01*
X408391Y574192D01*
X408329Y574018D01*
X408258Y573847D01*
X408223Y573720D01*
X408179Y573597D01*
X408139Y573416D01*
X408090Y573238D01*
X408071Y573107D01*
X408043Y572979D01*
X408027Y572795D01*
X408000Y572612D01*
X407998Y572480D01*
X407987Y572350D01*
X407993Y572165D01*
X407991Y571980D01*
X408005Y571849D01*
X408010Y571718D01*
X408040Y571536D01*
X408061Y571352D01*
X408092Y571224D01*
X408113Y571094D01*
X408166Y570917D01*
X408209Y570737D01*
X408256Y570615D01*
X408294Y570489D01*
X408369Y570319D01*
X408434Y570147D01*
X408496Y570031D01*
X408549Y569911D01*
X408645Y569752D01*
X408732Y569589D01*
X408808Y569482D01*
X408876Y569370D01*
X408991Y569224D01*
X409098Y569074D01*
X409201Y568960D01*
X409268Y568874D01*
X409346Y568798D01*
X409449Y568683D01*
X414333Y563799D01*
X406400Y563799D01*
X406400Y563799D01*
G37*
%LPD*%
%LPC*%
G36*
X326833Y322071D02*
X326833Y322071D01*
X321753Y327151D01*
X321615Y327273D01*
X321482Y327402D01*
X321378Y327482D01*
X321279Y327569D01*
X321126Y327672D01*
X320979Y327784D01*
X320864Y327850D01*
X320756Y327923D01*
X320591Y328007D01*
X320431Y328099D01*
X320309Y328150D01*
X320192Y328209D01*
X320018Y328271D01*
X319847Y328342D01*
X319720Y328377D01*
X319597Y328421D01*
X319416Y328461D01*
X319238Y328510D01*
X319107Y328529D01*
X318979Y328557D01*
X318795Y328573D01*
X318612Y328600D01*
X318480Y328602D01*
X318350Y328613D01*
X318165Y328607D01*
X317980Y328609D01*
X317849Y328595D01*
X317718Y328590D01*
X317536Y328560D01*
X317352Y328539D01*
X317224Y328508D01*
X317094Y328487D01*
X316917Y328434D01*
X316737Y328391D01*
X316615Y328344D01*
X316489Y328306D01*
X316319Y328231D01*
X316147Y328166D01*
X316031Y328104D01*
X315911Y328051D01*
X315752Y327955D01*
X315589Y327868D01*
X315482Y327792D01*
X315370Y327724D01*
X315224Y327609D01*
X315074Y327502D01*
X314960Y327399D01*
X314874Y327332D01*
X314798Y327254D01*
X314683Y327151D01*
X309799Y322267D01*
X309799Y330200D01*
X309799Y338133D01*
X314683Y333249D01*
X314822Y333127D01*
X314954Y332998D01*
X315059Y332918D01*
X315158Y332831D01*
X315311Y332728D01*
X315458Y332616D01*
X315572Y332550D01*
X315681Y332477D01*
X315846Y332393D01*
X316006Y332301D01*
X316128Y332250D01*
X316245Y332191D01*
X316419Y332129D01*
X316590Y332058D01*
X316716Y332023D01*
X316840Y331979D01*
X317021Y331939D01*
X317199Y331890D01*
X317329Y331871D01*
X317458Y331843D01*
X317641Y331827D01*
X317825Y331800D01*
X317956Y331798D01*
X318087Y331787D01*
X318272Y331793D01*
X318457Y331791D01*
X318587Y331805D01*
X318719Y331810D01*
X318901Y331840D01*
X319085Y331861D01*
X319213Y331892D01*
X319342Y331913D01*
X319519Y331966D01*
X319699Y332009D01*
X319822Y332056D01*
X319948Y332094D01*
X320117Y332169D01*
X320290Y332234D01*
X320406Y332296D01*
X320526Y332349D01*
X320685Y332445D01*
X320848Y332532D01*
X320955Y332608D01*
X321067Y332676D01*
X321212Y332791D01*
X321363Y332898D01*
X321477Y333001D01*
X321563Y333068D01*
X321639Y333146D01*
X321753Y333249D01*
X326833Y338329D01*
X333567Y338329D01*
X338329Y333567D01*
X338329Y326833D01*
X333567Y322071D01*
X326833Y322071D01*
G37*
%LPD*%
%LPC*%
G36*
X482600Y566339D02*
X482600Y566339D01*
X474667Y566339D01*
X477011Y568683D01*
X477133Y568822D01*
X477262Y568954D01*
X477342Y569059D01*
X477429Y569158D01*
X477533Y569311D01*
X477644Y569458D01*
X477709Y569572D01*
X477783Y569681D01*
X477867Y569846D01*
X477959Y570006D01*
X478010Y570127D01*
X478069Y570245D01*
X478131Y570419D01*
X478202Y570590D01*
X478237Y570716D01*
X478281Y570840D01*
X478321Y571021D01*
X478370Y571199D01*
X478389Y571329D01*
X478417Y571458D01*
X478433Y571642D01*
X478460Y571825D01*
X478462Y571956D01*
X478473Y572087D01*
X478467Y572272D01*
X478469Y572457D01*
X478455Y572587D01*
X478450Y572719D01*
X478420Y572901D01*
X478399Y573085D01*
X478368Y573213D01*
X478347Y573342D01*
X478294Y573519D01*
X478251Y573699D01*
X478204Y573823D01*
X478166Y573948D01*
X478092Y574117D01*
X478026Y574290D01*
X477964Y574406D01*
X477911Y574526D01*
X477815Y574684D01*
X477728Y574848D01*
X477652Y574955D01*
X477584Y575067D01*
X477469Y575213D01*
X477362Y575363D01*
X477259Y575477D01*
X477192Y575563D01*
X477114Y575639D01*
X477011Y575753D01*
X475709Y577055D01*
X474471Y580043D01*
X474471Y583277D01*
X475709Y586265D01*
X477995Y588551D01*
X480983Y589789D01*
X484217Y589789D01*
X487205Y588551D01*
X489491Y586265D01*
X490729Y583277D01*
X490729Y580043D01*
X489491Y577055D01*
X488189Y575753D01*
X488067Y575615D01*
X487938Y575482D01*
X487858Y575378D01*
X487771Y575279D01*
X487668Y575126D01*
X487556Y574979D01*
X487490Y574865D01*
X487417Y574756D01*
X487333Y574591D01*
X487241Y574430D01*
X487190Y574309D01*
X487131Y574192D01*
X487069Y574018D01*
X486998Y573847D01*
X486963Y573720D01*
X486919Y573597D01*
X486879Y573416D01*
X486830Y573238D01*
X486811Y573107D01*
X486783Y572979D01*
X486767Y572795D01*
X486740Y572612D01*
X486738Y572480D01*
X486727Y572350D01*
X486733Y572165D01*
X486731Y571980D01*
X486745Y571849D01*
X486750Y571718D01*
X486780Y571536D01*
X486801Y571352D01*
X486832Y571224D01*
X486853Y571094D01*
X486906Y570917D01*
X486949Y570737D01*
X486996Y570614D01*
X487034Y570489D01*
X487109Y570319D01*
X487174Y570147D01*
X487236Y570031D01*
X487289Y569911D01*
X487385Y569752D01*
X487472Y569589D01*
X487548Y569482D01*
X487616Y569369D01*
X487731Y569224D01*
X487838Y569074D01*
X487941Y568959D01*
X488008Y568874D01*
X488086Y568798D01*
X488189Y568683D01*
X490533Y566339D01*
X482600Y566339D01*
X482600Y566339D01*
G37*
%LPD*%
%LPC*%
G36*
X127000Y566339D02*
X127000Y566339D01*
X119067Y566339D01*
X121411Y568683D01*
X121533Y568822D01*
X121662Y568954D01*
X121742Y569059D01*
X121829Y569158D01*
X121932Y569311D01*
X122044Y569458D01*
X122110Y569572D01*
X122183Y569681D01*
X122267Y569846D01*
X122359Y570006D01*
X122410Y570128D01*
X122469Y570245D01*
X122531Y570419D01*
X122602Y570590D01*
X122637Y570716D01*
X122681Y570840D01*
X122721Y571021D01*
X122770Y571199D01*
X122789Y571329D01*
X122817Y571458D01*
X122833Y571641D01*
X122860Y571825D01*
X122862Y571956D01*
X122873Y572087D01*
X122867Y572272D01*
X122869Y572457D01*
X122855Y572587D01*
X122850Y572719D01*
X122820Y572901D01*
X122799Y573085D01*
X122768Y573213D01*
X122747Y573342D01*
X122694Y573520D01*
X122651Y573699D01*
X122604Y573822D01*
X122566Y573948D01*
X122491Y574118D01*
X122426Y574290D01*
X122364Y574406D01*
X122311Y574526D01*
X122215Y574685D01*
X122128Y574848D01*
X122052Y574955D01*
X121984Y575067D01*
X121869Y575213D01*
X121762Y575363D01*
X121660Y575477D01*
X121592Y575563D01*
X121513Y575639D01*
X121411Y575753D01*
X120109Y577055D01*
X118871Y580043D01*
X118871Y583277D01*
X120109Y586265D01*
X122395Y588551D01*
X125383Y589789D01*
X128617Y589789D01*
X131605Y588551D01*
X133891Y586265D01*
X135129Y583277D01*
X135129Y580043D01*
X133891Y577055D01*
X132589Y575753D01*
X132467Y575615D01*
X132338Y575482D01*
X132258Y575378D01*
X132171Y575279D01*
X132068Y575126D01*
X131956Y574979D01*
X131890Y574865D01*
X131817Y574756D01*
X131733Y574591D01*
X131641Y574430D01*
X131590Y574309D01*
X131531Y574192D01*
X131469Y574018D01*
X131398Y573847D01*
X131363Y573720D01*
X131319Y573597D01*
X131279Y573416D01*
X131230Y573238D01*
X131211Y573107D01*
X131183Y572979D01*
X131167Y572795D01*
X131140Y572612D01*
X131138Y572480D01*
X131127Y572350D01*
X131133Y572165D01*
X131131Y571980D01*
X131145Y571849D01*
X131150Y571718D01*
X131180Y571536D01*
X131201Y571352D01*
X131232Y571224D01*
X131253Y571094D01*
X131306Y570917D01*
X131349Y570737D01*
X131396Y570614D01*
X131434Y570489D01*
X131509Y570319D01*
X131574Y570147D01*
X131636Y570031D01*
X131689Y569911D01*
X131785Y569752D01*
X131872Y569589D01*
X131948Y569482D01*
X132016Y569369D01*
X132131Y569224D01*
X132238Y569074D01*
X132341Y568959D01*
X132408Y568874D01*
X132486Y568798D01*
X132589Y568683D01*
X134933Y566339D01*
X127000Y566339D01*
X127000Y566339D01*
G37*
%LPD*%
%LPC*%
G36*
X531783Y273811D02*
X531783Y273811D01*
X528795Y275049D01*
X526509Y277335D01*
X525271Y280323D01*
X525271Y283557D01*
X526509Y286545D01*
X527811Y287847D01*
X527933Y287985D01*
X528062Y288118D01*
X528142Y288222D01*
X528229Y288321D01*
X528332Y288474D01*
X528444Y288621D01*
X528510Y288735D01*
X528583Y288844D01*
X528667Y289009D01*
X528759Y289170D01*
X528810Y289291D01*
X528869Y289408D01*
X528931Y289582D01*
X529002Y289753D01*
X529037Y289880D01*
X529081Y290003D01*
X529121Y290184D01*
X529170Y290362D01*
X529189Y290493D01*
X529217Y290621D01*
X529233Y290805D01*
X529260Y290988D01*
X529262Y291120D01*
X529273Y291250D01*
X529267Y291435D01*
X529269Y291620D01*
X529255Y291751D01*
X529250Y291882D01*
X529220Y292064D01*
X529199Y292248D01*
X529168Y292376D01*
X529147Y292506D01*
X529094Y292683D01*
X529051Y292863D01*
X529004Y292986D01*
X528966Y293111D01*
X528891Y293280D01*
X528826Y293453D01*
X528764Y293569D01*
X528711Y293689D01*
X528615Y293848D01*
X528528Y294011D01*
X528452Y294118D01*
X528384Y294231D01*
X528269Y294376D01*
X528162Y294526D01*
X528059Y294641D01*
X527992Y294726D01*
X527914Y294802D01*
X527811Y294917D01*
X525467Y297261D01*
X533400Y297261D01*
X541333Y297261D01*
X538989Y294917D01*
X538867Y294778D01*
X538738Y294646D01*
X538658Y294541D01*
X538571Y294442D01*
X538468Y294289D01*
X538356Y294142D01*
X538290Y294028D01*
X538217Y293919D01*
X538133Y293754D01*
X538041Y293594D01*
X537990Y293472D01*
X537931Y293355D01*
X537869Y293181D01*
X537798Y293010D01*
X537763Y292884D01*
X537719Y292760D01*
X537679Y292579D01*
X537630Y292401D01*
X537611Y292271D01*
X537583Y292142D01*
X537567Y291959D01*
X537540Y291775D01*
X537538Y291644D01*
X537527Y291513D01*
X537533Y291328D01*
X537531Y291143D01*
X537545Y291013D01*
X537550Y290881D01*
X537580Y290699D01*
X537601Y290515D01*
X537632Y290387D01*
X537653Y290258D01*
X537706Y290080D01*
X537749Y289901D01*
X537796Y289778D01*
X537834Y289652D01*
X537909Y289482D01*
X537974Y289310D01*
X538036Y289194D01*
X538089Y289074D01*
X538185Y288915D01*
X538272Y288752D01*
X538348Y288645D01*
X538416Y288533D01*
X538531Y288387D01*
X538638Y288237D01*
X538740Y288123D01*
X538808Y288037D01*
X538887Y287961D01*
X538989Y287847D01*
X540291Y286545D01*
X541529Y283557D01*
X541529Y280323D01*
X540291Y277335D01*
X538005Y275049D01*
X535017Y273811D01*
X531783Y273811D01*
G37*
%LPD*%
%LPC*%
G36*
X212533Y423671D02*
X212533Y423671D01*
X207771Y428433D01*
X207771Y435167D01*
X212533Y439929D01*
X219267Y439929D01*
X224029Y435167D01*
X224029Y428433D01*
X219267Y423671D01*
X212533Y423671D01*
G37*
%LPD*%
%LPC*%
G36*
X110933Y423671D02*
X110933Y423671D01*
X106171Y428433D01*
X106171Y435167D01*
X110933Y439929D01*
X117667Y439929D01*
X122429Y435167D01*
X122429Y428433D01*
X117667Y423671D01*
X110933Y423671D01*
G37*
%LPD*%
%LPC*%
G36*
X110933Y309371D02*
X110933Y309371D01*
X106171Y314133D01*
X106171Y320867D01*
X110933Y325629D01*
X117667Y325629D01*
X122429Y320867D01*
X122429Y314133D01*
X117667Y309371D01*
X110933Y309371D01*
G37*
%LPD*%
%LPC*%
G36*
X644333Y233171D02*
X644333Y233171D01*
X639571Y237933D01*
X639571Y244667D01*
X644333Y249429D01*
X651067Y249429D01*
X655829Y244667D01*
X655829Y237933D01*
X651067Y233171D01*
X644333Y233171D01*
G37*
%LPD*%
%LPC*%
G36*
X542733Y233171D02*
X542733Y233171D01*
X537971Y237933D01*
X537971Y244667D01*
X542733Y249429D01*
X549467Y249429D01*
X554229Y244667D01*
X554229Y237933D01*
X549467Y233171D01*
X542733Y233171D01*
G37*
%LPD*%
%LPC*%
G36*
X315883Y209041D02*
X315883Y209041D01*
X312895Y210279D01*
X310609Y212565D01*
X309371Y215553D01*
X309371Y218787D01*
X310609Y221775D01*
X312895Y224061D01*
X315883Y225299D01*
X319117Y225299D01*
X322105Y224061D01*
X324391Y221775D01*
X325629Y218787D01*
X325629Y215553D01*
X324391Y212565D01*
X322105Y210279D01*
X319117Y209041D01*
X315883Y209041D01*
G37*
%LPD*%
%LPC*%
G36*
X315883Y257301D02*
X315883Y257301D01*
X312895Y258539D01*
X310609Y260825D01*
X309371Y263813D01*
X309371Y267047D01*
X310609Y270035D01*
X312895Y272321D01*
X315883Y273559D01*
X319117Y273559D01*
X322105Y272321D01*
X324391Y270035D01*
X325629Y267047D01*
X325629Y263813D01*
X324391Y260825D01*
X322105Y258539D01*
X319117Y257301D01*
X315883Y257301D01*
G37*
%LPD*%
%LPC*%
G36*
X43099Y551499D02*
X43099Y551499D01*
X43099Y557994D01*
X47807Y557994D01*
X49301Y557798D01*
X50756Y557408D01*
X52148Y556831D01*
X53453Y556078D01*
X54648Y555160D01*
X55714Y554095D01*
X56631Y552900D01*
X57384Y551595D01*
X57424Y551499D01*
X43099Y551499D01*
G37*
%LPD*%
%LPC*%
G36*
X43099Y535006D02*
X43099Y535006D01*
X43099Y541501D01*
X57424Y541501D01*
X57384Y541405D01*
X56631Y540100D01*
X55714Y538905D01*
X54648Y537840D01*
X53453Y536922D01*
X52148Y536169D01*
X50756Y535592D01*
X49301Y535202D01*
X47807Y535006D01*
X43099Y535006D01*
G37*
%LPD*%
%LPC*%
G36*
X43099Y396239D02*
X43099Y396239D01*
X43099Y401401D01*
X54576Y401401D01*
X54410Y401075D01*
X53470Y399781D01*
X52339Y398650D01*
X51045Y397710D01*
X49620Y396984D01*
X48099Y396489D01*
X46520Y396239D01*
X43099Y396239D01*
G37*
%LPD*%
%LPC*%
G36*
X43099Y281939D02*
X43099Y281939D01*
X43099Y287101D01*
X54576Y287101D01*
X54410Y286775D01*
X53470Y285481D01*
X52339Y284350D01*
X51045Y283410D01*
X49620Y282684D01*
X48099Y282189D01*
X46520Y281939D01*
X43099Y281939D01*
G37*
%LPD*%
%LPC*%
G36*
X43099Y116839D02*
X43099Y116839D01*
X43099Y122001D01*
X54576Y122001D01*
X54410Y121675D01*
X53470Y120381D01*
X52339Y119250D01*
X51045Y118310D01*
X49620Y117584D01*
X48099Y117089D01*
X46520Y116839D01*
X43099Y116839D01*
G37*
%LPD*%
%LPC*%
G36*
X29680Y396239D02*
X29680Y396239D01*
X28101Y396489D01*
X26580Y396984D01*
X25155Y397710D01*
X23861Y398650D01*
X22730Y399781D01*
X21790Y401075D01*
X21624Y401401D01*
X33101Y401401D01*
X33101Y396239D01*
X29680Y396239D01*
G37*
%LPD*%
%LPC*%
G36*
X29680Y116839D02*
X29680Y116839D01*
X28101Y117089D01*
X26580Y117584D01*
X25155Y118310D01*
X23861Y119250D01*
X22730Y120381D01*
X21790Y121675D01*
X21624Y122001D01*
X33101Y122001D01*
X33101Y116839D01*
X29680Y116839D01*
G37*
%LPD*%
%LPC*%
G36*
X29680Y281939D02*
X29680Y281939D01*
X28101Y282189D01*
X26580Y282684D01*
X25155Y283410D01*
X23861Y284350D01*
X22730Y285481D01*
X21790Y286775D01*
X21624Y287101D01*
X33101Y287101D01*
X33101Y281939D01*
X29680Y281939D01*
G37*
%LPD*%
%LPC*%
G36*
X613155Y398699D02*
X613155Y398699D01*
X613155Y401024D01*
X613380Y402445D01*
X613825Y403814D01*
X614479Y405097D01*
X615325Y406261D01*
X616343Y407279D01*
X617301Y407975D01*
X617301Y398699D01*
X613155Y398699D01*
G37*
%LPD*%
%LPC*%
G36*
X616343Y380121D02*
X616343Y380121D01*
X615325Y381139D01*
X614479Y382303D01*
X613825Y383586D01*
X613380Y384955D01*
X613155Y386376D01*
X613155Y388701D01*
X617301Y388701D01*
X617301Y379425D01*
X616343Y380121D01*
G37*
%LPD*%
%LPC*%
G36*
X538399Y307259D02*
X538399Y307259D01*
X538399Y310193D01*
X541333Y307259D01*
X538399Y307259D01*
G37*
%LPD*%
%LPC*%
G36*
X487599Y556341D02*
X487599Y556341D01*
X490533Y556341D01*
X487599Y553407D01*
X487599Y556341D01*
G37*
%LPD*%
%LPC*%
G36*
X131999Y556341D02*
X131999Y556341D01*
X134933Y556341D01*
X131999Y553407D01*
X131999Y556341D01*
G37*
%LPD*%
%LPC*%
G36*
X296867Y335199D02*
X296867Y335199D01*
X299801Y338133D01*
X299801Y335199D01*
X296867Y335199D01*
G37*
%LPD*%
%LPC*%
G36*
X525467Y307259D02*
X525467Y307259D01*
X528401Y310193D01*
X528401Y307259D01*
X525467Y307259D01*
G37*
%LPD*%
%LPC*%
G36*
X208199Y553801D02*
X208199Y553801D01*
X211133Y553801D01*
X208199Y550867D01*
X208199Y553801D01*
G37*
%LPD*%
%LPC*%
G36*
X411399Y553801D02*
X411399Y553801D01*
X414333Y553801D01*
X411399Y550867D01*
X411399Y553801D01*
G37*
%LPD*%
%LPC*%
G36*
X296867Y157399D02*
X296867Y157399D01*
X299801Y160333D01*
X299801Y157399D01*
X296867Y157399D01*
G37*
%LPD*%
%LPC*%
G36*
X119067Y556341D02*
X119067Y556341D01*
X122001Y556341D01*
X122001Y553407D01*
X119067Y556341D01*
G37*
%LPD*%
%LPC*%
G36*
X474667Y556341D02*
X474667Y556341D01*
X477601Y556341D01*
X477601Y553407D01*
X474667Y556341D01*
G37*
%LPD*%
%LPC*%
G36*
X296867Y325201D02*
X296867Y325201D01*
X299801Y325201D01*
X299801Y322267D01*
X296867Y325201D01*
G37*
%LPD*%
%LPC*%
G36*
X398467Y553801D02*
X398467Y553801D01*
X401401Y553801D01*
X401401Y550867D01*
X398467Y553801D01*
G37*
%LPD*%
%LPC*%
G36*
X195267Y553801D02*
X195267Y553801D01*
X198201Y553801D01*
X198201Y550867D01*
X195267Y553801D01*
G37*
%LPD*%
%LPC*%
G36*
X296867Y147401D02*
X296867Y147401D01*
X299801Y147401D01*
X299801Y144467D01*
X296867Y147401D01*
G37*
%LPD*%
D10*
X304800Y152400D03*
X330200Y152400D03*
D11*
X330200Y330200D03*
X304800Y330200D03*
D12*
X203200Y584200D03*
X203200Y558800D03*
X406400Y584200D03*
X406400Y558800D03*
X127000Y561340D03*
D13*
X127000Y581660D03*
D12*
X482600Y561340D03*
D13*
X482600Y581660D03*
D14*
X533400Y302260D03*
D13*
X533400Y281940D03*
D15*
X400304Y457200D02*
X387096Y457200D01*
X387096Y431800D02*
X400304Y431800D01*
X400304Y406400D02*
X387096Y406400D01*
X387096Y381000D02*
X400304Y381000D01*
X400304Y355600D02*
X387096Y355600D01*
X387096Y330200D02*
X400304Y330200D01*
X400304Y304800D02*
X387096Y304800D01*
X387096Y279400D02*
X400304Y279400D01*
X400304Y254000D02*
X387096Y254000D01*
X387096Y228600D02*
X400304Y228600D01*
X400304Y203200D02*
X387096Y203200D01*
X387096Y177800D02*
X400304Y177800D01*
X400304Y152400D02*
X387096Y152400D01*
X387096Y127000D02*
X400304Y127000D01*
X463296Y127000D02*
X476504Y127000D01*
X476504Y152400D02*
X463296Y152400D01*
X463296Y177800D02*
X476504Y177800D01*
X476504Y203200D02*
X463296Y203200D01*
X463296Y228600D02*
X476504Y228600D01*
X476504Y254000D02*
X463296Y254000D01*
X463296Y279400D02*
X476504Y279400D01*
X476504Y304800D02*
X463296Y304800D01*
X463296Y330200D02*
X476504Y330200D01*
X476504Y355600D02*
X463296Y355600D01*
X463296Y381000D02*
X476504Y381000D01*
X476504Y406400D02*
X463296Y406400D01*
X463296Y431800D02*
X476504Y431800D01*
X476504Y457200D02*
X463296Y457200D01*
D16*
X279400Y589280D02*
X279400Y604520D01*
X304800Y604520D02*
X304800Y589280D01*
X330200Y589280D02*
X330200Y604520D01*
D17*
X816747Y140500D02*
X834654Y140500D01*
X834654Y190500D02*
X816747Y190500D01*
X816747Y240500D02*
X834654Y240500D01*
X834654Y343700D02*
X816747Y343700D01*
X816747Y393700D02*
X834654Y393700D01*
X834654Y443700D02*
X816747Y443700D01*
X47054Y596500D02*
X29147Y596500D01*
X29147Y546500D02*
X47054Y546500D01*
D16*
X45720Y406400D02*
X30480Y406400D01*
X30480Y431800D02*
X45720Y431800D01*
D13*
X317500Y217170D03*
X317500Y265430D03*
D15*
X673100Y387096D02*
X673100Y400304D01*
X622300Y400304D02*
X622300Y387096D01*
X647700Y387096D02*
X647700Y400304D01*
D11*
X215900Y431800D03*
X114300Y431800D03*
X215900Y317500D03*
X114300Y317500D03*
D10*
X546100Y241300D03*
X647700Y241300D03*
D16*
X45720Y127000D02*
X30480Y127000D01*
X30480Y152400D02*
X45720Y152400D01*
X45720Y177800D02*
X30480Y177800D01*
X30480Y203200D02*
X45720Y203200D01*
D18*
X673100Y475488D03*
X673100Y540512D03*
D16*
X45720Y292100D02*
X30480Y292100D01*
X30480Y317500D02*
X45720Y317500D01*
D19*
X813000Y343700D02*
X825700Y343700D01*
X813000Y343700D02*
X787400Y318100D01*
X787400Y165100D01*
X812000Y140500D01*
X825700Y140500D01*
D20*
X304800Y381000D03*
D21*
X355600Y431800D02*
X393700Y431800D01*
X355600Y431800D02*
X304800Y381000D01*
D19*
X457200Y330200D02*
X469900Y330200D01*
X457200Y330200D02*
X431800Y304800D01*
X431800Y88900D02*
X421560Y78660D01*
X238840Y78660D02*
X114300Y203200D01*
X38100Y203200D01*
X431800Y304800D02*
X431800Y88900D01*
X421560Y78660D02*
X238840Y78660D01*
X241300Y317500D02*
X215900Y317500D01*
X241300Y317500D02*
X266700Y342900D01*
X266700Y469900D01*
X292100Y495300D01*
X406400Y495300D01*
X431800Y469900D01*
X431800Y381000D01*
X457200Y355600D01*
X469900Y355600D01*
M02*
