G04 EAGLE Gerber RS-274X export*
G75*
%MOMM*%
%FSLAX34Y34*%
%LPD*%
%INSoldermask Top*%
%IPPOS*%
%AMOC8*
5,1,8,0,0,1.08239X$1,22.5*%
G01*
%ADD10C,3.203200*%
%ADD11P,1.649562X8X22.500000*%
%ADD12P,1.649562X8X202.500000*%
%ADD13P,1.649562X8X292.500000*%
%ADD14C,1.524000*%
%ADD15P,1.649562X8X112.500000*%
%ADD16C,1.524000*%
%ADD17C,1.727200*%
%ADD18C,1.993900*%
%ADD19P,2.556822X8X112.500000*%
%ADD20C,0.959600*%


D10*
X25400Y63500D03*
X850900Y63500D03*
D11*
X304800Y152400D03*
X330200Y152400D03*
D12*
X330200Y330200D03*
X304800Y330200D03*
D13*
X203200Y584200D03*
X203200Y558800D03*
X406400Y584200D03*
X406400Y558800D03*
X127000Y561340D03*
D14*
X127000Y581660D03*
D13*
X482600Y561340D03*
D14*
X482600Y581660D03*
D15*
X533400Y302260D03*
D14*
X533400Y281940D03*
D16*
X400304Y457200D02*
X387096Y457200D01*
X387096Y431800D02*
X400304Y431800D01*
X400304Y406400D02*
X387096Y406400D01*
X387096Y381000D02*
X400304Y381000D01*
X400304Y355600D02*
X387096Y355600D01*
X387096Y330200D02*
X400304Y330200D01*
X400304Y304800D02*
X387096Y304800D01*
X387096Y279400D02*
X400304Y279400D01*
X400304Y254000D02*
X387096Y254000D01*
X387096Y228600D02*
X400304Y228600D01*
X400304Y203200D02*
X387096Y203200D01*
X387096Y177800D02*
X400304Y177800D01*
X400304Y152400D02*
X387096Y152400D01*
X387096Y127000D02*
X400304Y127000D01*
X463296Y127000D02*
X476504Y127000D01*
X476504Y152400D02*
X463296Y152400D01*
X463296Y177800D02*
X476504Y177800D01*
X476504Y203200D02*
X463296Y203200D01*
X463296Y228600D02*
X476504Y228600D01*
X476504Y254000D02*
X463296Y254000D01*
X463296Y279400D02*
X476504Y279400D01*
X476504Y304800D02*
X463296Y304800D01*
X463296Y330200D02*
X476504Y330200D01*
X476504Y355600D02*
X463296Y355600D01*
X463296Y381000D02*
X476504Y381000D01*
X476504Y406400D02*
X463296Y406400D01*
X463296Y431800D02*
X476504Y431800D01*
X476504Y457200D02*
X463296Y457200D01*
D17*
X279400Y589280D02*
X279400Y604520D01*
X304800Y604520D02*
X304800Y589280D01*
X330200Y589280D02*
X330200Y604520D01*
D18*
X816747Y140500D02*
X834654Y140500D01*
X834654Y190500D02*
X816747Y190500D01*
X816747Y240500D02*
X834654Y240500D01*
X834654Y343700D02*
X816747Y343700D01*
X816747Y393700D02*
X834654Y393700D01*
X834654Y443700D02*
X816747Y443700D01*
X47054Y596500D02*
X29147Y596500D01*
X29147Y546500D02*
X47054Y546500D01*
D17*
X45720Y406400D02*
X30480Y406400D01*
X30480Y431800D02*
X45720Y431800D01*
D14*
X317500Y217170D03*
X317500Y265430D03*
D16*
X673100Y387096D02*
X673100Y400304D01*
X622300Y400304D02*
X622300Y387096D01*
X647700Y387096D02*
X647700Y400304D01*
D12*
X215900Y431800D03*
X114300Y431800D03*
X215900Y317500D03*
X114300Y317500D03*
D11*
X546100Y241300D03*
X647700Y241300D03*
D17*
X45720Y127000D02*
X30480Y127000D01*
X30480Y152400D02*
X45720Y152400D01*
X45720Y177800D02*
X30480Y177800D01*
X30480Y203200D02*
X45720Y203200D01*
D19*
X673100Y475488D03*
X673100Y540512D03*
D17*
X45720Y292100D02*
X30480Y292100D01*
X30480Y317500D02*
X45720Y317500D01*
D20*
X304800Y381000D03*
M02*
