M48
;GenerationSoftware,Autodesk,EAGLE,9.6.2*%
;CreationDate,2021-04-13T13:00:16Z*%
FMAT,2
ICI,OFF
METRIC,TZ,000.000
T6C0.350
T5C0.813
T4C0.914
T3C1.016
T2C1.194
T1C3.000
%
G90
M71
T1
X2540Y6350
X85090Y6350
T2
X82570Y14050
X82570Y19050
X82570Y24050
X82570Y34370
X82570Y39370
X82570Y44370
X3810Y59650
X3810Y54650
T3
X27940Y59690
X33020Y59690
X30480Y59690
X3810Y40640
X3810Y43180
X3810Y31750
X3810Y12700
X3810Y15240
X3810Y17780
X3810Y20320
X3810Y29210
T4
X67310Y47549
X67310Y54051
T5
X39370Y33020
X39370Y30480
X39370Y27940
X39370Y25400
X39370Y22860
X39370Y20320
X39370Y17780
X39370Y12700
X46990Y12700
X46990Y15240
X46990Y17780
X46990Y20320
X46990Y22860
X46990Y25400
X46990Y27940
X39370Y15240
X46990Y33020
X46990Y35560
X46990Y38100
X46990Y40640
X46990Y43180
X46990Y45720
X40640Y58420
X46990Y30480
X30480Y15240
X33020Y15240
X33020Y33020
X30480Y33020
X20320Y58420
X20320Y55880
X39370Y43180
X40640Y55880
X12700Y56134
X12700Y58166
X48260Y56134
X31750Y26543
X67310Y39370
X62230Y39370
X64770Y39370
X21590Y43180
X11430Y43180
X21590Y31750
X11430Y31750
X31750Y21717
X64770Y24130
X48260Y58166
X53340Y30226
X53340Y28194
X39370Y45720
X39370Y40640
X39370Y38100
X39370Y35560
X54610Y24130
T6
X30480Y38100
M30