M48
;GenerationSoftware,Autodesk,EAGLE,9.6.2*%
;CreationDate,2021-04-07T10:03:44Z*%
FMAT,2
ICI,OFF
METRIC,TZ,000.000
T7C0.350
T6C0.500
T5C0.780
T4C0.813
T3C1.016
T2C1.194
T1C3.000
%
G90
M71
T1
X3810Y3810
X110490Y3810
T2
X110470Y11510
X110470Y35640
X110470Y21510
X110470Y16510
X110470Y45640
X110470Y40640
X5080Y40680
X5080Y45680
T3
X45720Y29210
X45720Y26670
X27940Y46990
X30480Y46990
X33020Y46990
X2540Y31750
X2540Y34290
X2540Y21590
X2540Y24130
X2540Y26670
X2540Y8890
X2540Y11430
X2540Y13970
X2540Y16510
T4
X35560Y38354
X35560Y40386
X45720Y43434
X45720Y45466
X29464Y12700
X31496Y12700
X53340Y44450
X53340Y41910
X53340Y39370
X53340Y36830
X53340Y34290
X53340Y31750
X53340Y26670
X53340Y24130
X53340Y21590
X53340Y19050
X53340Y16510
X53340Y13970
X53340Y11430
X60960Y11430
X60960Y13970
X60960Y16510
X60960Y19050
X60960Y21590
X60960Y24130
X60960Y29210
X60960Y31750
X60960Y34290
X60960Y36830
X60960Y39370
X60960Y41910
X60960Y44450
X60960Y26670
X17526Y46990
X41910Y13970
X41910Y11430
X41910Y21590
X46990Y14097
X46990Y18923
X95250Y20320
X90170Y20320
X92710Y20320
X95250Y45720
X90170Y45720
X92710Y45720
X95250Y11430
X90170Y11430
X92710Y11430
X95250Y36830
X90170Y36830
X92710Y36830
X95250Y27940
X90170Y27940
X92710Y27940
X69850Y11430
X80010Y11430
X69850Y36830
X80010Y36830
X41910Y19050
X69850Y45720
X69850Y20320
X80010Y20320
X80010Y27940
X69850Y27940
X19050Y31750
X8890Y31750
X19050Y24130
X8890Y24130
X16510Y5080
X16510Y15240
X11430Y15240
X11430Y5080
X80010Y45720
X17780Y39370
X15240Y39370
X26670Y39370
X29210Y39370
X53340Y29210
X15494Y46990
T5
X26510Y27940
X26510Y25400
X26510Y22860
X26510Y20320
X34450Y20320
X34450Y22860
X34450Y25400
X34450Y27940
T6
X13970Y19050
T7
X41910Y33020
M30